<?xml version="1.0" encoding="UTF-8" standalone="no"?>
<!DOCTYPE svg PUBLIC "-//W3C//DTD SVG 1.1//EN"
 "http://www.w3.org/Graphics/SVG/1.1/DTD/svg11.dtd">
<!-- Generated by graphviz version 2.43.0 (0)
 -->
<!-- Title: /home/ubuntu/Desktop/repositories/learn&#45;arm/src/c/lib/include/jlx12864g&#45;086.h Pages: 1 -->
<svg width="294pt" height="198pt"
 viewBox="0.00 0.00 294.00 198.00" xmlns="http://www.w3.org/2000/svg" xmlns:xlink="http://www.w3.org/1999/xlink">
<g id="graph0" class="graph" transform="scale(1 1) rotate(0) translate(4 194)">
<title>/home/ubuntu/Desktop/repositories/learn&#45;arm/src/c/lib/include/jlx12864g&#45;086.h</title>
<polygon fill="white" stroke="transparent" points="-4,4 -4,-194 290,-194 290,4 -4,4"/>
<!-- Node1 -->
<g id="node1" class="node">
<title>Node1</title>
<g id="a_node1"><a xlink:title="This header file contains all the function declarations for the LCD module.">
<polygon fill="#bfbfbf" stroke="black" points="0,-142.5 0,-189.5 212,-189.5 212,-142.5 0,-142.5"/>
<text text-anchor="start" x="8" y="-175.9" font-family="Helvetica,sans-Serif" font-size="12.00">/home/ubuntu/Desktop</text>
<text text-anchor="start" x="8" y="-162.9" font-family="Helvetica,sans-Serif" font-size="12.00">/repositories/learn&#45;arm</text>
<text text-anchor="middle" x="106" y="-149.9" font-family="Helvetica,sans-Serif" font-size="12.00">/src/c/lib/include/jlx12864g&#45;086.h</text>
</a>
</g>
</g>
<!-- Node2 -->
<g id="node2" class="node">
<title>Node2</title>
<g id="a_node2"><a xlink:href="../../d4/dbf/main_8h.html" target="_top" xlink:title="This header file contains all the function declarations for main.">
<polygon fill="white" stroke="black" points="2,-71.5 2,-92.5 60,-92.5 60,-71.5 2,-71.5"/>
<text text-anchor="middle" x="31" y="-78.9" font-family="Helvetica,sans-Serif" font-size="12.00">main.h</text>
</a>
</g>
</g>
<!-- Node1&#45;&gt;Node2 -->
<g id="edge1" class="edge">
<title>Node1&#45;&gt;Node2</title>
<path fill="none" stroke="midnightblue" d="M78.22,-134.63C64.65,-119.79 49.26,-102.96 39.84,-92.66"/>
<polygon fill="midnightblue" stroke="midnightblue" points="75.78,-137.14 85.11,-142.16 80.94,-132.42 75.78,-137.14"/>
</g>
<!-- Node4 -->
<g id="node4" class="node">
<title>Node4</title>
<g id="a_node4"><a xlink:href="../../da/d22/jlx12864g-086_8c.html" target="_top" xlink:title=" ">
<polygon fill="white" stroke="black" points="78,-58.5 78,-105.5 286,-105.5 286,-58.5 78,-58.5"/>
<text text-anchor="start" x="86" y="-91.9" font-family="Helvetica,sans-Serif" font-size="12.00">/home/ubuntu/Desktop</text>
<text text-anchor="start" x="86" y="-78.9" font-family="Helvetica,sans-Serif" font-size="12.00">/repositories/learn&#45;arm</text>
<text text-anchor="middle" x="182" y="-65.9" font-family="Helvetica,sans-Serif" font-size="12.00">/src/c/lib/source/jlx12864g&#45;086.c</text>
</a>
</g>
</g>
<!-- Node1&#45;&gt;Node4 -->
<g id="edge3" class="edge">
<title>Node1&#45;&gt;Node4</title>
<path fill="none" stroke="midnightblue" d="M134.09,-134.69C142.97,-125.11 152.64,-114.68 160.94,-105.72"/>
<polygon fill="midnightblue" stroke="midnightblue" points="131.4,-132.44 127.17,-142.16 136.53,-137.2 131.4,-132.44"/>
</g>
<!-- Node3 -->
<g id="node3" class="node">
<title>Node3</title>
<g id="a_node3"><a xlink:href="../../d0/d29/main_8c.html" target="_top" xlink:title=" ">
<polygon fill="white" stroke="black" points="2.5,-0.5 2.5,-21.5 59.5,-21.5 59.5,-0.5 2.5,-0.5"/>
<text text-anchor="middle" x="31" y="-7.9" font-family="Helvetica,sans-Serif" font-size="12.00">main.c</text>
</a>
</g>
</g>
<!-- Node2&#45;&gt;Node3 -->
<g id="edge2" class="edge">
<title>Node2&#45;&gt;Node3</title>
<path fill="none" stroke="midnightblue" d="M31,-61.09C31,-48.08 31,-31.68 31,-21.51"/>
<polygon fill="midnightblue" stroke="midnightblue" points="27.5,-61.41 31,-71.41 34.5,-61.41 27.5,-61.41"/>
</g>
</g>
</svg>
