<?xml version="1.0" encoding="UTF-8" standalone="no"?>
<!DOCTYPE svg PUBLIC "-//W3C//DTD SVG 1.1//EN"
 "http://www.w3.org/Graphics/SVG/1.1/DTD/svg11.dtd">
<!-- Generated by graphviz version 2.43.0 (0)
 -->
<!-- Title: initialize Pages: 1 -->
<!--zoomable 830 -->
<svg id="main" version="1.1" xmlns="http://www.w3.org/2000/svg" xmlns:xlink="http://www.w3.org/1999/xlink" xml:space="preserve" onload="init(evt)">
<style type="text/css"><![CDATA[
.edge:hover path { stroke: red; }
.edge:hover polygon { stroke: red; fill: red; }
]]></style>
<script type="text/javascript"><![CDATA[
var edges = document.getElementsByTagName('g');
if (edges && edges.length) {
  for (var i=0;i<edges.length;i++) {
    if (edges[i].id.substr(0,4)=='edge') {
      edges[i].setAttribute('class','edge');
    }
  }
}
]]></script>
        <defs>
                <circle id="rim" cx="0" cy="0" r="7"/>
                <circle id="rim2" cx="0" cy="0" r="3.5"/>
                <g id="zoomPlus">
                        <use xlink:href="#rim" fill="#404040">
                                <set attributeName="fill" to="#808080" begin="zoomplus.mouseover" end="zoomplus.mouseout"/>
                        </use>
                        <path d="M-4,0h8M0,-4v8" fill="none" stroke="white" stroke-width="1.5" pointer-events="none"/>
                </g>
                <g id="zoomMin">
                        <use xlink:href="#rim" fill="#404040">
                                <set attributeName="fill" to="#808080" begin="zoomminus.mouseover" end="zoomminus.mouseout"/>
                        </use>
                        <path d="M-4,0h8" fill="none" stroke="white" stroke-width="1.5" pointer-events="none"/>
                </g>
                <g id="dirArrow">
                        <path fill="none" stroke="white" stroke-width="1.5" d="M0,-3.0v7 M-2.5,-0.5L0,-3.0L2.5,-0.5"/>
                </g>
               <g id="resetDef">
                       <use xlink:href="#rim2" fill="#404040">
                               <set attributeName="fill" to="#808080" begin="reset.mouseover" end="reset.mouseout"/>
                       </use>
               </g>
        </defs>

<script type="text/javascript">
var viewWidth = 444;
var viewHeight = 830;
var sectionId = 'dynsection-4';
</script>
<script xlink:href="../../svgpan.js"/>
<svg id="graph" class="graph">
<g id="viewport">
<title>initialize</title>
<polygon fill="white" stroke="transparent" points="-4,4 -4,-826 440,-826 440,4 -4,4"/>
<!-- Node1 -->
<g id="node1" class="node">
<title>Node1</title>
<g id="a_node1"><a xlink:title="System initialization.">
<polygon fill="#bfbfbf" stroke="black" points="0,-420.5 0,-441.5 65,-441.5 65,-420.5 0,-420.5"/>
<text text-anchor="middle" x="32.5" y="-427.9" font-family="Helvetica,sans-Serif" font-size="12.00">initialize</text>
</a>
</g>
</g>
<!-- Node2 -->
<g id="node2" class="node">
<title>Node2</title>
<g id="a_node2"><a xlink:href="../../d6/d7c/gpio_8h.html#a439e53843c575f79671ed97866108782" target="_top" xlink:title=" ">
<polygon fill="white" stroke="black" points="304,-800.5 304,-821.5 418,-821.5 418,-800.5 304,-800.5"/>
<text text-anchor="middle" x="361" y="-807.9" font-family="Helvetica,sans-Serif" font-size="12.00">configurePortPin</text>
</a>
</g>
</g>
<!-- Node1&#45;&gt;Node2 -->
<g id="edge1" class="edge">
<title>Node1&#45;&gt;Node2</title>
<path fill="none" stroke="midnightblue" d="M34.02,-441.63C36.82,-493.98 51.79,-723.85 101,-771 151.59,-819.48 235.05,-824.1 293.51,-820.1"/>
<polygon fill="midnightblue" stroke="midnightblue" points="294.07,-823.56 303.76,-819.29 293.52,-816.59 294.07,-823.56"/>
</g>
<!-- Node3 -->
<g id="node3" class="node">
<title>Node3</title>
<g id="a_node3"><a xlink:href="../../d0/d29/main_8c.html#a12328a89779fb2776c00ab40b53319a2" target="_top" xlink:title="System clock confoguration.">
<polygon fill="white" stroke="black" points="101,-420.5 101,-441.5 250,-441.5 250,-420.5 101,-420.5"/>
<text text-anchor="middle" x="175.5" y="-427.9" font-family="Helvetica,sans-Serif" font-size="12.00">configureSystemClock</text>
</a>
</g>
</g>
<!-- Node1&#45;&gt;Node3 -->
<g id="edge2" class="edge">
<title>Node1&#45;&gt;Node3</title>
<path fill="none" stroke="midnightblue" d="M65.14,-431C72.93,-431 81.64,-431 90.65,-431"/>
<polygon fill="midnightblue" stroke="midnightblue" points="90.91,-434.5 100.91,-431 90.91,-427.5 90.91,-434.5"/>
</g>
<!-- Node18 -->
<g id="node18" class="node">
<title>Node18</title>
<g id="a_node18"><a xlink:href="../../dd/dee/delay_8h.html#a18b702d5b49c1b404219437ba61eb913" target="_top" xlink:title="Deley configuratio.">
<polygon fill="white" stroke="black" points="136,-100.5 136,-121.5 215,-121.5 215,-100.5 136,-100.5"/>
<text text-anchor="middle" x="175.5" y="-107.9" font-family="Helvetica,sans-Serif" font-size="12.00">delays_init</text>
</a>
</g>
</g>
<!-- Node1&#45;&gt;Node18 -->
<g id="edge17" class="edge">
<title>Node1&#45;&gt;Node18</title>
<path fill="none" stroke="midnightblue" d="M38.19,-420.35C58.47,-374.32 138.8,-192.01 165.68,-131.01"/>
<polygon fill="midnightblue" stroke="midnightblue" points="168.96,-132.25 169.79,-121.69 162.56,-129.43 168.96,-132.25"/>
</g>
<!-- Node23 -->
<g id="node23" class="node">
<title>Node23</title>
<g id="a_node23"><a xlink:href="../../d0/d29/main_8c.html#adc52587fad33ace0c6a1268953777d6f" target="_top" xlink:title="HC&#45;SRO4 configuration.">
<polygon fill="white" stroke="black" points="143,-740.5 143,-761.5 208,-761.5 208,-740.5 143,-740.5"/>
<text text-anchor="middle" x="175.5" y="-747.9" font-family="Helvetica,sans-Serif" font-size="12.00">HCSR04</text>
</a>
</g>
</g>
<!-- Node1&#45;&gt;Node23 -->
<g id="edge22" class="edge">
<title>Node1&#45;&gt;Node23</title>
<path fill="none" stroke="midnightblue" d="M38.19,-441.65C58.47,-487.68 138.8,-669.99 165.68,-730.99"/>
<polygon fill="midnightblue" stroke="midnightblue" points="162.56,-732.57 169.79,-740.31 168.96,-729.75 162.56,-732.57"/>
</g>
<!-- Node26 -->
<g id="node26" class="node">
<title>Node26</title>
<g id="a_node26"><a xlink:href="../../d0/dea/jlx12864g-086_8h.html#a9ffc724093e31df58e5e5bea364c72f7" target="_top" xlink:title="LCD initialization and setup.">
<polygon fill="white" stroke="black" points="149,-60.5 149,-81.5 202,-81.5 202,-60.5 149,-60.5"/>
<text text-anchor="middle" x="175.5" y="-67.9" font-family="Helvetica,sans-Serif" font-size="12.00">lcdInit</text>
</a>
</g>
</g>
<!-- Node1&#45;&gt;Node26 -->
<g id="edge26" class="edge">
<title>Node1&#45;&gt;Node26</title>
<path fill="none" stroke="midnightblue" d="M34.13,-420.48C37.45,-368.64 54.52,-140.84 101,-91 110.7,-80.6 125.23,-75.4 138.81,-72.88"/>
<polygon fill="midnightblue" stroke="midnightblue" points="139.52,-76.32 148.92,-71.43 138.53,-69.39 139.52,-76.32"/>
</g>
<!-- Node4 -->
<g id="node4" class="node">
<title>Node4</title>
<g id="a_node4"><a xlink:href="../../db/d65/rcc_8h.html#ae6afc13fa775027cf00c702db10c7b78" target="_top" xlink:title=" ">
<polygon fill="white" stroke="black" points="321.5,-680.5 321.5,-701.5 400.5,-701.5 400.5,-680.5 321.5,-680.5"/>
<text text-anchor="middle" x="361" y="-687.9" font-family="Helvetica,sans-Serif" font-size="12.00">disableHSI</text>
</a>
</g>
</g>
<!-- Node3&#45;&gt;Node4 -->
<g id="edge3" class="edge">
<title>Node3&#45;&gt;Node4</title>
<path fill="none" stroke="midnightblue" d="M178.07,-441.54C184.23,-478.97 210.2,-606.72 286,-671 293.23,-677.13 302.17,-681.4 311.3,-684.37"/>
<polygon fill="midnightblue" stroke="midnightblue" points="310.64,-687.82 321.22,-687.1 312.51,-681.07 310.64,-687.82"/>
</g>
<!-- Node5 -->
<g id="node5" class="node">
<title>Node5</title>
<g id="a_node5"><a xlink:href="../../db/d65/rcc_8h.html#a0b52b269c09b623be3189a1fe0b380cb" target="_top" xlink:title=" ">
<polygon fill="white" stroke="black" points="320.5,-640.5 320.5,-661.5 401.5,-661.5 401.5,-640.5 320.5,-640.5"/>
<text text-anchor="middle" x="361" y="-647.9" font-family="Helvetica,sans-Serif" font-size="12.00">enableHSE</text>
</a>
</g>
</g>
<!-- Node3&#45;&gt;Node5 -->
<g id="edge4" class="edge">
<title>Node3&#45;&gt;Node5</title>
<path fill="none" stroke="midnightblue" d="M179.12,-441.62C187.94,-475.02 219.75,-578.84 286,-631 293.22,-636.68 301.92,-640.75 310.79,-643.67"/>
<polygon fill="midnightblue" stroke="midnightblue" points="309.84,-647.04 320.41,-646.41 311.75,-640.31 309.84,-647.04"/>
</g>
<!-- Node6 -->
<g id="node6" class="node">
<title>Node6</title>
<g id="a_node6"><a xlink:href="../../db/d65/rcc_8h.html#a1b74430b4de3f741fb9d163863e28889" target="_top" xlink:title=" ">
<polygon fill="white" stroke="black" points="322.5,-600.5 322.5,-621.5 399.5,-621.5 399.5,-600.5 322.5,-600.5"/>
<text text-anchor="middle" x="361" y="-607.9" font-family="Helvetica,sans-Serif" font-size="12.00">enableHSI</text>
</a>
</g>
</g>
<!-- Node3&#45;&gt;Node6 -->
<g id="edge5" class="edge">
<title>Node3&#45;&gt;Node6</title>
<path fill="none" stroke="midnightblue" d="M180.75,-441.91C192.66,-470.95 229.18,-550.67 286,-591 293.89,-596.6 303.27,-600.64 312.66,-603.54"/>
<polygon fill="midnightblue" stroke="midnightblue" points="311.82,-606.94 322.38,-606.18 313.65,-600.18 311.82,-606.94"/>
</g>
<!-- Node7 -->
<g id="node7" class="node">
<title>Node7</title>
<g id="a_node7"><a xlink:href="../../db/d65/rcc_8h.html#a3be91f727edb82bd215846bd539d7387" target="_top" xlink:title=" ">
<polygon fill="white" stroke="black" points="322,-560.5 322,-581.5 400,-581.5 400,-560.5 322,-560.5"/>
<text text-anchor="middle" x="361" y="-567.9" font-family="Helvetica,sans-Serif" font-size="12.00">enablePLL</text>
</a>
</g>
</g>
<!-- Node3&#45;&gt;Node7 -->
<g id="edge6" class="edge">
<title>Node3&#45;&gt;Node7</title>
<path fill="none" stroke="midnightblue" d="M183.24,-441.85C198.49,-465.48 238.08,-521.78 286,-551 293.93,-555.83 303.03,-559.52 312.08,-562.32"/>
<polygon fill="midnightblue" stroke="midnightblue" points="311.24,-565.72 321.82,-565.03 313.12,-558.98 311.24,-565.72"/>
</g>
<!-- Node8 -->
<g id="node8" class="node">
<title>Node8</title>
<g id="a_node8"><a xlink:href="../../db/d65/rcc_8h.html#a82d47532e7b273cc3c952f535101a7e0" target="_top" xlink:title=" ">
<polygon fill="white" stroke="black" points="329.5,-520.5 329.5,-541.5 392.5,-541.5 392.5,-520.5 329.5,-520.5"/>
<text text-anchor="middle" x="361" y="-527.9" font-family="Helvetica,sans-Serif" font-size="12.00">getSWS</text>
</a>
</g>
</g>
<!-- Node3&#45;&gt;Node8 -->
<g id="edge7" class="edge">
<title>Node3&#45;&gt;Node8</title>
<path fill="none" stroke="midnightblue" d="M188.03,-441.7C207.03,-458.77 246.73,-492.15 286,-511 296.38,-515.98 308.2,-519.88 319.29,-522.86"/>
<polygon fill="midnightblue" stroke="midnightblue" points="318.67,-526.31 329.22,-525.34 320.36,-519.52 318.67,-526.31"/>
</g>
<!-- Node9 -->
<g id="node9" class="node">
<title>Node9</title>
<g id="a_node9"><a xlink:href="../../db/d65/rcc_8h.html#acd7ec726841aa09291e03caf9dc99cad" target="_top" xlink:title=" ">
<polygon fill="white" stroke="black" points="324,-480.5 324,-501.5 398,-501.5 398,-480.5 324,-480.5"/>
<text text-anchor="middle" x="361" y="-487.9" font-family="Helvetica,sans-Serif" font-size="12.00">isHSERDY</text>
</a>
</g>
</g>
<!-- Node3&#45;&gt;Node9 -->
<g id="edge8" class="edge">
<title>Node3&#45;&gt;Node9</title>
<path fill="none" stroke="midnightblue" d="M203.28,-441.52C225.31,-449.99 257.45,-461.95 286,-471 294.94,-473.84 304.57,-476.63 313.83,-479.18"/>
<polygon fill="midnightblue" stroke="midnightblue" points="313.12,-482.62 323.69,-481.85 314.95,-475.86 313.12,-482.62"/>
</g>
<!-- Node10 -->
<g id="node10" class="node">
<title>Node10</title>
<g id="a_node10"><a xlink:href="../../db/d65/rcc_8h.html#a6db581a7d2d063914c641c760ebacb1c" target="_top" xlink:title=" ">
<polygon fill="white" stroke="black" points="325.5,-440.5 325.5,-461.5 396.5,-461.5 396.5,-440.5 325.5,-440.5"/>
<text text-anchor="middle" x="361" y="-447.9" font-family="Helvetica,sans-Serif" font-size="12.00">isPLLRDY</text>
</a>
</g>
</g>
<!-- Node3&#45;&gt;Node10 -->
<g id="edge9" class="edge">
<title>Node3&#45;&gt;Node10</title>
<path fill="none" stroke="midnightblue" d="M250.08,-439.02C272.05,-441.41 295.48,-443.97 315.03,-446.1"/>
<polygon fill="midnightblue" stroke="midnightblue" points="314.85,-449.6 325.17,-447.2 315.61,-442.64 314.85,-449.6"/>
</g>
<!-- Node11 -->
<g id="node11" class="node">
<title>Node11</title>
<g id="a_node11"><a xlink:href="../../db/d65/rcc_8h.html#ab71a6ad12903e798c100623dd9eb8c94" target="_top" xlink:title=" ">
<polygon fill="white" stroke="black" points="313.5,-400.5 313.5,-421.5 408.5,-421.5 408.5,-400.5 313.5,-400.5"/>
<text text-anchor="middle" x="361" y="-407.9" font-family="Helvetica,sans-Serif" font-size="12.00">setAPB1_PSC</text>
</a>
</g>
</g>
<!-- Node3&#45;&gt;Node11 -->
<g id="edge10" class="edge">
<title>Node3&#45;&gt;Node11</title>
<path fill="none" stroke="midnightblue" d="M250.08,-422.98C267.75,-421.05 286.36,-419.03 303.13,-417.2"/>
<polygon fill="midnightblue" stroke="midnightblue" points="303.76,-420.65 313.32,-416.09 303,-413.69 303.76,-420.65"/>
</g>
<!-- Node12 -->
<g id="node12" class="node">
<title>Node12</title>
<g id="a_node12"><a xlink:href="../../db/d65/rcc_8h.html#a02a454816ffa1e12fa575a823541c24b" target="_top" xlink:title=" ">
<polygon fill="white" stroke="black" points="316.5,-360.5 316.5,-381.5 405.5,-381.5 405.5,-360.5 316.5,-360.5"/>
<text text-anchor="middle" x="361" y="-367.9" font-family="Helvetica,sans-Serif" font-size="12.00">setPLLMULL</text>
</a>
</g>
</g>
<!-- Node3&#45;&gt;Node12 -->
<g id="edge11" class="edge">
<title>Node3&#45;&gt;Node12</title>
<path fill="none" stroke="midnightblue" d="M203.28,-420.48C225.31,-412.01 257.45,-400.05 286,-391 293.23,-388.71 300.91,-386.44 308.49,-384.31"/>
<polygon fill="midnightblue" stroke="midnightblue" points="309.62,-387.63 318.33,-381.59 307.76,-380.88 309.62,-387.63"/>
</g>
<!-- Node13 -->
<g id="node13" class="node">
<title>Node13</title>
<g id="a_node13"><a xlink:href="../../db/d65/rcc_8h.html#ae96d85e94276563b13b7e2913663509a" target="_top" xlink:title=" ">
<polygon fill="white" stroke="black" points="321.5,-320.5 321.5,-341.5 400.5,-341.5 400.5,-320.5 321.5,-320.5"/>
<text text-anchor="middle" x="361" y="-327.9" font-family="Helvetica,sans-Serif" font-size="12.00">setPLLSRC</text>
</a>
</g>
</g>
<!-- Node3&#45;&gt;Node13 -->
<g id="edge12" class="edge">
<title>Node3&#45;&gt;Node13</title>
<path fill="none" stroke="midnightblue" d="M188.03,-420.3C207.03,-403.23 246.73,-369.85 286,-351 294.02,-347.15 302.9,-343.95 311.64,-341.32"/>
<polygon fill="midnightblue" stroke="midnightblue" points="312.71,-344.65 321.39,-338.59 310.82,-337.91 312.71,-344.65"/>
</g>
<!-- Node14 -->
<g id="node14" class="node">
<title>Node14</title>
<g id="a_node14"><a xlink:href="../../de/df7/flash_8h.html#ace9801898b51369815b2c84090247fda" target="_top" xlink:title=" ">
<polygon fill="white" stroke="black" points="324.5,-280.5 324.5,-301.5 397.5,-301.5 397.5,-280.5 324.5,-280.5"/>
<text text-anchor="middle" x="361" y="-287.9" font-family="Helvetica,sans-Serif" font-size="12.00">setPRFTB</text>
</a>
</g>
</g>
<!-- Node3&#45;&gt;Node14 -->
<g id="edge13" class="edge">
<title>Node3&#45;&gt;Node14</title>
<path fill="none" stroke="midnightblue" d="M183.24,-420.15C198.49,-396.52 238.08,-340.22 286,-311 294.69,-305.7 304.8,-301.78 314.7,-298.89"/>
<polygon fill="midnightblue" stroke="midnightblue" points="315.68,-302.25 324.46,-296.33 313.9,-295.48 315.68,-302.25"/>
</g>
<!-- Node15 -->
<g id="node15" class="node">
<title>Node15</title>
<g id="a_node15"><a xlink:href="../../db/d65/rcc_8h.html#a53f21eb4bf2dc08206465ec9e1732e31" target="_top" xlink:title=" ">
<polygon fill="white" stroke="black" points="334,-240.5 334,-261.5 388,-261.5 388,-240.5 334,-240.5"/>
<text text-anchor="middle" x="361" y="-247.9" font-family="Helvetica,sans-Serif" font-size="12.00">setSW</text>
</a>
</g>
</g>
<!-- Node3&#45;&gt;Node15 -->
<g id="edge14" class="edge">
<title>Node3&#45;&gt;Node15</title>
<path fill="none" stroke="midnightblue" d="M180.75,-420.09C192.66,-391.05 229.18,-311.33 286,-271 297.05,-263.16 311.01,-258.39 323.82,-255.49"/>
<polygon fill="midnightblue" stroke="midnightblue" points="324.63,-258.9 333.77,-253.55 323.28,-252.03 324.63,-258.9"/>
</g>
<!-- Node16 -->
<g id="node16" class="node">
<title>Node16</title>
<g id="a_node16"><a xlink:href="../../db/d65/rcc_8h.html#a66357a0cd7d9abe6d56beb13e36098a6" target="_top" xlink:title=" ">
<polygon fill="white" stroke="black" points="319.5,-200.5 319.5,-221.5 402.5,-221.5 402.5,-200.5 319.5,-200.5"/>
<text text-anchor="middle" x="361" y="-207.9" font-family="Helvetica,sans-Serif" font-size="12.00">setUSBPRE</text>
</a>
</g>
</g>
<!-- Node3&#45;&gt;Node16 -->
<g id="edge15" class="edge">
<title>Node3&#45;&gt;Node16</title>
<path fill="none" stroke="midnightblue" d="M179.12,-420.38C187.94,-386.98 219.75,-283.16 286,-231 292.91,-225.56 301.19,-221.59 309.67,-218.7"/>
<polygon fill="midnightblue" stroke="midnightblue" points="310.66,-222.06 319.26,-215.88 308.68,-215.35 310.66,-222.06"/>
</g>
<!-- Node17 -->
<g id="node17" class="node">
<title>Node17</title>
<g id="a_node17"><a xlink:href="../../de/df7/flash_8h.html#a402a1d3e698c805d9b06d251ad84bcd7" target="_top" xlink:title=" ">
<polygon fill="white" stroke="black" points="312,-160.5 312,-181.5 410,-181.5 410,-160.5 312,-160.5"/>
<text text-anchor="middle" x="361" y="-167.9" font-family="Helvetica,sans-Serif" font-size="12.00">setWaitStates</text>
</a>
</g>
</g>
<!-- Node3&#45;&gt;Node17 -->
<g id="edge16" class="edge">
<title>Node3&#45;&gt;Node17</title>
<path fill="none" stroke="midnightblue" d="M178.07,-420.46C184.23,-383.03 210.2,-255.28 286,-191 290.86,-186.88 296.5,-183.6 302.44,-180.99"/>
<polygon fill="midnightblue" stroke="midnightblue" points="303.84,-184.2 311.98,-177.42 301.39,-177.65 303.84,-184.2"/>
</g>
<!-- Node19 -->
<g id="node19" class="node">
<title>Node19</title>
<g id="a_node19"><a xlink:href="../../d3/dcb/systick_8h.html#ae21aa60af271633215766ee6be6b8870" target="_top" xlink:title=" ">
<polygon fill="white" stroke="black" points="302.5,-120.5 302.5,-141.5 419.5,-141.5 419.5,-120.5 302.5,-120.5"/>
<text text-anchor="middle" x="361" y="-127.9" font-family="Helvetica,sans-Serif" font-size="12.00">disableException</text>
</a>
</g>
</g>
<!-- Node18&#45;&gt;Node19 -->
<g id="edge18" class="edge">
<title>Node18&#45;&gt;Node19</title>
<path fill="none" stroke="midnightblue" d="M215.42,-115.24C237.71,-117.67 266.31,-120.79 292.18,-123.61"/>
<polygon fill="midnightblue" stroke="midnightblue" points="292,-127.11 302.32,-124.71 292.76,-120.15 292,-127.11"/>
</g>
<!-- Node20 -->
<g id="node20" class="node">
<title>Node20</title>
<g id="a_node20"><a xlink:href="../../d3/dcb/systick_8h.html#a1f7309053baf77d254dbee15d7d3eec5" target="_top" xlink:title=" ">
<polygon fill="white" stroke="black" points="294,-80.5 294,-101.5 428,-101.5 428,-80.5 294,-80.5"/>
<text text-anchor="middle" x="361" y="-87.9" font-family="Helvetica,sans-Serif" font-size="12.00">disableSystickTimer</text>
</a>
</g>
</g>
<!-- Node18&#45;&gt;Node20 -->
<g id="edge19" class="edge">
<title>Node18&#45;&gt;Node20</title>
<path fill="none" stroke="midnightblue" d="M215.42,-106.76C235.3,-104.59 260.2,-101.88 283.72,-99.31"/>
<polygon fill="midnightblue" stroke="midnightblue" points="284.13,-102.79 293.69,-98.23 283.37,-95.83 284.13,-102.79"/>
</g>
<!-- Node21 -->
<g id="node21" class="node">
<title>Node21</title>
<g id="a_node21"><a xlink:href="../../d3/dcb/systick_8h.html#ad22b34d574ab648dcef84ffaca75de8f" target="_top" xlink:title=" ">
<polygon fill="white" stroke="black" points="294.5,-40.5 294.5,-61.5 427.5,-61.5 427.5,-40.5 294.5,-40.5"/>
<text text-anchor="middle" x="361" y="-47.9" font-family="Helvetica,sans-Serif" font-size="12.00">enableSystickTimer</text>
</a>
</g>
</g>
<!-- Node18&#45;&gt;Node21 -->
<g id="edge20" class="edge">
<title>Node18&#45;&gt;Node21</title>
<path fill="none" stroke="midnightblue" d="M215.23,-102.34C226.62,-99.29 238.98,-95.49 250,-91 266.95,-84.1 269.04,-77.88 286,-71 291.83,-68.64 298.02,-66.46 304.25,-64.49"/>
<polygon fill="midnightblue" stroke="midnightblue" points="305.45,-67.78 314.03,-61.56 303.44,-61.08 305.45,-67.78"/>
</g>
<!-- Node22 -->
<g id="node22" class="node">
<title>Node22</title>
<g id="a_node22"><a xlink:href="../../d3/dcb/systick_8h.html#ab70024ec848e492efb0f9a0b266641bd" target="_top" xlink:title=" ">
<polygon fill="white" stroke="black" points="308.5,-0.5 308.5,-21.5 413.5,-21.5 413.5,-0.5 308.5,-0.5"/>
<text text-anchor="middle" x="361" y="-7.9" font-family="Helvetica,sans-Serif" font-size="12.00">setCockSource</text>
</a>
</g>
</g>
<!-- Node18&#45;&gt;Node22 -->
<g id="edge21" class="edge">
<title>Node18&#45;&gt;Node22</title>
<path fill="none" stroke="midnightblue" d="M215.26,-106.22C227.28,-103.29 239.98,-98.58 250,-91 274.79,-72.23 261.19,-49.75 286,-31 289.91,-28.05 294.22,-25.53 298.75,-23.38"/>
<polygon fill="midnightblue" stroke="midnightblue" points="300.34,-26.51 308.26,-19.48 297.68,-20.04 300.34,-26.51"/>
</g>
<!-- Node23&#45;&gt;Node2 -->
<g id="edge23" class="edge">
<title>Node23&#45;&gt;Node2</title>
<path fill="none" stroke="midnightblue" d="M203.28,-761.52C225.31,-769.99 257.45,-781.95 286,-791 293.23,-793.29 300.91,-795.56 308.49,-797.69"/>
<polygon fill="midnightblue" stroke="midnightblue" points="307.76,-801.12 318.33,-800.41 309.62,-794.37 307.76,-801.12"/>
</g>
<!-- Node24 -->
<g id="node24" class="node">
<title>Node24</title>
<g id="a_node24"><a xlink:href="../../db/d65/rcc_8h.html#a8716597cde5f9094c477d09e155f78fe" target="_top" xlink:title=" ">
<polygon fill="white" stroke="black" points="286,-760.5 286,-781.5 436,-781.5 436,-760.5 286,-760.5"/>
<text text-anchor="middle" x="361" y="-767.9" font-family="Helvetica,sans-Serif" font-size="12.00">enablePeripheralClock</text>
</a>
</g>
</g>
<!-- Node23&#45;&gt;Node24 -->
<g id="edge24" class="edge">
<title>Node23&#45;&gt;Node24</title>
<path fill="none" stroke="midnightblue" d="M208.04,-754.44C226.78,-756.48 251.52,-759.18 275.58,-761.8"/>
<polygon fill="midnightblue" stroke="midnightblue" points="275.52,-765.31 285.84,-762.92 276.27,-758.35 275.52,-765.31"/>
</g>
<!-- Node25 -->
<g id="node25" class="node">
<title>Node25</title>
<g id="a_node25"><a xlink:href="../../d6/d7c/gpio_8h.html#a8fb639edaa0779019761b860827fc20c" target="_top" xlink:title=" ">
<polygon fill="white" stroke="black" points="328,-720.5 328,-741.5 394,-741.5 394,-720.5 328,-720.5"/>
<text text-anchor="middle" x="361" y="-727.9" font-family="Helvetica,sans-Serif" font-size="12.00">pinState</text>
</a>
</g>
</g>
<!-- Node23&#45;&gt;Node25 -->
<g id="edge25" class="edge">
<title>Node23&#45;&gt;Node25</title>
<path fill="none" stroke="midnightblue" d="M208.04,-747.56C238.41,-744.25 284.53,-739.23 318,-735.58"/>
<polygon fill="midnightblue" stroke="midnightblue" points="318.38,-739.06 327.94,-734.49 317.62,-732.1 318.38,-739.06"/>
</g>
</g>
</svg>
        <g id="navigator" transform="translate(0 0)" fill="#404254">
                <rect fill="#f2f5e9" fill-opacity="0.5" stroke="#606060" stroke-width=".5" x="0" y="0" width="60" height="60"/>
                <use id="zoomplus" xlink:href="#zoomPlus" x="17" y="9" onmousedown="handleZoom(evt,'in')"/>
                <use id="zoomminus" xlink:href="#zoomMin" x="42" y="9" onmousedown="handleZoom(evt,'out')"/>
                <use id="reset" xlink:href="#resetDef" x="30" y="36" onmousedown="handleReset()"/>
                <g id="arrowUp" xlink:href="#dirArrow" transform="translate(30 24)" onmousedown="handlePan(0,-1)">
                  <use xlink:href="#rim" fill="#404040">
                        <set attributeName="fill" to="#808080" begin="arrowUp.mouseover" end="arrowUp.mouseout"/>
                  </use>
                  <path fill="none" stroke="white" stroke-width="1.5" d="M0,-3.0v7 M-2.5,-0.5L0,-3.0L2.5,-0.5"/>
                </g>
                <g id="arrowRight" xlink:href="#dirArrow" transform="rotate(90) translate(36 -43)" onmousedown="handlePan(1,0)">
                  <use xlink:href="#rim" fill="#404040">
                        <set attributeName="fill" to="#808080" begin="arrowRight.mouseover" end="arrowRight.mouseout"/>
                  </use>
                  <path fill="none" stroke="white" stroke-width="1.5" d="M0,-3.0v7 M-2.5,-0.5L0,-3.0L2.5,-0.5"/>
                </g>
                <g id="arrowDown" xlink:href="#dirArrow" transform="rotate(180) translate(-30 -48)" onmousedown="handlePan(0,1)">
                  <use xlink:href="#rim" fill="#404040">
                        <set attributeName="fill" to="#808080" begin="arrowDown.mouseover" end="arrowDown.mouseout"/>
                  </use>
                  <path fill="none" stroke="white" stroke-width="1.5" d="M0,-3.0v7 M-2.5,-0.5L0,-3.0L2.5,-0.5"/>
                </g>
                <g id="arrowLeft" xlink:href="#dirArrow" transform="rotate(270) translate(-36 17)" onmousedown="handlePan(-1,0)">
                  <use xlink:href="#rim" fill="#404040">
                        <set attributeName="fill" to="#808080" begin="arrowLeft.mouseover" end="arrowLeft.mouseout"/>
                  </use>
                  <path fill="none" stroke="white" stroke-width="1.5" d="M0,-3.0v7 M-2.5,-0.5L0,-3.0L2.5,-0.5"/>
                </g>
        </g>
        <svg viewBox="0 0 15 15" width="100%" height="30px" preserveAspectRatio="xMaxYMin meet">
         <g id="arrow_out" transform="scale(0.3 0.3)">
          <a xlink:href="main_8h_a9efe22aaead3a5e936b5df459de02eba_cgraph_org.svg" target="_base">
           <rect id="button" ry="5" rx="5" y="6" x="6" height="38" width="38"
                fill="#f2f5e9" fill-opacity="0.5" stroke="#606060" stroke-width="1.0"/>
           <path id="arrow"
             d="M 11.500037,31.436501 C 11.940474,20.09759 22.043105,11.32322 32.158766,21.979434 L 37.068811,17.246167 C 37.068811,17.246167 37.088388,32 37.088388,32 L 22.160133,31.978069 C 22.160133,31.978069 26.997745,27.140456 26.997745,27.140456 C 18.528582,18.264221 13.291696,25.230495 11.500037,31.436501 z"
             style="fill:#404040;"/>
          </a>
         </g>
        </svg>
</svg>
