<?xml version="1.0" encoding="UTF-8" standalone="no"?>
<!DOCTYPE svg PUBLIC "-//W3C//DTD SVG 1.1//EN"
 "http://www.w3.org/Graphics/SVG/1.1/DTD/svg11.dtd">
<!-- Generated by graphviz version 2.43.0 (0)
 -->
<!-- Title: /home/ubuntu/Desktop/repositories/learn&#45;arm/src/c/lib/include/jlx12864g&#45;086.h Pages: 1 -->
<svg width="393pt" height="230pt"
 viewBox="0.00 0.00 392.56 230.00" xmlns="http://www.w3.org/2000/svg" xmlns:xlink="http://www.w3.org/1999/xlink">
<g id="graph0" class="graph" transform="scale(1 1) rotate(0) translate(4 226)">
<title>/home/ubuntu/Desktop/repositories/learn&#45;arm/src/c/lib/include/jlx12864g&#45;086.h</title>
<polygon fill="white" stroke="transparent" points="-4,4 -4,-226 388.56,-226 388.56,4 -4,4"/>
<!-- Node1 -->
<g id="node1" class="node">
<title>Node1</title>
<g id="a_node1"><a xlink:title="This header file contains all the function declarations for the LCD module.">
<polygon fill="#bfbfbf" stroke="black" points="62.76,-174.5 62.76,-221.5 274.76,-221.5 274.76,-174.5 62.76,-174.5"/>
<text text-anchor="start" x="70.76" y="-207.9" font-family="Helvetica,sans-Serif" font-size="12.00">/home/ubuntu/Desktop</text>
<text text-anchor="start" x="70.76" y="-194.9" font-family="Helvetica,sans-Serif" font-size="12.00">/repositories/learn&#45;arm</text>
<text text-anchor="middle" x="168.76" y="-181.9" font-family="Helvetica,sans-Serif" font-size="12.00">/src/c/lib/include/jlx12864g&#45;086.h</text>
</a>
</g>
</g>
<!-- Node2 -->
<g id="node2" class="node">
<title>Node2</title>
<g id="a_node2"><a xlink:title=" ">
<polygon fill="white" stroke="#bfbfbf" points="90.26,-0.5 90.26,-21.5 151.26,-21.5 151.26,-0.5 90.26,-0.5"/>
<text text-anchor="middle" x="120.76" y="-7.9" font-family="Helvetica,sans-Serif" font-size="12.00">stdint.h</text>
</a>
</g>
</g>
<!-- Node1&#45;&gt;Node2 -->
<g id="edge1" class="edge">
<title>Node1&#45;&gt;Node2</title>
<path fill="none" stroke="midnightblue" d="M108.96,-174.45C69.7,-155.88 22.15,-125.2 2.76,-80 -12.51,-44.42 40.03,-26.54 79.88,-18.27"/>
<polygon fill="midnightblue" stroke="midnightblue" points="80.79,-21.65 89.95,-16.32 79.46,-14.78 80.79,-21.65"/>
</g>
<!-- Node3 -->
<g id="node3" class="node">
<title>Node3</title>
<g id="a_node3"><a xlink:title=" ">
<polygon fill="white" stroke="#bfbfbf" points="257.26,-0.5 257.26,-21.5 328.26,-21.5 328.26,-0.5 257.26,-0.5"/>
<text text-anchor="middle" x="292.76" y="-7.9" font-family="Helvetica,sans-Serif" font-size="12.00">stdbool.h</text>
</a>
</g>
</g>
<!-- Node1&#45;&gt;Node3 -->
<g id="edge2" class="edge">
<title>Node1&#45;&gt;Node3</title>
<path fill="none" stroke="midnightblue" d="M260.52,-174.47C307.54,-157.37 359.48,-128.27 381.76,-80 393.47,-54.62 363.96,-36.3 335.84,-25.12"/>
<polygon fill="midnightblue" stroke="midnightblue" points="337.01,-21.82 326.42,-21.6 334.56,-28.38 337.01,-21.82"/>
</g>
<!-- Node4 -->
<g id="node4" class="node">
<title>Node4</title>
<g id="a_node4"><a xlink:href="../../da/d87/spi_8h.html" target="_top" xlink:title=" ">
<polygon fill="white" stroke="black" points="72.76,-116.5 72.76,-137.5 116.76,-137.5 116.76,-116.5 72.76,-116.5"/>
<text text-anchor="middle" x="94.76" y="-123.9" font-family="Helvetica,sans-Serif" font-size="12.00">spi.h</text>
</a>
</g>
</g>
<!-- Node1&#45;&gt;Node4 -->
<g id="edge3" class="edge">
<title>Node1&#45;&gt;Node4</title>
<path fill="none" stroke="midnightblue" d="M144.53,-174.41C134.12,-164.7 122.18,-153.57 112.6,-144.64"/>
<polygon fill="midnightblue" stroke="midnightblue" points="114.9,-141.99 105.2,-137.74 110.12,-147.11 114.9,-141.99"/>
</g>
<!-- Node6 -->
<g id="node6" class="node">
<title>Node6</title>
<g id="a_node6"><a xlink:href="../../dd/dee/delay_8h.html" target="_top" xlink:title="This header file contains all the function declarations for the LCD module.">
<polygon fill="white" stroke="black" points="245.26,-116.5 245.26,-137.5 304.26,-137.5 304.26,-116.5 245.26,-116.5"/>
<text text-anchor="middle" x="274.76" y="-123.9" font-family="Helvetica,sans-Serif" font-size="12.00">delay.h</text>
</a>
</g>
</g>
<!-- Node1&#45;&gt;Node6 -->
<g id="edge9" class="edge">
<title>Node1&#45;&gt;Node6</title>
<path fill="none" stroke="midnightblue" d="M203.47,-174.41C219.22,-164.15 237.42,-152.3 251.49,-143.14"/>
<polygon fill="midnightblue" stroke="midnightblue" points="253.61,-145.94 260.08,-137.56 249.79,-140.08 253.61,-145.94"/>
</g>
<!-- Node8 -->
<g id="node8" class="node">
<title>Node8</title>
<g id="a_node8"><a xlink:href="../../d6/d7c/gpio_8h.html" target="_top" xlink:title="This header file contains all the function declarations for the LCD module.">
<polygon fill="white" stroke="black" points="142.26,-58.5 142.26,-79.5 195.26,-79.5 195.26,-58.5 142.26,-58.5"/>
<text text-anchor="middle" x="168.76" y="-65.9" font-family="Helvetica,sans-Serif" font-size="12.00">gpio.h</text>
</a>
</g>
</g>
<!-- Node1&#45;&gt;Node8 -->
<g id="edge15" class="edge">
<title>Node1&#45;&gt;Node8</title>
<path fill="none" stroke="midnightblue" d="M168.76,-174.29C168.76,-150.25 168.76,-112.66 168.76,-89.79"/>
<polygon fill="midnightblue" stroke="midnightblue" points="172.26,-89.59 168.76,-79.59 165.26,-89.59 172.26,-89.59"/>
</g>
<!-- Node4&#45;&gt;Node2 -->
<g id="edge4" class="edge">
<title>Node4&#45;&gt;Node2</title>
<path fill="none" stroke="midnightblue" d="M72.51,-119.19C41.72,-108.56 -8.06,-86.27 10.76,-58 26.18,-34.83 55.75,-23.31 80.35,-17.59"/>
<polygon fill="midnightblue" stroke="midnightblue" points="81.11,-21.01 90.19,-15.54 79.69,-14.16 81.11,-21.01"/>
</g>
<!-- Node4&#45;&gt;Node3 -->
<g id="edge5" class="edge">
<title>Node4&#45;&gt;Node3</title>
<path fill="none" stroke="midnightblue" d="M117.06,-118.62C139.87,-110.63 175.95,-96.76 204.76,-80 230.71,-64.9 257.62,-43.04 274.73,-28.22"/>
<polygon fill="midnightblue" stroke="midnightblue" points="277.1,-30.79 282.3,-21.56 272.48,-25.54 277.1,-30.79"/>
</g>
<!-- Node5 -->
<g id="node5" class="node">
<title>Node5</title>
<g id="a_node5"><a xlink:href="../../db/d65/rcc_8h.html" target="_top" xlink:title="This header file contains all the function declarations for the LCD module.">
<polygon fill="white" stroke="black" points="19.76,-58.5 19.76,-79.5 123.76,-79.5 123.76,-58.5 19.76,-58.5"/>
<text text-anchor="middle" x="71.76" y="-65.9" font-family="Helvetica,sans-Serif" font-size="12.00">../include/rcc.h</text>
</a>
</g>
</g>
<!-- Node4&#45;&gt;Node5 -->
<g id="edge6" class="edge">
<title>Node4&#45;&gt;Node5</title>
<path fill="none" stroke="midnightblue" d="M90.75,-116.25C87.68,-108.78 83.36,-98.24 79.61,-89.11"/>
<polygon fill="midnightblue" stroke="midnightblue" points="82.75,-87.56 75.72,-79.64 76.28,-90.22 82.75,-87.56"/>
</g>
<!-- Node5&#45;&gt;Node2 -->
<g id="edge7" class="edge">
<title>Node5&#45;&gt;Node2</title>
<path fill="none" stroke="midnightblue" d="M80.29,-58.25C87.25,-50.3 97.25,-38.87 105.56,-29.37"/>
<polygon fill="midnightblue" stroke="midnightblue" points="108.37,-31.47 112.32,-21.64 103.1,-26.86 108.37,-31.47"/>
</g>
<!-- Node5&#45;&gt;Node3 -->
<g id="edge8" class="edge">
<title>Node5&#45;&gt;Node3</title>
<path fill="none" stroke="midnightblue" d="M109.5,-58.44C147.57,-48.79 206.39,-33.89 247.07,-23.58"/>
<polygon fill="midnightblue" stroke="midnightblue" points="248.17,-26.91 257,-21.06 246.45,-20.12 248.17,-26.91"/>
</g>
<!-- Node6&#45;&gt;Node2 -->
<g id="edge13" class="edge">
<title>Node6&#45;&gt;Node2</title>
<path fill="none" stroke="midnightblue" d="M266.4,-116.37C253.93,-102.37 229.29,-76.11 204.76,-58 187.98,-45.62 167.49,-34.33 150.94,-26.03"/>
<polygon fill="midnightblue" stroke="midnightblue" points="152.24,-22.77 141.72,-21.51 149.15,-29.05 152.24,-22.77"/>
</g>
<!-- Node6&#45;&gt;Node3 -->
<g id="edge14" class="edge">
<title>Node6&#45;&gt;Node3</title>
<path fill="none" stroke="midnightblue" d="M304.41,-119.85C325.82,-113.69 353.24,-101.87 366.76,-80 380.56,-57.66 352.55,-38.08 327.13,-25.74"/>
<polygon fill="midnightblue" stroke="midnightblue" points="328.51,-22.53 317.96,-21.53 325.59,-28.89 328.51,-22.53"/>
</g>
<!-- Node7 -->
<g id="node7" class="node">
<title>Node7</title>
<g id="a_node7"><a xlink:href="../../d3/dcb/systick_8h.html" target="_top" xlink:title=" ">
<polygon fill="white" stroke="black" points="289.76,-58.5 289.76,-79.5 357.76,-79.5 357.76,-58.5 289.76,-58.5"/>
<text text-anchor="middle" x="323.76" y="-65.9" font-family="Helvetica,sans-Serif" font-size="12.00">systick.h</text>
</a>
</g>
</g>
<!-- Node6&#45;&gt;Node7 -->
<g id="edge10" class="edge">
<title>Node6&#45;&gt;Node7</title>
<path fill="none" stroke="midnightblue" d="M283.29,-116.25C290.25,-108.3 300.25,-96.87 308.56,-87.37"/>
<polygon fill="midnightblue" stroke="midnightblue" points="311.37,-89.47 315.32,-79.64 306.1,-84.86 311.37,-89.47"/>
</g>
<!-- Node7&#45;&gt;Node2 -->
<g id="edge11" class="edge">
<title>Node7&#45;&gt;Node2</title>
<path fill="none" stroke="midnightblue" d="M289.32,-58.5C253.96,-48.75 198.94,-33.57 161.45,-23.23"/>
<polygon fill="midnightblue" stroke="midnightblue" points="161.94,-19.73 151.37,-20.45 160.08,-26.48 161.94,-19.73"/>
</g>
<!-- Node7&#45;&gt;Node3 -->
<g id="edge12" class="edge">
<title>Node7&#45;&gt;Node3</title>
<path fill="none" stroke="midnightblue" d="M318.36,-58.25C314.13,-50.62 308.14,-39.79 303.01,-30.53"/>
<polygon fill="midnightblue" stroke="midnightblue" points="306,-28.7 298.09,-21.64 299.88,-32.09 306,-28.7"/>
</g>
<!-- Node8&#45;&gt;Node2 -->
<g id="edge16" class="edge">
<title>Node8&#45;&gt;Node2</title>
<path fill="none" stroke="midnightblue" d="M160.4,-58.25C153.58,-50.3 143.79,-38.87 135.64,-29.37"/>
<polygon fill="midnightblue" stroke="midnightblue" points="138.19,-26.96 129.02,-21.64 132.87,-31.51 138.19,-26.96"/>
</g>
<!-- Node8&#45;&gt;Node3 -->
<g id="edge17" class="edge">
<title>Node8&#45;&gt;Node3</title>
<path fill="none" stroke="midnightblue" d="M190.07,-58.37C209.98,-49.38 239.9,-35.87 262.32,-25.75"/>
<polygon fill="midnightblue" stroke="midnightblue" points="264.05,-28.81 271.72,-21.5 261.16,-22.43 264.05,-28.81"/>
</g>
</g>
</svg>
