<?xml version="1.0" encoding="UTF-8" standalone="no"?>
<!DOCTYPE svg PUBLIC "-//W3C//DTD SVG 1.1//EN"
 "http://www.w3.org/Graphics/SVG/1.1/DTD/svg11.dtd">
<!-- Generated by graphviz version 2.43.0 (0)
 -->
<!-- Title: delays_init Pages: 1 -->
<svg width="257pt" height="150pt"
 viewBox="0.00 0.00 257.00 150.00" xmlns="http://www.w3.org/2000/svg" xmlns:xlink="http://www.w3.org/1999/xlink">
<g id="graph0" class="graph" transform="scale(1 1) rotate(0) translate(4 146)">
<title>delays_init</title>
<polygon fill="white" stroke="transparent" points="-4,4 -4,-146 253,-146 253,4 -4,4"/>
<!-- Node1 -->
<g id="node1" class="node">
<title>Node1</title>
<g id="a_node1"><a xlink:title="Deley configuratio.">
<polygon fill="#bfbfbf" stroke="black" points="0,-60.5 0,-81.5 79,-81.5 79,-60.5 0,-60.5"/>
<text text-anchor="middle" x="39.5" y="-67.9" font-family="Helvetica,sans-Serif" font-size="12.00">delays_init</text>
</a>
</g>
</g>
<!-- Node2 -->
<g id="node2" class="node">
<title>Node2</title>
<g id="a_node2"><a xlink:href="../../d3/dcb/systick_8h.html#ae21aa60af271633215766ee6be6b8870" target="_top" xlink:title=" ">
<polygon fill="white" stroke="black" points="123.5,-120.5 123.5,-141.5 240.5,-141.5 240.5,-120.5 123.5,-120.5"/>
<text text-anchor="middle" x="182" y="-127.9" font-family="Helvetica,sans-Serif" font-size="12.00">disableException</text>
</a>
</g>
</g>
<!-- Node1&#45;&gt;Node2 -->
<g id="edge1" class="edge">
<title>Node1&#45;&gt;Node2</title>
<path fill="none" stroke="midnightblue" d="M57.78,-81.55C72.58,-90.28 94.66,-102.56 115,-111 120.38,-113.24 126.11,-115.34 131.85,-117.29"/>
<polygon fill="midnightblue" stroke="midnightblue" points="130.87,-120.65 141.46,-120.42 133.03,-114 130.87,-120.65"/>
</g>
<!-- Node3 -->
<g id="node3" class="node">
<title>Node3</title>
<g id="a_node3"><a xlink:href="../../d3/dcb/systick_8h.html#a1f7309053baf77d254dbee15d7d3eec5" target="_top" xlink:title=" ">
<polygon fill="white" stroke="black" points="115,-80.5 115,-101.5 249,-101.5 249,-80.5 115,-80.5"/>
<text text-anchor="middle" x="182" y="-87.9" font-family="Helvetica,sans-Serif" font-size="12.00">disableSystickTimer</text>
</a>
</g>
</g>
<!-- Node1&#45;&gt;Node3 -->
<g id="edge2" class="edge">
<title>Node1&#45;&gt;Node3</title>
<path fill="none" stroke="midnightblue" d="M79.26,-76.52C87.29,-77.66 96.01,-78.9 104.85,-80.16"/>
<polygon fill="midnightblue" stroke="midnightblue" points="104.46,-83.64 114.86,-81.58 105.45,-76.71 104.46,-83.64"/>
</g>
<!-- Node4 -->
<g id="node4" class="node">
<title>Node4</title>
<g id="a_node4"><a xlink:href="../../d3/dcb/systick_8h.html#ad22b34d574ab648dcef84ffaca75de8f" target="_top" xlink:title=" ">
<polygon fill="white" stroke="black" points="115.5,-40.5 115.5,-61.5 248.5,-61.5 248.5,-40.5 115.5,-40.5"/>
<text text-anchor="middle" x="182" y="-47.9" font-family="Helvetica,sans-Serif" font-size="12.00">enableSystickTimer</text>
</a>
</g>
</g>
<!-- Node1&#45;&gt;Node4 -->
<g id="edge3" class="edge">
<title>Node1&#45;&gt;Node4</title>
<path fill="none" stroke="midnightblue" d="M79.26,-65.48C87.41,-64.32 96.26,-63.06 105.24,-61.78"/>
<polygon fill="midnightblue" stroke="midnightblue" points="105.99,-65.21 115.4,-60.34 105,-58.28 105.99,-65.21"/>
</g>
<!-- Node5 -->
<g id="node5" class="node">
<title>Node5</title>
<g id="a_node5"><a xlink:href="../../d3/dcb/systick_8h.html#ab70024ec848e492efb0f9a0b266641bd" target="_top" xlink:title=" ">
<polygon fill="white" stroke="black" points="129.5,-0.5 129.5,-21.5 234.5,-21.5 234.5,-0.5 129.5,-0.5"/>
<text text-anchor="middle" x="182" y="-7.9" font-family="Helvetica,sans-Serif" font-size="12.00">setCockSource</text>
</a>
</g>
</g>
<!-- Node1&#45;&gt;Node5 -->
<g id="edge4" class="edge">
<title>Node1&#45;&gt;Node5</title>
<path fill="none" stroke="midnightblue" d="M57.78,-60.45C72.58,-51.72 94.66,-39.44 115,-31 120.38,-28.76 126.11,-26.66 131.85,-24.71"/>
<polygon fill="midnightblue" stroke="midnightblue" points="133.03,-28 141.46,-21.58 130.87,-21.35 133.03,-28"/>
</g>
</g>
</svg>
