<?xml version="1.0" encoding="UTF-8" standalone="no"?>
<!DOCTYPE svg PUBLIC "-//W3C//DTD SVG 1.1//EN"
 "http://www.w3.org/Graphics/SVG/1.1/DTD/svg11.dtd">
<!-- Generated by graphviz version 2.43.0 (0)
 -->
<!-- Title: clearScreen Pages: 1 -->
<svg width="318pt" height="70pt"
 viewBox="0.00 0.00 318.00 70.00" xmlns="http://www.w3.org/2000/svg" xmlns:xlink="http://www.w3.org/1999/xlink">
<g id="graph0" class="graph" transform="scale(1 1) rotate(0) translate(4 66)">
<title>clearScreen</title>
<polygon fill="white" stroke="transparent" points="-4,4 -4,-66 314,-66 314,4 -4,4"/>
<!-- Node1 -->
<g id="node1" class="node">
<title>Node1</title>
<g id="a_node1"><a xlink:title="Clears the LCD screen.">
<polygon fill="#bfbfbf" stroke="black" points="0,-20.5 0,-41.5 88,-41.5 88,-20.5 0,-20.5"/>
<text text-anchor="middle" x="44" y="-27.9" font-family="Helvetica,sans-Serif" font-size="12.00">clearScreen</text>
</a>
</g>
</g>
<!-- Node2 -->
<g id="node2" class="node">
<title>Node2</title>
<g id="a_node2"><a xlink:href="../../da/d22/jlx12864g-086_8c.html#a6934a89cb69fffa73b88b30bec551480" target="_top" xlink:title="Sends a byte of data to LCD This function trabsfers a byte of data to the LCD via the serial interfac...">
<polygon fill="white" stroke="black" points="124,-40.5 124,-61.5 198,-61.5 198,-40.5 124,-40.5"/>
<text text-anchor="middle" x="161" y="-47.9" font-family="Helvetica,sans-Serif" font-size="12.00">sendData</text>
</a>
</g>
</g>
<!-- Node1&#45;&gt;Node2 -->
<g id="edge1" class="edge">
<title>Node1&#45;&gt;Node2</title>
<path fill="none" stroke="midnightblue" d="M88.15,-38.5C96.49,-39.95 105.25,-41.48 113.69,-42.95"/>
<polygon fill="midnightblue" stroke="midnightblue" points="113.3,-46.43 123.76,-44.7 114.5,-39.54 113.3,-46.43"/>
</g>
<!-- Node4 -->
<g id="node4" class="node">
<title>Node4</title>
<g id="a_node4"><a xlink:href="../../da/d22/jlx12864g-086_8c.html#a4be1c34ab03ed296adfc1f8112bb5a96" target="_top" xlink:title="Set the cursor position.">
<polygon fill="white" stroke="black" points="124,-0.5 124,-21.5 198,-21.5 198,-0.5 124,-0.5"/>
<text text-anchor="middle" x="161" y="-7.9" font-family="Helvetica,sans-Serif" font-size="12.00">setCursor</text>
</a>
</g>
</g>
<!-- Node1&#45;&gt;Node4 -->
<g id="edge3" class="edge">
<title>Node1&#45;&gt;Node4</title>
<path fill="none" stroke="midnightblue" d="M88.15,-23.5C96.49,-22.05 105.25,-20.52 113.69,-19.05"/>
<polygon fill="midnightblue" stroke="midnightblue" points="114.5,-22.46 123.76,-17.3 113.3,-15.57 114.5,-22.46"/>
</g>
<!-- Node3 -->
<g id="node3" class="node">
<title>Node3</title>
<g id="a_node3"><a xlink:href="../../da/d87/spi_8h.html#a912b1538af2fc99addc1bbecc6040428" target="_top" xlink:title=" ">
<polygon fill="white" stroke="black" points="234,-40.5 234,-61.5 310,-61.5 310,-40.5 234,-40.5"/>
<text text-anchor="middle" x="272" y="-47.9" font-family="Helvetica,sans-Serif" font-size="12.00">enableSPI</text>
</a>
</g>
</g>
<!-- Node2&#45;&gt;Node3 -->
<g id="edge2" class="edge">
<title>Node2&#45;&gt;Node3</title>
<path fill="none" stroke="midnightblue" d="M198.3,-51C206.4,-51 215.1,-51 223.58,-51"/>
<polygon fill="midnightblue" stroke="midnightblue" points="223.75,-54.5 233.75,-51 223.75,-47.5 223.75,-54.5"/>
</g>
</g>
</svg>
