<?xml version="1.0" encoding="UTF-8" standalone="no"?>
<!DOCTYPE svg PUBLIC "-//W3C//DTD SVG 1.1//EN"
 "http://www.w3.org/Graphics/SVG/1.1/DTD/svg11.dtd">
<!-- Generated by graphviz version 2.43.0 (0)
 -->
<!-- Title: /home/ubuntu/Desktop/repositories/learn&#45;arm/src/c/lib/source/timers.c Pages: 1 -->
<svg width="196pt" height="230pt"
 viewBox="0.00 0.00 196.00 230.00" xmlns="http://www.w3.org/2000/svg" xmlns:xlink="http://www.w3.org/1999/xlink">
<g id="graph0" class="graph" transform="scale(1 1) rotate(0) translate(4 226)">
<title>/home/ubuntu/Desktop/repositories/learn&#45;arm/src/c/lib/source/timers.c</title>
<polygon fill="white" stroke="transparent" points="-4,4 -4,-226 192,-226 192,4 -4,4"/>
<!-- Node1 -->
<g id="node1" class="node">
<title>Node1</title>
<g id="a_node1"><a xlink:title=" ">
<polygon fill="#bfbfbf" stroke="black" points="11,-174.5 11,-221.5 172,-221.5 172,-174.5 11,-174.5"/>
<text text-anchor="start" x="19" y="-207.9" font-family="Helvetica,sans-Serif" font-size="12.00">/home/ubuntu/Desktop</text>
<text text-anchor="start" x="19" y="-194.9" font-family="Helvetica,sans-Serif" font-size="12.00">/repositories/learn&#45;arm</text>
<text text-anchor="middle" x="91.5" y="-181.9" font-family="Helvetica,sans-Serif" font-size="12.00">/src/c/lib/source/timers.c</text>
</a>
</g>
</g>
<!-- Node2 -->
<g id="node2" class="node">
<title>Node2</title>
<g id="a_node2"><a xlink:href="../../d7/d59/timers_8h.html" target="_top" xlink:title=" ">
<polygon fill="white" stroke="black" points="29.5,-116.5 29.5,-137.5 153.5,-137.5 153.5,-116.5 29.5,-116.5"/>
<text text-anchor="middle" x="91.5" y="-123.9" font-family="Helvetica,sans-Serif" font-size="12.00">../include/timers.h</text>
</a>
</g>
</g>
<!-- Node1&#45;&gt;Node2 -->
<g id="edge1" class="edge">
<title>Node1&#45;&gt;Node2</title>
<path fill="none" stroke="midnightblue" d="M91.5,-174.41C91.5,-165.87 91.5,-156.22 91.5,-147.94"/>
<polygon fill="midnightblue" stroke="midnightblue" points="95,-147.74 91.5,-137.74 88,-147.74 95,-147.74"/>
</g>
<!-- Node3 -->
<g id="node3" class="node">
<title>Node3</title>
<g id="a_node3"><a xlink:title=" ">
<polygon fill="white" stroke="#bfbfbf" points="0,-0.5 0,-21.5 61,-21.5 61,-0.5 0,-0.5"/>
<text text-anchor="middle" x="30.5" y="-7.9" font-family="Helvetica,sans-Serif" font-size="12.00">stdint.h</text>
</a>
</g>
</g>
<!-- Node2&#45;&gt;Node3 -->
<g id="edge2" class="edge">
<title>Node2&#45;&gt;Node3</title>
<path fill="none" stroke="midnightblue" d="M70.38,-116.46C56.25,-108.82 38.78,-96.62 30.5,-80 23.1,-65.16 23.82,-46.13 25.98,-31.98"/>
<polygon fill="midnightblue" stroke="midnightblue" points="29.48,-32.33 27.89,-21.85 22.6,-31.03 29.48,-32.33"/>
</g>
<!-- Node4 -->
<g id="node4" class="node">
<title>Node4</title>
<g id="a_node4"><a xlink:title=" ">
<polygon fill="white" stroke="#bfbfbf" points="117,-0.5 117,-21.5 188,-21.5 188,-0.5 117,-0.5"/>
<text text-anchor="middle" x="152.5" y="-7.9" font-family="Helvetica,sans-Serif" font-size="12.00">stdbool.h</text>
</a>
</g>
</g>
<!-- Node2&#45;&gt;Node4 -->
<g id="edge3" class="edge">
<title>Node2&#45;&gt;Node4</title>
<path fill="none" stroke="midnightblue" d="M112.62,-116.46C126.75,-108.82 144.22,-96.62 152.5,-80 159.9,-65.16 159.18,-46.13 157.02,-31.98"/>
<polygon fill="midnightblue" stroke="midnightblue" points="160.4,-31.03 155.11,-21.85 153.52,-32.33 160.4,-31.03"/>
</g>
<!-- Node5 -->
<g id="node5" class="node">
<title>Node5</title>
<g id="a_node5"><a xlink:href="../../db/d65/rcc_8h.html" target="_top" xlink:title="This header file contains all the function declarations for the LCD module.">
<polygon fill="white" stroke="black" points="39.5,-58.5 39.5,-79.5 143.5,-79.5 143.5,-58.5 39.5,-58.5"/>
<text text-anchor="middle" x="91.5" y="-65.9" font-family="Helvetica,sans-Serif" font-size="12.00">../include/rcc.h</text>
</a>
</g>
</g>
<!-- Node2&#45;&gt;Node5 -->
<g id="edge4" class="edge">
<title>Node2&#45;&gt;Node5</title>
<path fill="none" stroke="midnightblue" d="M91.5,-116.25C91.5,-108.94 91.5,-98.69 91.5,-89.7"/>
<polygon fill="midnightblue" stroke="midnightblue" points="95,-89.64 91.5,-79.64 88,-89.64 95,-89.64"/>
</g>
<!-- Node5&#45;&gt;Node3 -->
<g id="edge5" class="edge">
<title>Node5&#45;&gt;Node3</title>
<path fill="none" stroke="midnightblue" d="M80.87,-58.25C71.95,-50.05 59.01,-38.17 48.48,-28.51"/>
<polygon fill="midnightblue" stroke="midnightblue" points="50.74,-25.83 41,-21.64 46,-30.98 50.74,-25.83"/>
</g>
<!-- Node5&#45;&gt;Node4 -->
<g id="edge6" class="edge">
<title>Node5&#45;&gt;Node4</title>
<path fill="none" stroke="midnightblue" d="M102.13,-58.25C111.05,-50.05 123.99,-38.17 134.52,-28.51"/>
<polygon fill="midnightblue" stroke="midnightblue" points="137,-30.98 142,-21.64 132.26,-25.83 137,-30.98"/>
</g>
</g>
</svg>
