<?xml version="1.0" encoding="UTF-8" standalone="no"?>
<!DOCTYPE svg PUBLIC "-//W3C//DTD SVG 1.1//EN"
 "http://www.w3.org/Graphics/SVG/1.1/DTD/svg11.dtd">
<!-- Generated by graphviz version 2.43.0 (0)
 -->
<!-- Title: /home/ubuntu/Desktop/repositories/learn&#45;arm/src/c/lib/include/rtc.h Pages: 1 -->
<svg width="162pt" height="114pt"
 viewBox="0.00 0.00 162.00 114.00" xmlns="http://www.w3.org/2000/svg" xmlns:xlink="http://www.w3.org/1999/xlink">
<g id="graph0" class="graph" transform="scale(1 1) rotate(0) translate(4 110)">
<title>/home/ubuntu/Desktop/repositories/learn&#45;arm/src/c/lib/include/rtc.h</title>
<polygon fill="white" stroke="transparent" points="-4,4 -4,-110 158,-110 158,4 -4,4"/>
<!-- Node1 -->
<g id="node1" class="node">
<title>Node1</title>
<g id="a_node1"><a xlink:title=" ">
<polygon fill="#bfbfbf" stroke="black" points="0,-58.5 0,-105.5 153,-105.5 153,-58.5 0,-58.5"/>
<text text-anchor="start" x="8" y="-91.9" font-family="Helvetica,sans-Serif" font-size="12.00">/home/ubuntu/Desktop</text>
<text text-anchor="start" x="8" y="-78.9" font-family="Helvetica,sans-Serif" font-size="12.00">/repositories/learn&#45;arm</text>
<text text-anchor="middle" x="76.5" y="-65.9" font-family="Helvetica,sans-Serif" font-size="12.00">/src/c/lib/include/rtc.h</text>
</a>
</g>
</g>
<!-- Node2 -->
<g id="node2" class="node">
<title>Node2</title>
<g id="a_node2"><a xlink:title=" ">
<polygon fill="white" stroke="#bfbfbf" points="4,-0.5 4,-21.5 65,-21.5 65,-0.5 4,-0.5"/>
<text text-anchor="middle" x="34.5" y="-7.9" font-family="Helvetica,sans-Serif" font-size="12.00">stdint.h</text>
</a>
</g>
</g>
<!-- Node1&#45;&gt;Node2 -->
<g id="edge1" class="edge">
<title>Node1&#45;&gt;Node2</title>
<path fill="none" stroke="midnightblue" d="M62.75,-58.41C57.25,-49.38 51.01,-39.12 45.79,-30.54"/>
<polygon fill="midnightblue" stroke="midnightblue" points="48.61,-28.46 40.43,-21.74 42.64,-32.1 48.61,-28.46"/>
</g>
<!-- Node3 -->
<g id="node3" class="node">
<title>Node3</title>
<g id="a_node3"><a xlink:title=" ">
<polygon fill="white" stroke="#bfbfbf" points="83,-0.5 83,-21.5 154,-21.5 154,-0.5 83,-0.5"/>
<text text-anchor="middle" x="118.5" y="-7.9" font-family="Helvetica,sans-Serif" font-size="12.00">stdbool.h</text>
</a>
</g>
</g>
<!-- Node1&#45;&gt;Node3 -->
<g id="edge2" class="edge">
<title>Node1&#45;&gt;Node3</title>
<path fill="none" stroke="midnightblue" d="M90.25,-58.41C95.75,-49.38 101.99,-39.12 107.21,-30.54"/>
<polygon fill="midnightblue" stroke="midnightblue" points="110.36,-32.1 112.57,-21.74 104.39,-28.46 110.36,-32.1"/>
</g>
</g>
</svg>
