<?xml version="1.0" encoding="UTF-8" standalone="no"?>
<!DOCTYPE svg PUBLIC "-//W3C//DTD SVG 1.1//EN"
 "http://www.w3.org/Graphics/SVG/1.1/DTD/svg11.dtd">
<!-- Generated by graphviz version 2.43.0 (0)
 -->
<!-- Title: initialize Pages: 1 -->
<svg width="258pt" height="70pt"
 viewBox="0.00 0.00 258.00 70.00" xmlns="http://www.w3.org/2000/svg" xmlns:xlink="http://www.w3.org/1999/xlink">
<g id="graph0" class="graph" transform="scale(1 1) rotate(0) translate(4 66)">
<title>initialize</title>
<polygon fill="white" stroke="transparent" points="-4,4 -4,-66 254,-66 254,4 -4,4"/>
<!-- Node1 -->
<g id="node1" class="node">
<title>Node1</title>
<g id="a_node1"><a xlink:title="System initialization.">
<polygon fill="#bfbfbf" stroke="black" points="0,-20.5 0,-41.5 65,-41.5 65,-20.5 0,-20.5"/>
<text text-anchor="middle" x="32.5" y="-27.9" font-family="Helvetica,sans-Serif" font-size="12.00">initialize</text>
</a>
</g>
</g>
<!-- Node2 -->
<g id="node2" class="node">
<title>Node2</title>
<g id="a_node2"><a xlink:href="../../d0/d29/main_8c.html#a12328a89779fb2776c00ab40b53319a2" target="_top" xlink:title="System clock confoguration.">
<polygon fill="white" stroke="black" points="101,-40.5 101,-61.5 250,-61.5 250,-40.5 101,-40.5"/>
<text text-anchor="middle" x="175.5" y="-47.9" font-family="Helvetica,sans-Serif" font-size="12.00">configureSystemClock</text>
</a>
</g>
</g>
<!-- Node1&#45;&gt;Node2 -->
<g id="edge1" class="edge">
<title>Node1&#45;&gt;Node2</title>
<path fill="none" stroke="midnightblue" d="M65.14,-35.49C73.01,-36.6 81.82,-37.85 90.94,-39.15"/>
<polygon fill="midnightblue" stroke="midnightblue" points="90.52,-42.62 100.91,-40.56 91.5,-35.69 90.52,-42.62"/>
</g>
<!-- Node3 -->
<g id="node3" class="node">
<title>Node3</title>
<g id="a_node3"><a xlink:href="../../d0/d29/main_8c.html#adea0f58df14312984c7ed8f3e981e9f3" target="_top" xlink:title="Timer 1 confoguration.">
<polygon fill="white" stroke="black" points="118,-0.5 118,-21.5 233,-21.5 233,-0.5 118,-0.5"/>
<text text-anchor="middle" x="175.5" y="-7.9" font-family="Helvetica,sans-Serif" font-size="12.00">configureTimer1</text>
</a>
</g>
</g>
<!-- Node1&#45;&gt;Node3 -->
<g id="edge2" class="edge">
<title>Node1&#45;&gt;Node3</title>
<path fill="none" stroke="midnightblue" d="M65.14,-26.51C77.74,-24.72 92.75,-22.6 107.55,-20.5"/>
<polygon fill="midnightblue" stroke="midnightblue" points="108.32,-23.92 117.73,-19.05 107.34,-16.99 108.32,-23.92"/>
</g>
</g>
</svg>
