<?xml version="1.0" encoding="UTF-8" standalone="no"?>
<!DOCTYPE svg PUBLIC "-//W3C//DTD SVG 1.1//EN"
 "http://www.w3.org/Graphics/SVG/1.1/DTD/svg11.dtd">
<!-- Generated by graphviz version 2.43.0 (0)
 -->
<!-- Title: clearScreen Pages: 1 -->
<svg width="508pt" height="30pt"
 viewBox="0.00 0.00 508.00 30.00" xmlns="http://www.w3.org/2000/svg" xmlns:xlink="http://www.w3.org/1999/xlink">
<g id="graph0" class="graph" transform="scale(1 1) rotate(0) translate(4 26)">
<title>clearScreen</title>
<polygon fill="white" stroke="transparent" points="-4,4 -4,-26 504,-26 504,4 -4,4"/>
<!-- Node1 -->
<g id="node1" class="node">
<title>Node1</title>
<g id="a_node1"><a xlink:title="Clears the LCD screen.">
<polygon fill="#bfbfbf" stroke="black" points="412,-0.5 412,-21.5 500,-21.5 500,-0.5 412,-0.5"/>
<text text-anchor="middle" x="456" y="-7.9" font-family="Helvetica,sans-Serif" font-size="12.00">clearScreen</text>
</a>
</g>
</g>
<!-- Node2 -->
<g id="node2" class="node">
<title>Node2</title>
<g id="a_node2"><a xlink:href="../../da/d22/jlx12864g-086_8c.html#a9ffc724093e31df58e5e5bea364c72f7" target="_top" xlink:title="LCD initialization and setup.">
<polygon fill="white" stroke="black" points="323,-0.5 323,-21.5 376,-21.5 376,-0.5 323,-0.5"/>
<text text-anchor="middle" x="349.5" y="-7.9" font-family="Helvetica,sans-Serif" font-size="12.00">lcdInit</text>
</a>
</g>
</g>
<!-- Node1&#45;&gt;Node2 -->
<g id="edge1" class="edge">
<title>Node1&#45;&gt;Node2</title>
<path fill="none" stroke="midnightblue" d="M401.83,-11C392.89,-11 383.98,-11 376.16,-11"/>
<polygon fill="midnightblue" stroke="midnightblue" points="401.89,-14.5 411.89,-11 401.89,-7.5 401.89,-14.5"/>
</g>
<!-- Node3 -->
<g id="node3" class="node">
<title>Node3</title>
<g id="a_node3"><a xlink:href="../../d4/dbf/main_8h.html#a9efe22aaead3a5e936b5df459de02eba" target="_top" xlink:title="System initialization.">
<polygon fill="white" stroke="black" points="222,-0.5 222,-21.5 287,-21.5 287,-0.5 222,-0.5"/>
<text text-anchor="middle" x="254.5" y="-7.9" font-family="Helvetica,sans-Serif" font-size="12.00">initialize</text>
</a>
</g>
</g>
<!-- Node2&#45;&gt;Node3 -->
<g id="edge2" class="edge">
<title>Node2&#45;&gt;Node3</title>
<path fill="none" stroke="midnightblue" d="M312.41,-11C304.1,-11 295.33,-11 287.22,-11"/>
<polygon fill="midnightblue" stroke="midnightblue" points="312.59,-14.5 322.59,-11 312.59,-7.5 312.59,-14.5"/>
</g>
<!-- Node4 -->
<g id="node4" class="node">
<title>Node4</title>
<g id="a_node4"><a xlink:href="../../df/d0a/stm32__startup_8c.html#a840291bc02cba5474a4cb46a9b9566fe" target="_top" xlink:title=" ">
<polygon fill="white" stroke="black" points="139,-0.5 139,-21.5 186,-21.5 186,-0.5 139,-0.5"/>
<text text-anchor="middle" x="162.5" y="-7.9" font-family="Helvetica,sans-Serif" font-size="12.00">main</text>
</a>
</g>
</g>
<!-- Node3&#45;&gt;Node4 -->
<g id="edge3" class="edge">
<title>Node3&#45;&gt;Node4</title>
<path fill="none" stroke="midnightblue" d="M211.63,-11C202.86,-11 193.93,-11 186.19,-11"/>
<polygon fill="midnightblue" stroke="midnightblue" points="211.77,-14.5 221.77,-11 211.77,-7.5 211.77,-14.5"/>
</g>
<!-- Node5 -->
<g id="node5" class="node">
<title>Node5</title>
<g id="a_node5"><a xlink:href="../../df/d0a/stm32__startup_8c.html#ae7ee340978f5c25f52f0cad1457c6616" target="_top" xlink:title=" ">
<polygon fill="white" stroke="black" points="0,-0.5 0,-21.5 103,-21.5 103,-0.5 0,-0.5"/>
<text text-anchor="middle" x="51.5" y="-7.9" font-family="Helvetica,sans-Serif" font-size="12.00">Reset_Handler</text>
</a>
</g>
</g>
<!-- Node4&#45;&gt;Node5 -->
<g id="edge4" class="edge">
<title>Node4&#45;&gt;Node5</title>
<path fill="none" stroke="midnightblue" d="M128.87,-11C120.83,-11 112.04,-11 103.37,-11"/>
<polygon fill="midnightblue" stroke="midnightblue" points="128.92,-14.5 138.92,-11 128.92,-7.5 128.92,-14.5"/>
</g>
</g>
</svg>
