<?xml version="1.0" encoding="UTF-8" standalone="no"?>
<!DOCTYPE svg PUBLIC "-//W3C//DTD SVG 1.1//EN"
 "http://www.w3.org/Graphics/SVG/1.1/DTD/svg11.dtd">
<!-- Generated by graphviz version 2.43.0 (0)
 -->
<!-- Title: sendCMD Pages: 1 -->
<svg width="762pt" height="89pt"
 viewBox="0.00 0.00 762.00 89.00" xmlns="http://www.w3.org/2000/svg" xmlns:xlink="http://www.w3.org/1999/xlink">
<g id="graph0" class="graph" transform="scale(1 1) rotate(0) translate(4 85)">
<title>sendCMD</title>
<polygon fill="white" stroke="transparent" points="-4,4 -4,-85 758,-85 758,4 -4,4"/>
<!-- Node1 -->
<g id="node1" class="node">
<title>Node1</title>
<g id="a_node1"><a xlink:title="Send a command byte to the LCD This function sends a configuration command to the LCD module.">
<polygon fill="#bfbfbf" stroke="black" points="681,-40.5 681,-61.5 754,-61.5 754,-40.5 681,-40.5"/>
<text text-anchor="middle" x="717.5" y="-47.9" font-family="Helvetica,sans-Serif" font-size="12.00">sendCMD</text>
</a>
</g>
</g>
<!-- Node2 -->
<g id="node2" class="node">
<title>Node2</title>
<g id="a_node2"><a xlink:href="../../da/d22/jlx12864g-086_8c.html#a9ffc724093e31df58e5e5bea364c72f7" target="_top" xlink:title="LCD initialization and setup.">
<polygon fill="white" stroke="black" points="323,-59.5 323,-80.5 376,-80.5 376,-59.5 323,-59.5"/>
<text text-anchor="middle" x="349.5" y="-66.9" font-family="Helvetica,sans-Serif" font-size="12.00">lcdInit</text>
</a>
</g>
</g>
<!-- Node1&#45;&gt;Node2 -->
<g id="edge1" class="edge">
<title>Node1&#45;&gt;Node2</title>
<path fill="none" stroke="midnightblue" d="M676.16,-64.35C666.1,-67.1 655.25,-69.59 645,-71 546.48,-84.52 427.66,-76.92 376.26,-72.49"/>
<polygon fill="midnightblue" stroke="midnightblue" points="677.28,-67.67 685.92,-61.53 675.34,-60.94 677.28,-67.67"/>
</g>
<!-- Node6 -->
<g id="node6" class="node">
<title>Node6</title>
<g id="a_node6"><a xlink:href="../../da/d22/jlx12864g-086_8c.html#a4be1c34ab03ed296adfc1f8112bb5a96" target="_top" xlink:title="Set the cursor position.">
<polygon fill="white" stroke="black" points="553.5,-40.5 553.5,-61.5 627.5,-61.5 627.5,-40.5 553.5,-40.5"/>
<text text-anchor="middle" x="590.5" y="-47.9" font-family="Helvetica,sans-Serif" font-size="12.00">setCursor</text>
</a>
</g>
</g>
<!-- Node1&#45;&gt;Node6 -->
<g id="edge5" class="edge">
<title>Node1&#45;&gt;Node6</title>
<path fill="none" stroke="midnightblue" d="M670.65,-51C656.51,-51 641.15,-51 627.76,-51"/>
<polygon fill="midnightblue" stroke="midnightblue" points="670.68,-54.5 680.68,-51 670.68,-47.5 670.68,-54.5"/>
</g>
<!-- Node8 -->
<g id="node8" class="node">
<title>Node8</title>
<g id="a_node8"><a xlink:href="../../da/d22/jlx12864g-086_8c.html#ad0ecb0947bce9ef5c95701dc3ab91535" target="_top" xlink:title="Sets the display state.">
<polygon fill="white" stroke="black" points="536,-0.5 536,-21.5 645,-21.5 645,-0.5 536,-0.5"/>
<text text-anchor="middle" x="590.5" y="-7.9" font-family="Helvetica,sans-Serif" font-size="12.00">setDisplayState</text>
</a>
</g>
</g>
<!-- Node1&#45;&gt;Node8 -->
<g id="edge8" class="edge">
<title>Node1&#45;&gt;Node8</title>
<path fill="none" stroke="midnightblue" d="M673.91,-37.37C657.79,-32.21 639.68,-26.42 624.56,-21.58"/>
<polygon fill="midnightblue" stroke="midnightblue" points="673.07,-40.78 683.66,-40.49 675.2,-34.11 673.07,-40.78"/>
</g>
<!-- Node3 -->
<g id="node3" class="node">
<title>Node3</title>
<g id="a_node3"><a xlink:href="../../d4/dbf/main_8h.html#a9efe22aaead3a5e936b5df459de02eba" target="_top" xlink:title="System initialization.">
<polygon fill="white" stroke="black" points="222,-59.5 222,-80.5 287,-80.5 287,-59.5 222,-59.5"/>
<text text-anchor="middle" x="254.5" y="-66.9" font-family="Helvetica,sans-Serif" font-size="12.00">initialize</text>
</a>
</g>
</g>
<!-- Node2&#45;&gt;Node3 -->
<g id="edge2" class="edge">
<title>Node2&#45;&gt;Node3</title>
<path fill="none" stroke="midnightblue" d="M312.41,-70C304.1,-70 295.33,-70 287.22,-70"/>
<polygon fill="midnightblue" stroke="midnightblue" points="312.59,-73.5 322.59,-70 312.59,-66.5 312.59,-73.5"/>
</g>
<!-- Node4 -->
<g id="node4" class="node">
<title>Node4</title>
<g id="a_node4"><a xlink:href="../../df/d0a/stm32__startup_8c.html#a840291bc02cba5474a4cb46a9b9566fe" target="_top" xlink:title=" ">
<polygon fill="white" stroke="black" points="139,-59.5 139,-80.5 186,-80.5 186,-59.5 139,-59.5"/>
<text text-anchor="middle" x="162.5" y="-66.9" font-family="Helvetica,sans-Serif" font-size="12.00">main</text>
</a>
</g>
</g>
<!-- Node3&#45;&gt;Node4 -->
<g id="edge3" class="edge">
<title>Node3&#45;&gt;Node4</title>
<path fill="none" stroke="midnightblue" d="M211.63,-70C202.86,-70 193.93,-70 186.19,-70"/>
<polygon fill="midnightblue" stroke="midnightblue" points="211.77,-73.5 221.77,-70 211.77,-66.5 211.77,-73.5"/>
</g>
<!-- Node5 -->
<g id="node5" class="node">
<title>Node5</title>
<g id="a_node5"><a xlink:href="../../df/d0a/stm32__startup_8c.html#ae7ee340978f5c25f52f0cad1457c6616" target="_top" xlink:title=" ">
<polygon fill="white" stroke="black" points="0,-59.5 0,-80.5 103,-80.5 103,-59.5 0,-59.5"/>
<text text-anchor="middle" x="51.5" y="-66.9" font-family="Helvetica,sans-Serif" font-size="12.00">Reset_Handler</text>
</a>
</g>
</g>
<!-- Node4&#45;&gt;Node5 -->
<g id="edge4" class="edge">
<title>Node4&#45;&gt;Node5</title>
<path fill="none" stroke="midnightblue" d="M128.87,-70C120.83,-70 112.04,-70 103.37,-70"/>
<polygon fill="midnightblue" stroke="midnightblue" points="128.92,-73.5 138.92,-70 128.92,-66.5 128.92,-73.5"/>
</g>
<!-- Node7 -->
<g id="node7" class="node">
<title>Node7</title>
<g id="a_node7"><a xlink:href="../../da/d22/jlx12864g-086_8c.html#a67e96e514d9f296c79378f7fbfba457a" target="_top" xlink:title="Clears the LCD screen.">
<polygon fill="white" stroke="black" points="412,-40.5 412,-61.5 500,-61.5 500,-40.5 412,-40.5"/>
<text text-anchor="middle" x="456" y="-47.9" font-family="Helvetica,sans-Serif" font-size="12.00">clearScreen</text>
</a>
</g>
</g>
<!-- Node6&#45;&gt;Node7 -->
<g id="edge6" class="edge">
<title>Node6&#45;&gt;Node7</title>
<path fill="none" stroke="midnightblue" d="M542.96,-51C529.07,-51 513.9,-51 500.23,-51"/>
<polygon fill="midnightblue" stroke="midnightblue" points="543.29,-54.5 553.29,-51 543.29,-47.5 543.29,-54.5"/>
</g>
<!-- Node7&#45;&gt;Node2 -->
<g id="edge7" class="edge">
<title>Node7&#45;&gt;Node2</title>
<path fill="none" stroke="midnightblue" d="M401.83,-60.67C392.89,-62.29 383.98,-63.91 376.16,-65.34"/>
<polygon fill="midnightblue" stroke="midnightblue" points="402.68,-64.07 411.89,-58.84 401.43,-57.18 402.68,-64.07"/>
</g>
</g>
</svg>
