<?xml version="1.0" encoding="UTF-8" standalone="no"?>
<!DOCTYPE svg PUBLIC "-//W3C//DTD SVG 1.1//EN"
 "http://www.w3.org/Graphics/SVG/1.1/DTD/svg11.dtd">
<!-- Generated by graphviz version 2.43.0 (0)
 -->
<!-- Title: lcdInit Pages: 1 -->
<svg width="768pt" height="787pt"
 viewBox="0.00 0.00 768.00 787.00" xmlns="http://www.w3.org/2000/svg" xmlns:xlink="http://www.w3.org/1999/xlink">
<g id="graph0" class="graph" transform="scale(1 1) rotate(0) translate(4 783)">
<title>lcdInit</title>
<polygon fill="white" stroke="transparent" points="-4,4 -4,-783 764,-783 764,4 -4,4"/>
<!-- Node1 -->
<g id="node1" class="node">
<title>Node1</title>
<g id="a_node1"><a xlink:title="LCD initialization and setup.">
<polygon fill="#bfbfbf" stroke="black" points="0,-340.5 0,-361.5 53,-361.5 53,-340.5 0,-340.5"/>
<text text-anchor="middle" x="26.5" y="-347.9" font-family="Helvetica,sans-Serif" font-size="12.00">lcdInit</text>
</a>
</g>
</g>
<!-- Node2 -->
<g id="node2" class="node">
<title>Node2</title>
<g id="a_node2"><a xlink:href="../../da/d22/jlx12864g-086_8c.html#a67e96e514d9f296c79378f7fbfba457a" target="_top" xlink:title="Clears the LCD screen.">
<polygon fill="white" stroke="black" points="102,-674.5 102,-695.5 190,-695.5 190,-674.5 102,-674.5"/>
<text text-anchor="middle" x="146" y="-681.9" font-family="Helvetica,sans-Serif" font-size="12.00">clearScreen</text>
</a>
</g>
</g>
<!-- Node1&#45;&gt;Node2 -->
<g id="edge1" class="edge">
<title>Node1&#45;&gt;Node2</title>
<path fill="none" stroke="midnightblue" d="M28.32,-361.7C32.28,-410.56 50.7,-612.02 89,-660 91.84,-663.56 95.3,-666.63 99.08,-669.27"/>
<polygon fill="midnightblue" stroke="midnightblue" points="97.39,-672.34 107.79,-674.4 100.95,-666.3 97.39,-672.34"/>
</g>
<!-- Node7 -->
<g id="node7" class="node">
<title>Node7</title>
<g id="a_node7"><a xlink:href="../../d6/d7c/gpio_8h.html#a8fb639edaa0779019761b860827fc20c" target="_top" xlink:title=" ">
<polygon fill="white" stroke="black" points="581,-597.5 581,-618.5 647,-618.5 647,-597.5 581,-597.5"/>
<text text-anchor="middle" x="614" y="-604.9" font-family="Helvetica,sans-Serif" font-size="12.00">pinState</text>
</a>
</g>
</g>
<!-- Node1&#45;&gt;Node7 -->
<g id="edge30" class="edge">
<title>Node1&#45;&gt;Node7</title>
<path fill="none" stroke="midnightblue" d="M28.6,-361.76C33.2,-404.26 52.33,-559.52 89,-589 126.1,-618.83 452.45,-612.59 570.56,-609.32"/>
<polygon fill="midnightblue" stroke="midnightblue" points="570.78,-612.81 580.68,-609.03 570.58,-605.82 570.78,-612.81"/>
</g>
<!-- Node11 -->
<g id="node11" class="node">
<title>Node11</title>
<g id="a_node11"><a xlink:href="../../da/d22/jlx12864g-086_8c.html#a4bcd441113fe3b80f49fcc53a4866ec9" target="_top" xlink:title="Send a command byte to the LCD This function sends a configuration command to the LCD module.">
<polygon fill="white" stroke="black" points="444.5,-673.5 444.5,-694.5 517.5,-694.5 517.5,-673.5 444.5,-673.5"/>
<text text-anchor="middle" x="481" y="-680.9" font-family="Helvetica,sans-Serif" font-size="12.00">sendCMD</text>
</a>
</g>
</g>
<!-- Node1&#45;&gt;Node11 -->
<g id="edge31" class="edge">
<title>Node1&#45;&gt;Node11</title>
<path fill="none" stroke="midnightblue" d="M28.33,-361.53C32.14,-406.96 49.46,-585.53 89,-622 138.51,-667.66 322.67,-653.33 389,-665 403.71,-667.59 419.68,-670.79 434.07,-673.82"/>
<polygon fill="midnightblue" stroke="midnightblue" points="433.72,-677.32 444.23,-675.98 435.18,-670.48 433.72,-677.32"/>
</g>
<!-- Node12 -->
<g id="node12" class="node">
<title>Node12</title>
<g id="a_node12"><a xlink:href="../../d6/d7c/gpio_8h.html#a439e53843c575f79671ed97866108782" target="_top" xlink:title=" ">
<polygon fill="white" stroke="black" points="89,-558.5 89,-579.5 203,-579.5 203,-558.5 89,-558.5"/>
<text text-anchor="middle" x="146" y="-565.9" font-family="Helvetica,sans-Serif" font-size="12.00">configurePortPin</text>
</a>
</g>
</g>
<!-- Node1&#45;&gt;Node12 -->
<g id="edge16" class="edge">
<title>Node1&#45;&gt;Node12</title>
<path fill="none" stroke="midnightblue" d="M27.64,-361.66C28.67,-394.28 36.18,-493.92 89,-549 90.25,-550.31 91.6,-551.53 93.01,-552.67"/>
<polygon fill="midnightblue" stroke="midnightblue" points="91.5,-555.86 101.79,-558.38 95.32,-549.99 91.5,-555.86"/>
</g>
<!-- Node13 -->
<g id="node13" class="node">
<title>Node13</title>
<g id="a_node13"><a xlink:href="../../d3/d0f/delay_8c.html#a9b1195ad733e78a387f97fd76d14fe10" target="_top" xlink:title=" ">
<polygon fill="white" stroke="black" points="109.5,-518.5 109.5,-539.5 182.5,-539.5 182.5,-518.5 109.5,-518.5"/>
<text text-anchor="middle" x="146" y="-525.9" font-family="Helvetica,sans-Serif" font-size="12.00">delay_ms</text>
</a>
</g>
</g>
<!-- Node1&#45;&gt;Node13 -->
<g id="edge17" class="edge">
<title>Node1&#45;&gt;Node13</title>
<path fill="none" stroke="midnightblue" d="M28.65,-361.89C32.19,-390.18 45.52,-466.73 89,-509 92.25,-512.16 96.04,-514.83 100.08,-517.07"/>
<polygon fill="midnightblue" stroke="midnightblue" points="98.68,-520.28 109.22,-521.35 101.65,-513.94 98.68,-520.28"/>
</g>
<!-- Node18 -->
<g id="node18" class="node">
<title>Node18</title>
<g id="a_node18"><a xlink:href="../../d3/d0f/delay_8c.html#a2c202769438fffb066833cd3c0ebc16c" target="_top" xlink:title=" ">
<polygon fill="white" stroke="black" points="106.5,-478.5 106.5,-499.5 185.5,-499.5 185.5,-478.5 106.5,-478.5"/>
<text text-anchor="middle" x="146" y="-485.9" font-family="Helvetica,sans-Serif" font-size="12.00">delays_init</text>
</a>
</g>
</g>
<!-- Node1&#45;&gt;Node18 -->
<g id="edge22" class="edge">
<title>Node1&#45;&gt;Node18</title>
<path fill="none" stroke="midnightblue" d="M30.75,-361.82C37.88,-383.83 56.85,-434.28 89,-464 93.06,-467.75 97.77,-471.01 102.7,-473.81"/>
<polygon fill="midnightblue" stroke="midnightblue" points="101.23,-476.99 111.73,-478.4 104.4,-470.75 101.23,-476.99"/>
</g>
<!-- Node23 -->
<g id="node23" class="node">
<title>Node23</title>
<g id="a_node23"><a xlink:href="../../db/d65/rcc_8h.html#a8716597cde5f9094c477d09e155f78fe" target="_top" xlink:title=" ">
<polygon fill="white" stroke="black" points="239,-358.5 239,-379.5 389,-379.5 389,-358.5 239,-358.5"/>
<text text-anchor="middle" x="314" y="-365.9" font-family="Helvetica,sans-Serif" font-size="12.00">enablePeripheralClock</text>
</a>
</g>
</g>
<!-- Node1&#45;&gt;Node23 -->
<g id="edge27" class="edge">
<title>Node1&#45;&gt;Node23</title>
<path fill="none" stroke="midnightblue" d="M31.83,-361.56C39.93,-379.74 59.3,-416.37 89,-431 134.45,-453.39 156.97,-452.17 203,-431 225.34,-420.73 218.21,-402.12 239,-389 242.32,-386.9 245.86,-385.02 249.53,-383.34"/>
<polygon fill="midnightblue" stroke="midnightblue" points="250.9,-386.56 258.84,-379.54 248.26,-380.08 250.9,-386.56"/>
</g>
<!-- Node24 -->
<g id="node24" class="node">
<title>Node24</title>
<g id="a_node24"><a xlink:href="../../da/d87/spi_8h.html#aa5ce7817ff53ca2cf0ed769600027208" target="_top" xlink:title=" ">
<polygon fill="white" stroke="black" points="99.5,-400.5 99.5,-421.5 192.5,-421.5 192.5,-400.5 99.5,-400.5"/>
<text text-anchor="middle" x="146" y="-407.9" font-family="Helvetica,sans-Serif" font-size="12.00">enableSpiClk</text>
</a>
</g>
</g>
<!-- Node1&#45;&gt;Node24 -->
<g id="edge28" class="edge">
<title>Node1&#45;&gt;Node24</title>
<path fill="none" stroke="midnightblue" d="M41.59,-361.53C53.71,-370.25 71.88,-382.52 89,-391 93.06,-393.01 97.38,-394.92 101.75,-396.71"/>
<polygon fill="midnightblue" stroke="midnightblue" points="100.71,-400.06 111.3,-400.41 103.24,-393.53 100.71,-400.06"/>
</g>
<!-- Node25 -->
<g id="node25" class="node">
<title>Node25</title>
<g id="a_node25"><a xlink:href="../../da/d87/spi_8h.html#a5af2644ecb017c084f668fc9544c440b" target="_top" xlink:title=" ">
<polygon fill="white" stroke="black" points="98,-360.5 98,-381.5 194,-381.5 194,-360.5 98,-360.5"/>
<text text-anchor="middle" x="146" y="-367.9" font-family="Helvetica,sans-Serif" font-size="12.00">setBIDIMODE</text>
</a>
</g>
</g>
<!-- Node1&#45;&gt;Node25 -->
<g id="edge32" class="edge">
<title>Node1&#45;&gt;Node25</title>
<path fill="none" stroke="midnightblue" d="M53.29,-355.39C63.52,-357.13 75.74,-359.21 87.86,-361.27"/>
<polygon fill="midnightblue" stroke="midnightblue" points="87.53,-364.77 97.98,-363 88.71,-357.87 87.53,-364.77"/>
</g>
<!-- Node26 -->
<g id="node26" class="node">
<title>Node26</title>
<g id="a_node26"><a xlink:href="../../da/d87/spi_8h.html#a438a037a5fced10386bf38ace105a027" target="_top" xlink:title=" ">
<polygon fill="white" stroke="black" points="120.5,-320.5 120.5,-341.5 171.5,-341.5 171.5,-320.5 120.5,-320.5"/>
<text text-anchor="middle" x="146" y="-327.9" font-family="Helvetica,sans-Serif" font-size="12.00">setBR</text>
</a>
</g>
</g>
<!-- Node1&#45;&gt;Node26 -->
<g id="edge33" class="edge">
<title>Node1&#45;&gt;Node26</title>
<path fill="none" stroke="midnightblue" d="M53.29,-346.61C70.08,-343.75 92.19,-339.99 110.49,-336.87"/>
<polygon fill="midnightblue" stroke="midnightblue" points="111.21,-340.3 120.48,-335.17 110.03,-333.4 111.21,-340.3"/>
</g>
<!-- Node27 -->
<g id="node27" class="node">
<title>Node27</title>
<g id="a_node27"><a xlink:href="../../da/d87/spi_8h.html#a4680c2da6349550b7041f4a111baef61" target="_top" xlink:title=" ">
<polygon fill="white" stroke="black" points="112,-280.5 112,-301.5 180,-301.5 180,-280.5 112,-280.5"/>
<text text-anchor="middle" x="146" y="-287.9" font-family="Helvetica,sans-Serif" font-size="12.00">setCPHA</text>
</a>
</g>
</g>
<!-- Node1&#45;&gt;Node27 -->
<g id="edge34" class="edge">
<title>Node1&#45;&gt;Node27</title>
<path fill="none" stroke="midnightblue" d="M41.59,-340.47C53.71,-331.75 71.88,-319.48 89,-311 93.28,-308.88 97.85,-306.87 102.46,-305"/>
<polygon fill="midnightblue" stroke="midnightblue" points="103.81,-308.23 111.89,-301.38 101.3,-301.7 103.81,-308.23"/>
</g>
<!-- Node28 -->
<g id="node28" class="node">
<title>Node28</title>
<g id="a_node28"><a xlink:href="../../da/d87/spi_8h.html#a62327446ec68761618262bec61de9e15" target="_top" xlink:title=" ">
<polygon fill="white" stroke="black" points="112.5,-240.5 112.5,-261.5 179.5,-261.5 179.5,-240.5 112.5,-240.5"/>
<text text-anchor="middle" x="146" y="-247.9" font-family="Helvetica,sans-Serif" font-size="12.00">setCPOL</text>
</a>
</g>
</g>
<!-- Node1&#45;&gt;Node28 -->
<g id="edge35" class="edge">
<title>Node1&#45;&gt;Node28</title>
<path fill="none" stroke="midnightblue" d="M33.02,-340.35C42.35,-323.36 62.8,-290.07 89,-271 93.22,-267.93 97.96,-265.29 102.85,-263.03"/>
<polygon fill="midnightblue" stroke="midnightblue" points="104.41,-266.18 112.33,-259.15 101.75,-259.7 104.41,-266.18"/>
</g>
<!-- Node29 -->
<g id="node29" class="node">
<title>Node29</title>
<g id="a_node29"><a xlink:href="../../da/d87/spi_8h.html#a451868137a2c361ad92e7c48161ce0d8" target="_top" xlink:title=" ">
<polygon fill="white" stroke="black" points="117.5,-200.5 117.5,-221.5 174.5,-221.5 174.5,-200.5 117.5,-200.5"/>
<text text-anchor="middle" x="146" y="-207.9" font-family="Helvetica,sans-Serif" font-size="12.00">setDFF</text>
</a>
</g>
</g>
<!-- Node1&#45;&gt;Node29 -->
<g id="edge36" class="edge">
<title>Node1&#45;&gt;Node29</title>
<path fill="none" stroke="midnightblue" d="M30.08,-340.37C36.24,-317.19 53.98,-261.72 89,-231 94.37,-226.29 100.93,-222.66 107.64,-219.88"/>
<polygon fill="midnightblue" stroke="midnightblue" points="109.22,-223.03 117.47,-216.38 106.87,-216.44 109.22,-223.03"/>
</g>
<!-- Node30 -->
<g id="node30" class="node">
<title>Node30</title>
<g id="a_node30"><a xlink:href="../../da/d87/spi_8h.html#aea2680d6ffdf383b89967d6717bd4cbf" target="_top" xlink:title=" ">
<polygon fill="white" stroke="black" points="100.5,-160.5 100.5,-181.5 191.5,-181.5 191.5,-160.5 100.5,-160.5"/>
<text text-anchor="middle" x="146" y="-167.9" font-family="Helvetica,sans-Serif" font-size="12.00">setLSBFIRST</text>
</a>
</g>
</g>
<!-- Node1&#45;&gt;Node30 -->
<g id="edge37" class="edge">
<title>Node1&#45;&gt;Node30</title>
<path fill="none" stroke="midnightblue" d="M28.55,-340.39C31.92,-312.09 44.92,-234.03 89,-191 90.47,-189.57 92.05,-188.24 93.71,-187"/>
<polygon fill="midnightblue" stroke="midnightblue" points="95.88,-189.77 102.59,-181.57 92.23,-183.8 95.88,-189.77"/>
</g>
<!-- Node31 -->
<g id="node31" class="node">
<title>Node31</title>
<g id="a_node31"><a xlink:href="../../da/d87/spi_8h.html#aa774053517e739cd33bc183eeb872fa7" target="_top" xlink:title=" ">
<polygon fill="white" stroke="black" points="112,-120.5 112,-141.5 180,-141.5 180,-120.5 112,-120.5"/>
<text text-anchor="middle" x="146" y="-127.9" font-family="Helvetica,sans-Serif" font-size="12.00">setMSTR</text>
</a>
</g>
</g>
<!-- Node1&#45;&gt;Node31 -->
<g id="edge38" class="edge">
<title>Node1&#45;&gt;Node31</title>
<path fill="none" stroke="midnightblue" d="M27.61,-340.24C28.53,-307.29 35.77,-206.66 89,-151 92.84,-146.99 97.53,-143.78 102.55,-141.22"/>
<polygon fill="midnightblue" stroke="midnightblue" points="104.01,-144.4 111.83,-137.26 101.26,-137.96 104.01,-144.4"/>
</g>
<!-- Node32 -->
<g id="node32" class="node">
<title>Node32</title>
<g id="a_node32"><a xlink:href="../../da/d87/spi_8h.html#ad4b80fed454aa59eef9a78f0de32bf7d" target="_top" xlink:title=" ">
<polygon fill="white" stroke="black" points="105,-80.5 105,-101.5 187,-101.5 187,-80.5 105,-80.5"/>
<text text-anchor="middle" x="146" y="-87.9" font-family="Helvetica,sans-Serif" font-size="12.00">setRXONLY</text>
</a>
</g>
</g>
<!-- Node1&#45;&gt;Node32 -->
<g id="edge39" class="edge">
<title>Node1&#45;&gt;Node32</title>
<path fill="none" stroke="midnightblue" d="M26.95,-340.28C25.65,-303.31 26.4,-179.65 89,-111 91.05,-108.75 93.38,-106.75 95.89,-104.97"/>
<polygon fill="midnightblue" stroke="midnightblue" points="98.04,-107.77 104.98,-99.77 94.56,-101.7 98.04,-107.77"/>
</g>
<!-- Node33 -->
<g id="node33" class="node">
<title>Node33</title>
<g id="a_node33"><a xlink:href="../../da/d87/spi_8h.html#a11d6922e8ef87cf6c2f1d4b12d8e4c6b" target="_top" xlink:title=" ">
<polygon fill="white" stroke="black" points="116,-40.5 116,-61.5 176,-61.5 176,-40.5 116,-40.5"/>
<text text-anchor="middle" x="146" y="-47.9" font-family="Helvetica,sans-Serif" font-size="12.00">setSSM</text>
</a>
</g>
</g>
<!-- Node1&#45;&gt;Node33 -->
<g id="edge40" class="edge">
<title>Node1&#45;&gt;Node33</title>
<path fill="none" stroke="midnightblue" d="M28.47,-340.32C32.88,-294.2 52.33,-112.65 89,-71 93.63,-65.74 99.74,-61.87 106.22,-59.01"/>
<polygon fill="midnightblue" stroke="midnightblue" points="107.65,-62.22 115.85,-55.51 105.26,-55.64 107.65,-62.22"/>
</g>
<!-- Node34 -->
<g id="node34" class="node">
<title>Node34</title>
<g id="a_node34"><a xlink:href="../../da/d87/spi_8h.html#ac0cd95deea1b13ac60e26d1fc1c63e07" target="_top" xlink:title=" ">
<polygon fill="white" stroke="black" points="112.5,-0.5 112.5,-21.5 179.5,-21.5 179.5,-0.5 112.5,-0.5"/>
<text text-anchor="middle" x="146" y="-7.9" font-family="Helvetica,sans-Serif" font-size="12.00">setSSOE</text>
</a>
</g>
</g>
<!-- Node1&#45;&gt;Node34 -->
<g id="edge41" class="edge">
<title>Node1&#45;&gt;Node34</title>
<path fill="none" stroke="midnightblue" d="M28.16,-340.18C31.46,-289.89 47.57,-79.31 89,-31 92.74,-26.64 97.5,-23.23 102.65,-20.57"/>
<polygon fill="midnightblue" stroke="midnightblue" points="104.38,-23.64 112.23,-16.52 101.66,-17.19 104.38,-23.64"/>
</g>
<!-- Node3 -->
<g id="node3" class="node">
<title>Node3</title>
<g id="a_node3"><a xlink:href="../../da/d22/jlx12864g-086_8c.html#a6934a89cb69fffa73b88b30bec551480" target="_top" xlink:title="Sends a byte of data to LCD This function trabsfers a byte of data to the LCD via the serial interfac...">
<polygon fill="white" stroke="black" points="444,-713.5 444,-734.5 518,-734.5 518,-713.5 444,-713.5"/>
<text text-anchor="middle" x="481" y="-720.9" font-family="Helvetica,sans-Serif" font-size="12.00">sendData</text>
</a>
</g>
</g>
<!-- Node2&#45;&gt;Node3 -->
<g id="edge2" class="edge">
<title>Node2&#45;&gt;Node3</title>
<path fill="none" stroke="midnightblue" d="M189.84,-695.57C205.25,-699.04 222.83,-702.62 239,-705 306.31,-714.92 385.01,-719.9 433.68,-722.21"/>
<polygon fill="midnightblue" stroke="midnightblue" points="433.75,-725.72 443.9,-722.68 434.07,-718.73 433.75,-725.72"/>
</g>
<!-- Node10 -->
<g id="node10" class="node">
<title>Node10</title>
<g id="a_node10"><a xlink:href="../../da/d22/jlx12864g-086_8c.html#a4be1c34ab03ed296adfc1f8112bb5a96" target="_top" xlink:title="Set the cursor position.">
<polygon fill="white" stroke="black" points="277,-674.5 277,-695.5 351,-695.5 351,-674.5 277,-674.5"/>
<text text-anchor="middle" x="314" y="-681.9" font-family="Helvetica,sans-Serif" font-size="12.00">setCursor</text>
</a>
</g>
</g>
<!-- Node2&#45;&gt;Node10 -->
<g id="edge9" class="edge">
<title>Node2&#45;&gt;Node10</title>
<path fill="none" stroke="midnightblue" d="M190.18,-685C213.61,-685 242.59,-685 266.51,-685"/>
<polygon fill="midnightblue" stroke="midnightblue" points="266.77,-688.5 276.77,-685 266.77,-681.5 266.77,-688.5"/>
</g>
<!-- Node4 -->
<g id="node4" class="node">
<title>Node4</title>
<g id="a_node4"><a xlink:href="../../da/d87/spi_8h.html#a05761991907a0a790f1cc63f6b7bc3ea" target="_top" xlink:title=" ">
<polygon fill="white" stroke="black" points="575.5,-717.5 575.5,-738.5 652.5,-738.5 652.5,-717.5 575.5,-717.5"/>
<text text-anchor="middle" x="614" y="-724.9" font-family="Helvetica,sans-Serif" font-size="12.00">disableSPI</text>
</a>
</g>
</g>
<!-- Node3&#45;&gt;Node4 -->
<g id="edge3" class="edge">
<title>Node3&#45;&gt;Node4</title>
<path fill="none" stroke="midnightblue" d="M518.14,-725.1C532.54,-725.54 549.33,-726.06 564.74,-726.53"/>
<polygon fill="midnightblue" stroke="midnightblue" points="565.04,-730.04 575.15,-726.84 565.26,-723.04 565.04,-730.04"/>
</g>
<!-- Node5 -->
<g id="node5" class="node">
<title>Node5</title>
<g id="a_node5"><a xlink:href="../../da/d87/spi_8h.html#a912b1538af2fc99addc1bbecc6040428" target="_top" xlink:title=" ">
<polygon fill="white" stroke="black" points="576,-677.5 576,-698.5 652,-698.5 652,-677.5 576,-677.5"/>
<text text-anchor="middle" x="614" y="-684.9" font-family="Helvetica,sans-Serif" font-size="12.00">enableSPI</text>
</a>
</g>
</g>
<!-- Node3&#45;&gt;Node5 -->
<g id="edge4" class="edge">
<title>Node3&#45;&gt;Node5</title>
<path fill="none" stroke="midnightblue" d="M518.14,-714.07C532.8,-710.04 549.94,-705.33 565.58,-701.03"/>
<polygon fill="midnightblue" stroke="midnightblue" points="566.89,-704.3 575.61,-698.28 565.04,-697.55 566.89,-704.3"/>
</g>
<!-- Node6 -->
<g id="node6" class="node">
<title>Node6</title>
<g id="a_node6"><a xlink:href="../../da/d87/spi_8h.html#ac0943c7fba40ce2bcaca8935419a44b0" target="_top" xlink:title=" ">
<polygon fill="white" stroke="black" points="584.5,-637.5 584.5,-658.5 643.5,-658.5 643.5,-637.5 584.5,-637.5"/>
<text text-anchor="middle" x="614" y="-644.9" font-family="Helvetica,sans-Serif" font-size="12.00">getTXE</text>
</a>
</g>
</g>
<!-- Node3&#45;&gt;Node6 -->
<g id="edge5" class="edge">
<title>Node3&#45;&gt;Node6</title>
<path fill="none" stroke="midnightblue" d="M517.99,-713.49C524.56,-710.86 531.17,-707.71 537,-704 556.09,-691.85 554.64,-681.23 573,-668 575.09,-666.49 577.32,-665.04 579.61,-663.65"/>
<polygon fill="midnightblue" stroke="midnightblue" points="581.55,-666.57 588.58,-658.64 578.14,-660.45 581.55,-666.57"/>
</g>
<!-- Node3&#45;&gt;Node7 -->
<g id="edge6" class="edge">
<title>Node3&#45;&gt;Node7</title>
<path fill="none" stroke="midnightblue" d="M518.01,-715.49C524.87,-712.66 531.59,-708.93 537,-704 564.64,-678.84 546.85,-654.71 573,-628 574.23,-626.74 575.56,-625.55 576.96,-624.42"/>
<polygon fill="midnightblue" stroke="midnightblue" points="579.19,-627.14 585.53,-618.65 575.28,-621.33 579.19,-627.14"/>
</g>
<!-- Node8 -->
<g id="node8" class="node">
<title>Node8</title>
<g id="a_node8"><a xlink:href="../../da/d87/spi_8h.html#aac2bc42beebc5041e10a7cb1c1d9b5d8" target="_top" xlink:title=" ">
<polygon fill="white" stroke="black" points="573,-757.5 573,-778.5 655,-778.5 655,-757.5 573,-757.5"/>
<text text-anchor="middle" x="614" y="-764.9" font-family="Helvetica,sans-Serif" font-size="12.00">spiTransfer</text>
</a>
</g>
</g>
<!-- Node3&#45;&gt;Node8 -->
<g id="edge7" class="edge">
<title>Node3&#45;&gt;Node8</title>
<path fill="none" stroke="midnightblue" d="M513.38,-734.54C530.91,-740.43 552.97,-747.84 571.87,-754.18"/>
<polygon fill="midnightblue" stroke="midnightblue" points="570.83,-757.53 581.42,-757.39 573.06,-750.89 570.83,-757.53"/>
</g>
<!-- Node9 -->
<g id="node9" class="node">
<title>Node9</title>
<g id="a_node9"><a xlink:href="../../da/d00/spi_8c.html#a560be65d4526c611eb5eb6845401108b" target="_top" xlink:title=" ">
<polygon fill="white" stroke="black" points="691,-757.5 691,-778.5 760,-778.5 760,-757.5 691,-757.5"/>
<text text-anchor="middle" x="725.5" y="-764.9" font-family="Helvetica,sans-Serif" font-size="12.00">getRXNE</text>
</a>
</g>
</g>
<!-- Node8&#45;&gt;Node9 -->
<g id="edge8" class="edge">
<title>Node8&#45;&gt;Node9</title>
<path fill="none" stroke="midnightblue" d="M655.15,-768C663.48,-768 672.3,-768 680.75,-768"/>
<polygon fill="midnightblue" stroke="midnightblue" points="680.83,-771.5 690.83,-768 680.83,-764.5 680.83,-771.5"/>
</g>
<!-- Node10&#45;&gt;Node11 -->
<g id="edge10" class="edge">
<title>Node10&#45;&gt;Node11</title>
<path fill="none" stroke="midnightblue" d="M351.21,-684.78C375.66,-684.63 408.14,-684.44 434.36,-684.28"/>
<polygon fill="midnightblue" stroke="midnightblue" points="434.46,-687.78 444.44,-684.22 434.42,-680.78 434.46,-687.78"/>
</g>
<!-- Node11&#45;&gt;Node4 -->
<g id="edge11" class="edge">
<title>Node11&#45;&gt;Node4</title>
<path fill="none" stroke="midnightblue" d="M513.38,-694.54C530.91,-700.43 552.97,-707.84 571.87,-714.18"/>
<polygon fill="midnightblue" stroke="midnightblue" points="570.83,-717.53 581.42,-717.39 573.06,-710.89 570.83,-717.53"/>
</g>
<!-- Node11&#45;&gt;Node5 -->
<g id="edge12" class="edge">
<title>Node11&#45;&gt;Node5</title>
<path fill="none" stroke="midnightblue" d="M517.8,-685.09C532.59,-685.54 549.94,-686.07 565.75,-686.56"/>
<polygon fill="midnightblue" stroke="midnightblue" points="565.77,-690.06 575.88,-686.87 565.99,-683.06 565.77,-690.06"/>
</g>
<!-- Node11&#45;&gt;Node6 -->
<g id="edge13" class="edge">
<title>Node11&#45;&gt;Node6</title>
<path fill="none" stroke="midnightblue" d="M517.8,-674.16C535.36,-669.34 556.53,-663.52 574.45,-658.6"/>
<polygon fill="midnightblue" stroke="midnightblue" points="575.58,-661.91 584.29,-655.89 573.72,-655.16 575.58,-661.91"/>
</g>
<!-- Node11&#45;&gt;Node7 -->
<g id="edge14" class="edge">
<title>Node11&#45;&gt;Node7</title>
<path fill="none" stroke="midnightblue" d="M498.18,-673.44C516.18,-661.84 546.25,-642.88 573,-628 575.85,-626.41 578.84,-624.81 581.85,-623.24"/>
<polygon fill="midnightblue" stroke="midnightblue" points="583.5,-626.33 590.81,-618.66 580.31,-620.09 583.5,-626.33"/>
</g>
<!-- Node11&#45;&gt;Node8 -->
<g id="edge15" class="edge">
<title>Node11&#45;&gt;Node8</title>
<path fill="none" stroke="midnightblue" d="M517.72,-693.82C524.46,-696.53 531.2,-699.89 537,-704 557.61,-718.62 553.26,-732.22 573,-748 574.82,-749.46 576.77,-750.85 578.79,-752.17"/>
<polygon fill="midnightblue" stroke="midnightblue" points="577.5,-755.47 587.9,-757.49 581.03,-749.42 577.5,-755.47"/>
</g>
<!-- Node14 -->
<g id="node14" class="node">
<title>Node14</title>
<g id="a_node14"><a xlink:href="../../d3/d0f/delay_8c.html#a56b77b6dd38d7a46ac58d29c7a8abc45" target="_top" xlink:title=" ">
<polygon fill="white" stroke="black" points="293.5,-558.5 293.5,-579.5 334.5,-579.5 334.5,-558.5 293.5,-558.5"/>
<text text-anchor="middle" x="314" y="-565.9" font-family="Helvetica,sans-Serif" font-size="12.00">wait</text>
</a>
</g>
</g>
<!-- Node13&#45;&gt;Node14 -->
<g id="edge18" class="edge">
<title>Node13&#45;&gt;Node14</title>
<path fill="none" stroke="midnightblue" d="M182.61,-537.58C212.52,-544.79 254.76,-554.97 282.98,-561.77"/>
<polygon fill="midnightblue" stroke="midnightblue" points="282.51,-565.25 293.05,-564.19 284.15,-558.45 282.51,-565.25"/>
</g>
<!-- Node15 -->
<g id="node15" class="node">
<title>Node15</title>
<g id="a_node15"><a xlink:href="../../d3/dcb/systick_8h.html#a2e23680bc54cd34007b029bc6eeb9f45" target="_top" xlink:title=" ">
<polygon fill="white" stroke="black" points="436.5,-558.5 436.5,-579.5 525.5,-579.5 525.5,-558.5 436.5,-558.5"/>
<text text-anchor="middle" x="481" y="-565.9" font-family="Helvetica,sans-Serif" font-size="12.00">isCountZero</text>
</a>
</g>
</g>
<!-- Node14&#45;&gt;Node15 -->
<g id="edge19" class="edge">
<title>Node14&#45;&gt;Node15</title>
<path fill="none" stroke="midnightblue" d="M334.58,-569C356.97,-569 394.6,-569 425.96,-569"/>
<polygon fill="midnightblue" stroke="midnightblue" points="426.33,-572.5 436.33,-569 426.33,-565.5 426.33,-572.5"/>
</g>
<!-- Node16 -->
<g id="node16" class="node">
<title>Node16</title>
<g id="a_node16"><a xlink:href="../../d3/dcb/systick_8h.html#ac86d7c99258fa05e489f1e0f9b99b9ac" target="_top" xlink:title=" ">
<polygon fill="white" stroke="black" points="425,-518.5 425,-539.5 537,-539.5 537,-518.5 425,-518.5"/>
<text text-anchor="middle" x="481" y="-525.9" font-family="Helvetica,sans-Serif" font-size="12.00">setCurrentValue</text>
</a>
</g>
</g>
<!-- Node14&#45;&gt;Node16 -->
<g id="edge20" class="edge">
<title>Node14&#45;&gt;Node16</title>
<path fill="none" stroke="midnightblue" d="M334.58,-564.25C357.14,-558.78 395.18,-549.56 426.7,-541.92"/>
<polygon fill="midnightblue" stroke="midnightblue" points="427.78,-545.26 436.67,-539.5 426.13,-538.46 427.78,-545.26"/>
</g>
<!-- Node17 -->
<g id="node17" class="node">
<title>Node17</title>
<g id="a_node17"><a xlink:href="../../d3/dcb/systick_8h.html#a2939ccd5e4925bbd8cd234c3a03e0a72" target="_top" xlink:title=" ">
<polygon fill="white" stroke="black" points="427,-478.5 427,-499.5 535,-499.5 535,-478.5 427,-478.5"/>
<text text-anchor="middle" x="481" y="-485.9" font-family="Helvetica,sans-Serif" font-size="12.00">setReloadValue</text>
</a>
</g>
</g>
<!-- Node14&#45;&gt;Node17 -->
<g id="edge21" class="edge">
<title>Node14&#45;&gt;Node17</title>
<path fill="none" stroke="midnightblue" d="M334.76,-566.78C350.41,-564.32 372.33,-559.24 389,-549 409.38,-536.48 405.17,-522.37 425,-509 427.87,-507.07 430.94,-505.29 434.12,-503.67"/>
<polygon fill="midnightblue" stroke="midnightblue" points="435.62,-506.84 443.27,-499.5 432.72,-500.47 435.62,-506.84"/>
</g>
<!-- Node19 -->
<g id="node19" class="node">
<title>Node19</title>
<g id="a_node19"><a xlink:href="../../d3/dcb/systick_8h.html#ae21aa60af271633215766ee6be6b8870" target="_top" xlink:title=" ">
<polygon fill="white" stroke="black" points="255.5,-438.5 255.5,-459.5 372.5,-459.5 372.5,-438.5 255.5,-438.5"/>
<text text-anchor="middle" x="314" y="-445.9" font-family="Helvetica,sans-Serif" font-size="12.00">disableException</text>
</a>
</g>
</g>
<!-- Node18&#45;&gt;Node19 -->
<g id="edge23" class="edge">
<title>Node18&#45;&gt;Node19</title>
<path fill="none" stroke="midnightblue" d="M185.5,-479.72C207.37,-474.45 235.1,-467.77 259.11,-461.99"/>
<polygon fill="midnightblue" stroke="midnightblue" points="260.24,-465.31 269.14,-459.57 258.6,-458.51 260.24,-465.31"/>
</g>
<!-- Node20 -->
<g id="node20" class="node">
<title>Node20</title>
<g id="a_node20"><a xlink:href="../../d3/dcb/systick_8h.html#a1f7309053baf77d254dbee15d7d3eec5" target="_top" xlink:title=" ">
<polygon fill="white" stroke="black" points="247,-398.5 247,-419.5 381,-419.5 381,-398.5 247,-398.5"/>
<text text-anchor="middle" x="314" y="-405.9" font-family="Helvetica,sans-Serif" font-size="12.00">disableSystickTimer</text>
</a>
</g>
</g>
<!-- Node18&#45;&gt;Node20 -->
<g id="edge24" class="edge">
<title>Node18&#45;&gt;Node20</title>
<path fill="none" stroke="midnightblue" d="M175.94,-478.38C184.96,-474.48 194.72,-469.61 203,-464 221.47,-451.48 219.61,-440.04 239,-429 242.88,-426.79 247.01,-424.82 251.26,-423.06"/>
<polygon fill="midnightblue" stroke="midnightblue" points="252.57,-426.31 260.71,-419.53 250.12,-419.75 252.57,-426.31"/>
</g>
<!-- Node21 -->
<g id="node21" class="node">
<title>Node21</title>
<g id="a_node21"><a xlink:href="../../d3/dcb/systick_8h.html#ad22b34d574ab648dcef84ffaca75de8f" target="_top" xlink:title=" ">
<polygon fill="white" stroke="black" points="247.5,-518.5 247.5,-539.5 380.5,-539.5 380.5,-518.5 247.5,-518.5"/>
<text text-anchor="middle" x="314" y="-525.9" font-family="Helvetica,sans-Serif" font-size="12.00">enableSystickTimer</text>
</a>
</g>
</g>
<!-- Node18&#45;&gt;Node21 -->
<g id="edge25" class="edge">
<title>Node18&#45;&gt;Node21</title>
<path fill="none" stroke="midnightblue" d="M185.5,-498.28C207.37,-503.55 235.1,-510.23 259.11,-516.01"/>
<polygon fill="midnightblue" stroke="midnightblue" points="258.6,-519.49 269.14,-518.43 260.24,-512.69 258.6,-519.49"/>
</g>
<!-- Node22 -->
<g id="node22" class="node">
<title>Node22</title>
<g id="a_node22"><a xlink:href="../../d3/dcb/systick_8h.html#ab70024ec848e492efb0f9a0b266641bd" target="_top" xlink:title=" ">
<polygon fill="white" stroke="black" points="261.5,-478.5 261.5,-499.5 366.5,-499.5 366.5,-478.5 261.5,-478.5"/>
<text text-anchor="middle" x="314" y="-485.9" font-family="Helvetica,sans-Serif" font-size="12.00">setCockSource</text>
</a>
</g>
</g>
<!-- Node18&#45;&gt;Node22 -->
<g id="edge26" class="edge">
<title>Node18&#45;&gt;Node22</title>
<path fill="none" stroke="midnightblue" d="M185.5,-489C205.01,-489 229.19,-489 251.22,-489"/>
<polygon fill="midnightblue" stroke="midnightblue" points="251.5,-492.5 261.5,-489 251.5,-485.5 251.5,-492.5"/>
</g>
<!-- Node24&#45;&gt;Node23 -->
<g id="edge29" class="edge">
<title>Node24&#45;&gt;Node23</title>
<path fill="none" stroke="midnightblue" d="M188.89,-400.4C210.99,-394.81 238.3,-387.9 261.67,-381.99"/>
<polygon fill="midnightblue" stroke="midnightblue" points="262.58,-385.37 271.41,-379.52 260.86,-378.58 262.58,-385.37"/>
</g>
</g>
</svg>
