<?xml version="1.0" encoding="UTF-8" standalone="no"?>
<!DOCTYPE svg PUBLIC "-//W3C//DTD SVG 1.1//EN"
 "http://www.w3.org/Graphics/SVG/1.1/DTD/svg11.dtd">
<!-- Generated by graphviz version 2.43.0 (0)
 -->
<!-- Title: /home/ubuntu/Desktop/repositories/learn&#45;arm/src/c/lib/source Pages: 1 -->
<svg width="96pt" height="153pt"
 viewBox="0.00 0.00 96.00 153.00" xmlns="http://www.w3.org/2000/svg" xmlns:xlink="http://www.w3.org/1999/xlink">
<g id="graph0" class="graph" transform="scale(1 1) rotate(0) translate(4 149)">
<title>/home/ubuntu/Desktop/repositories/learn&#45;arm/src/c/lib/source</title>
<polygon fill="white" stroke="transparent" points="-4,4 -4,-149 92,-149 92,4 -4,4"/>
<g id="clust1" class="cluster">
<title>clusterdir_97aefd0d527b934f1d99a682da8fe6a9</title>
<g id="a_clust1"><a xlink:href="dir_97aefd0d527b934f1d99a682da8fe6a9.html" target="_top" xlink:title="lib">
<polygon fill="#ddddee" stroke="black" points="8,-64 8,-137 80,-137 80,-64 8,-64"/>
<text text-anchor="middle" x="44" y="-123.4" font-family="Helvetica,sans-Serif" font-size="12.00">lib</text>
</a>
</g>
</g>
<!-- dir_0168f04cc7dcc5a05437b4fd37c598b1 -->
<g id="node1" class="node">
<title>dir_0168f04cc7dcc5a05437b4fd37c598b1</title>
<g id="a_node1"><a xlink:href="dir_0168f04cc7dcc5a05437b4fd37c598b1.html" target="_top" xlink:title="source">
<polygon fill="#eeeeff" stroke="black" points="72,-108 16,-108 16,-72 72,-72 72,-108"/>
<text text-anchor="middle" x="44" y="-86.9" font-family="Helvetica,sans-Serif" font-size="12.00">source</text>
</a>
</g>
</g>
<!-- dir_5a30104352ef4255dc24354b02eb2d20 -->
<g id="node2" class="node">
<title>dir_5a30104352ef4255dc24354b02eb2d20</title>
<g id="a_node2"><a xlink:href="dir_5a30104352ef4255dc24354b02eb2d20.html" target="_top" xlink:title="include">
<polygon fill="none" stroke="black" points="73.5,-36 14.5,-36 14.5,0 73.5,0 73.5,-36"/>
<text text-anchor="middle" x="44" y="-14.9" font-family="Helvetica,sans-Serif" font-size="12.00">include</text>
</a>
</g>
</g>
<!-- dir_0168f04cc7dcc5a05437b4fd37c598b1&#45;&gt;dir_5a30104352ef4255dc24354b02eb2d20 -->
<g id="edge1" class="edge">
<title>dir_0168f04cc7dcc5a05437b4fd37c598b1&#45;&gt;dir_5a30104352ef4255dc24354b02eb2d20</title>
<path fill="none" stroke="black" d="M44,-71.7C44,-63.98 44,-54.71 44,-46.11"/>
<polygon fill="black" stroke="black" points="47.5,-46.1 44,-36.1 40.5,-46.1 47.5,-46.1"/>
<g id="a_edge1&#45;headlabel"><a xlink:href="dir_000002_000001.html" target="_top" xlink:title="14">
<text text-anchor="middle" x="50.34" y="-46.6" font-family="Helvetica,sans-Serif" font-size="12.00">14</text>
</a>
</g>
</g>
</g>
</svg>
