<?xml version="1.0" encoding="UTF-8" standalone="no"?>
<!DOCTYPE svg PUBLIC "-//W3C//DTD SVG 1.1//EN"
 "http://www.w3.org/Graphics/SVG/1.1/DTD/svg11.dtd">
<!-- Generated by graphviz version 2.43.0 (0)
 -->
<!-- Title: initialize Pages: 1 -->
<svg width="228pt" height="66pt"
 viewBox="0.00 0.00 228.00 66.00" xmlns="http://www.w3.org/2000/svg" xmlns:xlink="http://www.w3.org/1999/xlink">
<g id="graph0" class="graph" transform="scale(1 1) rotate(0) translate(4 62)">
<title>initialize</title>
<polygon fill="white" stroke="transparent" points="-4,4 -4,-62 224,-62 224,4 -4,4"/>
<!-- Node1 -->
<g id="node1" class="node">
<title>Node1</title>
<g id="a_node1"><a xlink:title="System initialization.">
<polygon fill="#bfbfbf" stroke="black" points="0,-19.5 0,-38.5 59,-38.5 59,-19.5 0,-19.5"/>
<text text-anchor="middle" x="29.5" y="-26.5" font-family="Helvetica,sans-Serif" font-size="10.00">initialize</text>
</a>
</g>
</g>
<!-- Node2 -->
<g id="node2" class="node">
<title>Node2</title>
<g id="a_node2"><a xlink:href="main_8h.html#a12328a89779fb2776c00ab40b53319a2" target="_top" xlink:title="System clock confoguration.">
<polygon fill="white" stroke="black" points="95,-38.5 95,-57.5 220,-57.5 220,-38.5 95,-38.5"/>
<text text-anchor="middle" x="157.5" y="-45.5" font-family="Helvetica,sans-Serif" font-size="10.00">configureSystemClock</text>
</a>
</g>
</g>
<!-- Node1&#45;&gt;Node2 -->
<g id="edge1" class="edge">
<title>Node1&#45;&gt;Node2</title>
<path fill="none" stroke="midnightblue" d="M59.09,-33.31C66.93,-34.49 75.79,-35.83 84.9,-37.2"/>
<polygon fill="midnightblue" stroke="midnightblue" points="84.43,-40.67 94.84,-38.7 85.48,-33.75 84.43,-40.67"/>
</g>
<!-- Node3 -->
<g id="node3" class="node">
<title>Node3</title>
<g id="a_node3"><a xlink:href="main_8h.html#adc52587fad33ace0c6a1268953777d6f" target="_top" xlink:title="HC&#45;SRO4 configuration.">
<polygon fill="white" stroke="black" points="129.5,-0.5 129.5,-19.5 185.5,-19.5 185.5,-0.5 129.5,-0.5"/>
<text text-anchor="middle" x="157.5" y="-7.5" font-family="Helvetica,sans-Serif" font-size="10.00">HCSR04</text>
</a>
</g>
</g>
<!-- Node1&#45;&gt;Node3 -->
<g id="edge2" class="edge">
<title>Node1&#45;&gt;Node3</title>
<path fill="none" stroke="midnightblue" d="M59.09,-24.69C76.94,-22 100.1,-18.5 119.36,-15.6"/>
<polygon fill="midnightblue" stroke="midnightblue" points="119.95,-19.05 129.32,-14.1 118.91,-12.13 119.95,-19.05"/>
</g>
</g>
</svg>
