<?xml version="1.0" encoding="UTF-8" standalone="no"?>
<!DOCTYPE svg PUBLIC "-//W3C//DTD SVG 1.1//EN"
 "http://www.w3.org/Graphics/SVG/1.1/DTD/svg11.dtd">
<!-- Generated by graphviz version 2.43.0 (0)
 -->
<!-- Title: configureSystemClock Pages: 1 -->
<svg width="305pt" height="28pt"
 viewBox="0.00 0.00 305.00 28.00" xmlns="http://www.w3.org/2000/svg" xmlns:xlink="http://www.w3.org/1999/xlink">
<g id="graph0" class="graph" transform="scale(1 1) rotate(0) translate(4 24)">
<title>configureSystemClock</title>
<polygon fill="white" stroke="transparent" points="-4,4 -4,-24 301,-24 301,4 -4,4"/>
<!-- Node1 -->
<g id="node1" class="node">
<title>Node1</title>
<g id="a_node1"><a xlink:title="System clock confoguration.">
<polygon fill="#bfbfbf" stroke="black" points="172,-0.5 172,-19.5 297,-19.5 297,-0.5 172,-0.5"/>
<text text-anchor="middle" x="234.5" y="-7.5" font-family="Helvetica,sans-Serif" font-size="10.00">configureSystemClock</text>
</a>
</g>
</g>
<!-- Node2 -->
<g id="node2" class="node">
<title>Node2</title>
<g id="a_node2"><a xlink:href="main_8h.html#a9efe22aaead3a5e936b5df459de02eba" target="_top" xlink:title="System initialization.">
<polygon fill="white" stroke="black" points="77,-0.5 77,-19.5 136,-19.5 136,-0.5 77,-0.5"/>
<text text-anchor="middle" x="106.5" y="-7.5" font-family="Helvetica,sans-Serif" font-size="10.00">initialize</text>
</a>
</g>
</g>
<!-- Node1&#45;&gt;Node2 -->
<g id="edge1" class="edge">
<title>Node1&#45;&gt;Node2</title>
<path fill="none" stroke="midnightblue" d="M161.75,-10C152.75,-10 143.99,-10 136.23,-10"/>
<polygon fill="midnightblue" stroke="midnightblue" points="161.98,-13.5 171.98,-10 161.98,-6.5 161.98,-13.5"/>
</g>
<!-- Node3 -->
<g id="node3" class="node">
<title>Node3</title>
<g id="a_node3"><a xlink:href="main_8c.html#a840291bc02cba5474a4cb46a9b9566fe" target="_top" xlink:title="main funtion.">
<polygon fill="white" stroke="black" points="0,-0.5 0,-19.5 41,-19.5 41,-0.5 0,-0.5"/>
<text text-anchor="middle" x="20.5" y="-7.5" font-family="Helvetica,sans-Serif" font-size="10.00">main</text>
</a>
</g>
</g>
<!-- Node2&#45;&gt;Node3 -->
<g id="edge2" class="edge">
<title>Node2&#45;&gt;Node3</title>
<path fill="none" stroke="midnightblue" d="M66.48,-10C57.72,-10 48.78,-10 41.21,-10"/>
<polygon fill="midnightblue" stroke="midnightblue" points="66.59,-13.5 76.59,-10 66.59,-6.5 66.59,-13.5"/>
</g>
</g>
</svg>
