<?xml version="1.0" encoding="UTF-8" standalone="no"?>
<!DOCTYPE svg PUBLIC "-//W3C//DTD SVG 1.1//EN"
 "http://www.w3.org/Graphics/SVG/1.1/DTD/svg11.dtd">
<!-- Generated by graphviz version 2.43.0 (0)
 -->
<!-- Title: /home/ubuntu/Desktop/repositories/learn&#45;arm/src/c/lib/source/usart.c Pages: 1 -->
<svg width="163pt" height="172pt"
 viewBox="0.00 0.00 162.50 172.00" xmlns="http://www.w3.org/2000/svg" xmlns:xlink="http://www.w3.org/1999/xlink">
<g id="graph0" class="graph" transform="scale(1 1) rotate(0) translate(4 168)">
<title>/home/ubuntu/Desktop/repositories/learn&#45;arm/src/c/lib/source/usart.c</title>
<polygon fill="white" stroke="transparent" points="-4,4 -4,-168 158.5,-168 158.5,4 -4,4"/>
<!-- Node1 -->
<g id="node1" class="node">
<title>Node1</title>
<g id="a_node1"><a xlink:title=" ">
<polygon fill="#bfbfbf" stroke="black" points="0,-116.5 0,-163.5 154,-163.5 154,-116.5 0,-116.5"/>
<text text-anchor="start" x="8" y="-149.9" font-family="Helvetica,sans-Serif" font-size="12.00">/home/ubuntu/Desktop</text>
<text text-anchor="start" x="8" y="-136.9" font-family="Helvetica,sans-Serif" font-size="12.00">/repositories/learn&#45;arm</text>
<text text-anchor="middle" x="77" y="-123.9" font-family="Helvetica,sans-Serif" font-size="12.00">/src/c/lib/source/usart.c</text>
</a>
</g>
</g>
<!-- Node2 -->
<g id="node2" class="node">
<title>Node2</title>
<g id="a_node2"><a xlink:href="../../db/de4/usart_8h.html" target="_top" xlink:title=" ">
<polygon fill="white" stroke="black" points="19,-58.5 19,-79.5 135,-79.5 135,-58.5 19,-58.5"/>
<text text-anchor="middle" x="77" y="-65.9" font-family="Helvetica,sans-Serif" font-size="12.00">../include/usart.h</text>
</a>
</g>
</g>
<!-- Node1&#45;&gt;Node2 -->
<g id="edge1" class="edge">
<title>Node1&#45;&gt;Node2</title>
<path fill="none" stroke="midnightblue" d="M77,-116.41C77,-107.87 77,-98.22 77,-89.94"/>
<polygon fill="midnightblue" stroke="midnightblue" points="80.5,-89.74 77,-79.74 73.5,-89.74 80.5,-89.74"/>
</g>
<!-- Node3 -->
<g id="node3" class="node">
<title>Node3</title>
<g id="a_node3"><a xlink:title=" ">
<polygon fill="white" stroke="#bfbfbf" points="4.5,-0.5 4.5,-21.5 65.5,-21.5 65.5,-0.5 4.5,-0.5"/>
<text text-anchor="middle" x="35" y="-7.9" font-family="Helvetica,sans-Serif" font-size="12.00">stdint.h</text>
</a>
</g>
</g>
<!-- Node2&#45;&gt;Node3 -->
<g id="edge2" class="edge">
<title>Node2&#45;&gt;Node3</title>
<path fill="none" stroke="midnightblue" d="M69.68,-58.25C63.78,-50.38 55.33,-39.1 48.24,-29.65"/>
<polygon fill="midnightblue" stroke="midnightblue" points="51.03,-27.54 42.23,-21.64 45.43,-31.74 51.03,-27.54"/>
</g>
<!-- Node4 -->
<g id="node4" class="node">
<title>Node4</title>
<g id="a_node4"><a xlink:title=" ">
<polygon fill="white" stroke="#bfbfbf" points="83.5,-0.5 83.5,-21.5 154.5,-21.5 154.5,-0.5 83.5,-0.5"/>
<text text-anchor="middle" x="119" y="-7.9" font-family="Helvetica,sans-Serif" font-size="12.00">stdbool.h</text>
</a>
</g>
</g>
<!-- Node2&#45;&gt;Node4 -->
<g id="edge3" class="edge">
<title>Node2&#45;&gt;Node4</title>
<path fill="none" stroke="midnightblue" d="M84.32,-58.25C90.22,-50.38 98.67,-39.1 105.76,-29.65"/>
<polygon fill="midnightblue" stroke="midnightblue" points="108.57,-31.74 111.77,-21.64 102.97,-27.54 108.57,-31.74"/>
</g>
</g>
</svg>
