<?xml version="1.0" encoding="UTF-8" standalone="no"?>
<!DOCTYPE svg PUBLIC "-//W3C//DTD SVG 1.1//EN"
 "http://www.w3.org/Graphics/SVG/1.1/DTD/svg11.dtd">
<!-- Generated by graphviz version 2.43.0 (0)
 -->
<!-- Title: /home/ubuntu/Desktop/repositories/learn&#45;arm/src/c/lib/source/gpio.c Pages: 1 -->
<svg width="182pt" height="172pt"
 viewBox="0.00 0.00 182.00 172.00" xmlns="http://www.w3.org/2000/svg" xmlns:xlink="http://www.w3.org/1999/xlink">
<g id="graph0" class="graph" transform="scale(1 1) rotate(0) translate(4 168)">
<title>/home/ubuntu/Desktop/repositories/learn&#45;arm/src/c/lib/source/gpio.c</title>
<polygon fill="white" stroke="transparent" points="-4,4 -4,-168 178,-168 178,4 -4,4"/>
<!-- Node1 -->
<g id="node1" class="node">
<title>Node1</title>
<g id="a_node1"><a xlink:title=" ">
<polygon fill="#bfbfbf" stroke="black" points="0,-116.5 0,-163.5 153,-163.5 153,-116.5 0,-116.5"/>
<text text-anchor="start" x="8" y="-149.9" font-family="Helvetica,sans-Serif" font-size="12.00">/home/ubuntu/Desktop</text>
<text text-anchor="start" x="8" y="-136.9" font-family="Helvetica,sans-Serif" font-size="12.00">/repositories/learn&#45;arm</text>
<text text-anchor="middle" x="76.5" y="-123.9" font-family="Helvetica,sans-Serif" font-size="12.00">/src/c/lib/source/gpio.c</text>
</a>
</g>
</g>
<!-- Node2 -->
<g id="node2" class="node">
<title>Node2</title>
<g id="a_node2"><a xlink:title=" ">
<polygon fill="white" stroke="#bfbfbf" points="4,-0.5 4,-21.5 65,-21.5 65,-0.5 4,-0.5"/>
<text text-anchor="middle" x="34.5" y="-7.9" font-family="Helvetica,sans-Serif" font-size="12.00">stdint.h</text>
</a>
</g>
</g>
<!-- Node1&#45;&gt;Node2 -->
<g id="edge1" class="edge">
<title>Node1&#45;&gt;Node2</title>
<path fill="none" stroke="midnightblue" d="M67.66,-116.44C63.48,-105.5 58.54,-92.14 54.5,-80 49.1,-63.79 43.67,-45.15 39.84,-31.5"/>
<polygon fill="midnightblue" stroke="midnightblue" points="43.18,-30.45 37.13,-21.75 36.44,-32.32 43.18,-30.45"/>
</g>
<!-- Node3 -->
<g id="node3" class="node">
<title>Node3</title>
<g id="a_node3"><a xlink:href="../../d6/d7c/gpio_8h.html" target="_top" xlink:title="This header file contains all the function declarations for the LCD module.">
<polygon fill="white" stroke="black" points="63,-58.5 63,-79.5 174,-79.5 174,-58.5 63,-58.5"/>
<text text-anchor="middle" x="118.5" y="-65.9" font-family="Helvetica,sans-Serif" font-size="12.00">../include/gpio.h</text>
</a>
</g>
</g>
<!-- Node1&#45;&gt;Node3 -->
<g id="edge2" class="edge">
<title>Node1&#45;&gt;Node3</title>
<path fill="none" stroke="midnightblue" d="M90.25,-116.41C95.75,-107.38 101.99,-97.12 107.21,-88.54"/>
<polygon fill="midnightblue" stroke="midnightblue" points="110.36,-90.1 112.57,-79.74 104.39,-86.46 110.36,-90.1"/>
</g>
<!-- Node3&#45;&gt;Node2 -->
<g id="edge3" class="edge">
<title>Node3&#45;&gt;Node2</title>
<path fill="none" stroke="midnightblue" d="M103.87,-58.25C91.1,-49.73 72.36,-37.24 57.57,-27.38"/>
<polygon fill="midnightblue" stroke="midnightblue" points="59.23,-24.28 48.96,-21.64 55.34,-30.1 59.23,-24.28"/>
</g>
<!-- Node4 -->
<g id="node4" class="node">
<title>Node4</title>
<g id="a_node4"><a xlink:title=" ">
<polygon fill="white" stroke="#bfbfbf" points="83,-0.5 83,-21.5 154,-21.5 154,-0.5 83,-0.5"/>
<text text-anchor="middle" x="118.5" y="-7.9" font-family="Helvetica,sans-Serif" font-size="12.00">stdbool.h</text>
</a>
</g>
</g>
<!-- Node3&#45;&gt;Node4 -->
<g id="edge4" class="edge">
<title>Node3&#45;&gt;Node4</title>
<path fill="none" stroke="midnightblue" d="M118.5,-58.25C118.5,-50.94 118.5,-40.69 118.5,-31.7"/>
<polygon fill="midnightblue" stroke="midnightblue" points="122,-31.64 118.5,-21.64 115,-31.64 122,-31.64"/>
</g>
</g>
</svg>
