<?xml version="1.0" encoding="UTF-8" standalone="no"?>
<!DOCTYPE svg PUBLIC "-//W3C//DTD SVG 1.1//EN"
 "http://www.w3.org/Graphics/SVG/1.1/DTD/svg11.dtd">
<!-- Generated by graphviz version 2.43.0 (0)
 -->
<!-- Title: /home/ubuntu/Desktop/repositories/learn&#45;arm/src/c/lib/include/nvic.h Pages: 1 -->
<svg width="161pt" height="114pt"
 viewBox="0.00 0.00 161.00 114.00" xmlns="http://www.w3.org/2000/svg" xmlns:xlink="http://www.w3.org/1999/xlink">
<g id="graph0" class="graph" transform="scale(1 1) rotate(0) translate(4 110)">
<title>/home/ubuntu/Desktop/repositories/learn&#45;arm/src/c/lib/include/nvic.h</title>
<polygon fill="white" stroke="transparent" points="-4,4 -4,-110 157,-110 157,4 -4,4"/>
<!-- Node1 -->
<g id="node1" class="node">
<title>Node1</title>
<g id="a_node1"><a xlink:title=" ">
<polygon fill="#bfbfbf" stroke="black" points="0,-58.5 0,-105.5 153,-105.5 153,-58.5 0,-58.5"/>
<text text-anchor="start" x="8" y="-91.9" font-family="Helvetica,sans-Serif" font-size="12.00">/home/ubuntu/Desktop</text>
<text text-anchor="start" x="8" y="-78.9" font-family="Helvetica,sans-Serif" font-size="12.00">/repositories/learn&#45;arm</text>
<text text-anchor="middle" x="76.5" y="-65.9" font-family="Helvetica,sans-Serif" font-size="12.00">/src/c/lib/include/nvic.h</text>
</a>
</g>
</g>
<!-- Node2 -->
<g id="node2" class="node">
<title>Node2</title>
<g id="a_node2"><a xlink:title=" ">
<polygon fill="white" stroke="#bfbfbf" points="46,-0.5 46,-21.5 107,-21.5 107,-0.5 46,-0.5"/>
<text text-anchor="middle" x="76.5" y="-7.9" font-family="Helvetica,sans-Serif" font-size="12.00">stdint.h</text>
</a>
</g>
</g>
<!-- Node1&#45;&gt;Node2 -->
<g id="edge1" class="edge">
<title>Node1&#45;&gt;Node2</title>
<path fill="none" stroke="midnightblue" d="M76.5,-58.41C76.5,-49.87 76.5,-40.22 76.5,-31.94"/>
<polygon fill="midnightblue" stroke="midnightblue" points="80,-31.74 76.5,-21.74 73,-31.74 80,-31.74"/>
</g>
</g>
</svg>
