<?xml version="1.0" encoding="UTF-8" standalone="no"?>
<!DOCTYPE svg PUBLIC "-//W3C//DTD SVG 1.1//EN"
 "http://www.w3.org/Graphics/SVG/1.1/DTD/svg11.dtd">
<!-- Generated by graphviz version 2.43.0 (0)
 -->
<!-- Title: /home/ubuntu/Desktop/repositories/learn&#45;arm/src/c/lib/include/rcc.h Pages: 1 -->
<!--zoomable 366 -->
<svg id="main" version="1.1" xmlns="http://www.w3.org/2000/svg" xmlns:xlink="http://www.w3.org/1999/xlink" xml:space="preserve" onload="init(evt)">
<style type="text/css"><![CDATA[
.edge:hover path { stroke: red; }
.edge:hover polygon { stroke: red; fill: red; }
]]></style>
<script type="text/javascript"><![CDATA[
var edges = document.getElementsByTagName('g');
if (edges && edges.length) {
  for (var i=0;i<edges.length;i++) {
    if (edges[i].id.substr(0,4)=='edge') {
      edges[i].setAttribute('class','edge');
    }
  }
}
]]></script>
        <defs>
                <circle id="rim" cx="0" cy="0" r="7"/>
                <circle id="rim2" cx="0" cy="0" r="3.5"/>
                <g id="zoomPlus">
                        <use xlink:href="#rim" fill="#404040">
                                <set attributeName="fill" to="#808080" begin="zoomplus.mouseover" end="zoomplus.mouseout"/>
                        </use>
                        <path d="M-4,0h8M0,-4v8" fill="none" stroke="white" stroke-width="1.5" pointer-events="none"/>
                </g>
                <g id="zoomMin">
                        <use xlink:href="#rim" fill="#404040">
                                <set attributeName="fill" to="#808080" begin="zoomminus.mouseover" end="zoomminus.mouseout"/>
                        </use>
                        <path d="M-4,0h8" fill="none" stroke="white" stroke-width="1.5" pointer-events="none"/>
                </g>
                <g id="dirArrow">
                        <path fill="none" stroke="white" stroke-width="1.5" d="M0,-3.0v7 M-2.5,-0.5L0,-3.0L2.5,-0.5"/>
                </g>
               <g id="resetDef">
                       <use xlink:href="#rim2" fill="#404040">
                               <set attributeName="fill" to="#808080" begin="reset.mouseover" end="reset.mouseout"/>
                       </use>
               </g>
        </defs>

<script type="text/javascript">
var viewWidth = 637;
var viewHeight = 366;
var sectionId = 'dynsection-1';
</script>
<script xlink:href="../../svgpan.js"/>
<svg id="graph" class="graph">
<g id="viewport">
<title>/home/ubuntu/Desktop/repositories/learn&#45;arm/src/c/lib/include/rcc.h</title>
<polygon fill="white" stroke="transparent" points="-4,4 -4,-362 632.5,-362 632.5,4 -4,4"/>
<!-- Node1 -->
<g id="node1" class="node">
<title>Node1</title>
<g id="a_node1"><a xlink:title="This header file contains all the function declarations for the LCD module.">
<polygon fill="#bfbfbf" stroke="black" points="183.5,-310.5 183.5,-357.5 336.5,-357.5 336.5,-310.5 183.5,-310.5"/>
<text text-anchor="start" x="191.5" y="-343.9" font-family="Helvetica,sans-Serif" font-size="12.00">/home/ubuntu/Desktop</text>
<text text-anchor="start" x="191.5" y="-330.9" font-family="Helvetica,sans-Serif" font-size="12.00">/repositories/learn&#45;arm</text>
<text text-anchor="middle" x="260" y="-317.9" font-family="Helvetica,sans-Serif" font-size="12.00">/src/c/lib/include/rcc.h</text>
</a>
</g>
</g>
<!-- Node2 -->
<g id="node2" class="node">
<title>Node2</title>
<g id="a_node2"><a xlink:href="../../d4/dbf/main_8h.html" target="_top" xlink:title="This header file contains all the function declarations for main.">
<polygon fill="white" stroke="black" points="0,-71.5 0,-92.5 58,-92.5 58,-71.5 0,-71.5"/>
<text text-anchor="middle" x="29" y="-78.9" font-family="Helvetica,sans-Serif" font-size="12.00">main.h</text>
</a>
</g>
</g>
<!-- Node1&#45;&gt;Node2 -->
<g id="edge1" class="edge">
<title>Node1&#45;&gt;Node2</title>
<path fill="none" stroke="midnightblue" d="M173.86,-316.13C143.87,-307.22 111.4,-293.85 86,-274 51.03,-246.68 45.1,-232.4 32,-190 21.36,-155.55 25.12,-111.87 27.57,-92.73"/>
<polygon fill="midnightblue" stroke="midnightblue" points="172.92,-319.51 183.5,-318.87 174.83,-312.77 172.92,-319.51"/>
</g>
<!-- Node4 -->
<g id="node4" class="node">
<title>Node4</title>
<g id="a_node4"><a xlink:href="../../da/d87/spi_8h.html" target="_top" xlink:title=" ">
<polygon fill="white" stroke="black" points="95.5,-226.5 95.5,-273.5 248.5,-273.5 248.5,-226.5 95.5,-226.5"/>
<text text-anchor="start" x="103.5" y="-259.9" font-family="Helvetica,sans-Serif" font-size="12.00">/home/ubuntu/Desktop</text>
<text text-anchor="start" x="103.5" y="-246.9" font-family="Helvetica,sans-Serif" font-size="12.00">/repositories/learn&#45;arm</text>
<text text-anchor="middle" x="172" y="-233.9" font-family="Helvetica,sans-Serif" font-size="12.00">/src/c/lib/include/spi.h</text>
</a>
</g>
</g>
<!-- Node1&#45;&gt;Node4 -->
<g id="edge3" class="edge">
<title>Node1&#45;&gt;Node4</title>
<path fill="none" stroke="midnightblue" d="M228.09,-303.26C217.63,-293.52 206.19,-282.86 196.38,-273.72"/>
<polygon fill="midnightblue" stroke="midnightblue" points="225.78,-305.9 235.49,-310.16 230.56,-300.78 225.78,-305.9"/>
</g>
<!-- Node8 -->
<g id="node8" class="node">
<title>Node8</title>
<g id="a_node8"><a xlink:href="../../d7/d59/timers_8h.html" target="_top" xlink:title=" ">
<polygon fill="white" stroke="black" points="266.5,-226.5 266.5,-273.5 431.5,-273.5 431.5,-226.5 266.5,-226.5"/>
<text text-anchor="start" x="274.5" y="-259.9" font-family="Helvetica,sans-Serif" font-size="12.00">/home/ubuntu/Desktop</text>
<text text-anchor="start" x="274.5" y="-246.9" font-family="Helvetica,sans-Serif" font-size="12.00">/repositories/learn&#45;arm</text>
<text text-anchor="middle" x="349" y="-233.9" font-family="Helvetica,sans-Serif" font-size="12.00">/src/c/lib/include/timers.h</text>
</a>
</g>
</g>
<!-- Node1&#45;&gt;Node8 -->
<g id="edge9" class="edge">
<title>Node1&#45;&gt;Node8</title>
<path fill="none" stroke="midnightblue" d="M292.28,-303.26C302.85,-293.52 314.42,-282.86 324.34,-273.72"/>
<polygon fill="midnightblue" stroke="midnightblue" points="289.77,-300.81 284.79,-310.16 294.52,-305.96 289.77,-300.81"/>
</g>
<!-- Node10 -->
<g id="node10" class="node">
<title>Node10</title>
<g id="a_node10"><a xlink:href="../../d7/dfe/rcc_8c.html" target="_top" xlink:title=" ">
<polygon fill="white" stroke="black" points="449.5,-226.5 449.5,-273.5 602.5,-273.5 602.5,-226.5 449.5,-226.5"/>
<text text-anchor="start" x="457.5" y="-259.9" font-family="Helvetica,sans-Serif" font-size="12.00">/home/ubuntu/Desktop</text>
<text text-anchor="start" x="457.5" y="-246.9" font-family="Helvetica,sans-Serif" font-size="12.00">/repositories/learn&#45;arm</text>
<text text-anchor="middle" x="526" y="-233.9" font-family="Helvetica,sans-Serif" font-size="12.00">/src/c/lib/source/rcc.c</text>
</a>
</g>
</g>
<!-- Node1&#45;&gt;Node10 -->
<g id="edge11" class="edge">
<title>Node1&#45;&gt;Node10</title>
<path fill="none" stroke="midnightblue" d="M342.8,-307.48C377.96,-296.64 418.6,-284.11 452.66,-273.61"/>
<polygon fill="midnightblue" stroke="midnightblue" points="341.56,-304.19 333.04,-310.48 343.62,-310.88 341.56,-304.19"/>
</g>
<!-- Node3 -->
<g id="node3" class="node">
<title>Node3</title>
<g id="a_node3"><a xlink:href="../../d0/d29/main_8c.html" target="_top" xlink:title=" ">
<polygon fill="white" stroke="black" points="0.5,-0.5 0.5,-21.5 57.5,-21.5 57.5,-0.5 0.5,-0.5"/>
<text text-anchor="middle" x="29" y="-7.9" font-family="Helvetica,sans-Serif" font-size="12.00">main.c</text>
</a>
</g>
</g>
<!-- Node2&#45;&gt;Node3 -->
<g id="edge2" class="edge">
<title>Node2&#45;&gt;Node3</title>
<path fill="none" stroke="midnightblue" d="M29,-61.09C29,-48.08 29,-31.68 29,-21.51"/>
<polygon fill="midnightblue" stroke="midnightblue" points="25.5,-61.41 29,-71.41 32.5,-61.41 25.5,-61.41"/>
</g>
<!-- Node4&#45;&gt;Node2 -->
<g id="edge4" class="edge">
<title>Node4&#45;&gt;Node2</title>
<path fill="none" stroke="midnightblue" d="M96.1,-221.61C81.43,-213.38 67.41,-202.97 57,-190 33.32,-160.5 29.5,-113.04 29,-92.73"/>
<polygon fill="midnightblue" stroke="midnightblue" points="94.82,-224.89 105.29,-226.47 98.08,-218.7 94.82,-224.89"/>
</g>
<!-- Node5 -->
<g id="node5" class="node">
<title>Node5</title>
<g id="a_node5"><a xlink:href="../../d0/dea/jlx12864g-086_8h.html" target="_top" xlink:title="This header file contains all the function declarations for the LCD module.">
<polygon fill="white" stroke="black" points="66,-142.5 66,-189.5 278,-189.5 278,-142.5 66,-142.5"/>
<text text-anchor="start" x="74" y="-175.9" font-family="Helvetica,sans-Serif" font-size="12.00">/home/ubuntu/Desktop</text>
<text text-anchor="start" x="74" y="-162.9" font-family="Helvetica,sans-Serif" font-size="12.00">/repositories/learn&#45;arm</text>
<text text-anchor="middle" x="172" y="-149.9" font-family="Helvetica,sans-Serif" font-size="12.00">/src/c/lib/include/jlx12864g&#45;086.h</text>
</a>
</g>
</g>
<!-- Node4&#45;&gt;Node5 -->
<g id="edge5" class="edge">
<title>Node4&#45;&gt;Node5</title>
<path fill="none" stroke="midnightblue" d="M172,-216.11C172,-207.26 172,-197.88 172,-189.72"/>
<polygon fill="midnightblue" stroke="midnightblue" points="168.5,-216.16 172,-226.16 175.5,-216.16 168.5,-216.16"/>
</g>
<!-- Node7 -->
<g id="node7" class="node">
<title>Node7</title>
<g id="a_node7"><a xlink:href="../../da/d00/spi_8c.html" target="_top" xlink:title=" ">
<polygon fill="white" stroke="black" points="296.5,-142.5 296.5,-189.5 449.5,-189.5 449.5,-142.5 296.5,-142.5"/>
<text text-anchor="start" x="304.5" y="-175.9" font-family="Helvetica,sans-Serif" font-size="12.00">/home/ubuntu/Desktop</text>
<text text-anchor="start" x="304.5" y="-162.9" font-family="Helvetica,sans-Serif" font-size="12.00">/repositories/learn&#45;arm</text>
<text text-anchor="middle" x="373" y="-149.9" font-family="Helvetica,sans-Serif" font-size="12.00">/src/c/lib/source/spi.c</text>
</a>
</g>
</g>
<!-- Node4&#45;&gt;Node7 -->
<g id="edge8" class="edge">
<title>Node4&#45;&gt;Node7</title>
<path fill="none" stroke="midnightblue" d="M236.62,-222.64C262.71,-212 292.51,-199.84 317.58,-189.61"/>
<polygon fill="midnightblue" stroke="midnightblue" points="235.13,-219.47 227.19,-226.48 237.77,-225.95 235.13,-219.47"/>
</g>
<!-- Node5&#45;&gt;Node2 -->
<g id="edge6" class="edge">
<title>Node5&#45;&gt;Node2</title>
<path fill="none" stroke="midnightblue" d="M122.25,-137.48C104.72,-127.66 84.92,-116.45 67,-106 59.54,-101.65 51.33,-96.7 44.46,-92.51"/>
<polygon fill="midnightblue" stroke="midnightblue" points="120.75,-140.65 131.19,-142.47 124.16,-134.54 120.75,-140.65"/>
</g>
<!-- Node6 -->
<g id="node6" class="node">
<title>Node6</title>
<g id="a_node6"><a xlink:href="../../da/d22/jlx12864g-086_8c.html" target="_top" xlink:title=" ">
<polygon fill="white" stroke="black" points="76,-58.5 76,-105.5 284,-105.5 284,-58.5 76,-58.5"/>
<text text-anchor="start" x="84" y="-91.9" font-family="Helvetica,sans-Serif" font-size="12.00">/home/ubuntu/Desktop</text>
<text text-anchor="start" x="84" y="-78.9" font-family="Helvetica,sans-Serif" font-size="12.00">/repositories/learn&#45;arm</text>
<text text-anchor="middle" x="180" y="-65.9" font-family="Helvetica,sans-Serif" font-size="12.00">/src/c/lib/source/jlx12864g&#45;086.c</text>
</a>
</g>
</g>
<!-- Node5&#45;&gt;Node6 -->
<g id="edge7" class="edge">
<title>Node5&#45;&gt;Node6</title>
<path fill="none" stroke="midnightblue" d="M175.21,-132.11C176.07,-123.26 176.99,-113.88 177.78,-105.72"/>
<polygon fill="midnightblue" stroke="midnightblue" points="171.72,-131.87 174.23,-142.16 178.68,-132.55 171.72,-131.87"/>
</g>
<!-- Node9 -->
<g id="node9" class="node">
<title>Node9</title>
<g id="a_node9"><a xlink:href="../../d0/d80/timers_8c.html" target="_top" xlink:title=" ">
<polygon fill="white" stroke="black" points="467.5,-142.5 467.5,-189.5 628.5,-189.5 628.5,-142.5 467.5,-142.5"/>
<text text-anchor="start" x="475.5" y="-175.9" font-family="Helvetica,sans-Serif" font-size="12.00">/home/ubuntu/Desktop</text>
<text text-anchor="start" x="475.5" y="-162.9" font-family="Helvetica,sans-Serif" font-size="12.00">/repositories/learn&#45;arm</text>
<text text-anchor="middle" x="548" y="-149.9" font-family="Helvetica,sans-Serif" font-size="12.00">/src/c/lib/source/timers.c</text>
</a>
</g>
</g>
<!-- Node8&#45;&gt;Node9 -->
<g id="edge10" class="edge">
<title>Node8&#45;&gt;Node9</title>
<path fill="none" stroke="midnightblue" d="M412.97,-222.64C438.8,-212 468.31,-199.84 493.14,-189.61"/>
<polygon fill="midnightblue" stroke="midnightblue" points="411.55,-219.44 403.64,-226.48 414.22,-225.91 411.55,-219.44"/>
</g>
</g>
</svg>
        <g id="navigator" transform="translate(0 0)" fill="#404254">
                <rect fill="#f2f5e9" fill-opacity="0.5" stroke="#606060" stroke-width=".5" x="0" y="0" width="60" height="60"/>
                <use id="zoomplus" xlink:href="#zoomPlus" x="17" y="9" onmousedown="handleZoom(evt,'in')"/>
                <use id="zoomminus" xlink:href="#zoomMin" x="42" y="9" onmousedown="handleZoom(evt,'out')"/>
                <use id="reset" xlink:href="#resetDef" x="30" y="36" onmousedown="handleReset()"/>
                <g id="arrowUp" xlink:href="#dirArrow" transform="translate(30 24)" onmousedown="handlePan(0,-1)">
                  <use xlink:href="#rim" fill="#404040">
                        <set attributeName="fill" to="#808080" begin="arrowUp.mouseover" end="arrowUp.mouseout"/>
                  </use>
                  <path fill="none" stroke="white" stroke-width="1.5" d="M0,-3.0v7 M-2.5,-0.5L0,-3.0L2.5,-0.5"/>
                </g>
                <g id="arrowRight" xlink:href="#dirArrow" transform="rotate(90) translate(36 -43)" onmousedown="handlePan(1,0)">
                  <use xlink:href="#rim" fill="#404040">
                        <set attributeName="fill" to="#808080" begin="arrowRight.mouseover" end="arrowRight.mouseout"/>
                  </use>
                  <path fill="none" stroke="white" stroke-width="1.5" d="M0,-3.0v7 M-2.5,-0.5L0,-3.0L2.5,-0.5"/>
                </g>
                <g id="arrowDown" xlink:href="#dirArrow" transform="rotate(180) translate(-30 -48)" onmousedown="handlePan(0,1)">
                  <use xlink:href="#rim" fill="#404040">
                        <set attributeName="fill" to="#808080" begin="arrowDown.mouseover" end="arrowDown.mouseout"/>
                  </use>
                  <path fill="none" stroke="white" stroke-width="1.5" d="M0,-3.0v7 M-2.5,-0.5L0,-3.0L2.5,-0.5"/>
                </g>
                <g id="arrowLeft" xlink:href="#dirArrow" transform="rotate(270) translate(-36 17)" onmousedown="handlePan(-1,0)">
                  <use xlink:href="#rim" fill="#404040">
                        <set attributeName="fill" to="#808080" begin="arrowLeft.mouseover" end="arrowLeft.mouseout"/>
                  </use>
                  <path fill="none" stroke="white" stroke-width="1.5" d="M0,-3.0v7 M-2.5,-0.5L0,-3.0L2.5,-0.5"/>
                </g>
        </g>
        <svg viewBox="0 0 15 15" width="100%" height="30px" preserveAspectRatio="xMaxYMin meet">
         <g id="arrow_out" transform="scale(0.3 0.3)">
          <a xlink:href="rcc_8h__dep__incl_org.svg" target="_base">
           <rect id="button" ry="5" rx="5" y="6" x="6" height="38" width="38"
                fill="#f2f5e9" fill-opacity="0.5" stroke="#606060" stroke-width="1.0"/>
           <path id="arrow"
             d="M 11.500037,31.436501 C 11.940474,20.09759 22.043105,11.32322 32.158766,21.979434 L 37.068811,17.246167 C 37.068811,17.246167 37.088388,32 37.088388,32 L 22.160133,31.978069 C 22.160133,31.978069 26.997745,27.140456 26.997745,27.140456 C 18.528582,18.264221 13.291696,25.230495 11.500037,31.436501 z"
             style="fill:#404040;"/>
          </a>
         </g>
        </svg>
</svg>
