<?xml version="1.0" encoding="UTF-8" standalone="no"?>
<!DOCTYPE svg PUBLIC "-//W3C//DTD SVG 1.1//EN"
 "http://www.w3.org/Graphics/SVG/1.1/DTD/svg11.dtd">
<!-- Generated by graphviz version 2.43.0 (0)
 -->
<!-- Title: /home/ubuntu/Desktop/repositories/learn&#45;arm/src/c/lib/source/flash.c Pages: 1 -->
<svg width="162pt" height="172pt"
 viewBox="0.00 0.00 162.00 172.00" xmlns="http://www.w3.org/2000/svg" xmlns:xlink="http://www.w3.org/1999/xlink">
<g id="graph0" class="graph" transform="scale(1 1) rotate(0) translate(4 168)">
<title>/home/ubuntu/Desktop/repositories/learn&#45;arm/src/c/lib/source/flash.c</title>
<polygon fill="white" stroke="transparent" points="-4,4 -4,-168 158,-168 158,4 -4,4"/>
<!-- Node1 -->
<g id="node1" class="node">
<title>Node1</title>
<g id="a_node1"><a xlink:title=" ">
<polygon fill="#bfbfbf" stroke="black" points="0,-116.5 0,-163.5 153,-163.5 153,-116.5 0,-116.5"/>
<text text-anchor="start" x="8" y="-149.9" font-family="Helvetica,sans-Serif" font-size="12.00">/home/ubuntu/Desktop</text>
<text text-anchor="start" x="8" y="-136.9" font-family="Helvetica,sans-Serif" font-size="12.00">/repositories/learn&#45;arm</text>
<text text-anchor="middle" x="76.5" y="-123.9" font-family="Helvetica,sans-Serif" font-size="12.00">/src/c/lib/source/flash.c</text>
</a>
</g>
</g>
<!-- Node2 -->
<g id="node2" class="node">
<title>Node2</title>
<g id="a_node2"><a xlink:href="../../de/df7/flash_8h.html" target="_top" xlink:title="This header file contains all the function declarations for the LCD module.">
<polygon fill="white" stroke="black" points="19.5,-58.5 19.5,-79.5 133.5,-79.5 133.5,-58.5 19.5,-58.5"/>
<text text-anchor="middle" x="76.5" y="-65.9" font-family="Helvetica,sans-Serif" font-size="12.00">../include/flash.h</text>
</a>
</g>
</g>
<!-- Node1&#45;&gt;Node2 -->
<g id="edge1" class="edge">
<title>Node1&#45;&gt;Node2</title>
<path fill="none" stroke="midnightblue" d="M76.5,-116.41C76.5,-107.87 76.5,-98.22 76.5,-89.94"/>
<polygon fill="midnightblue" stroke="midnightblue" points="80,-89.74 76.5,-79.74 73,-89.74 80,-89.74"/>
</g>
<!-- Node3 -->
<g id="node3" class="node">
<title>Node3</title>
<g id="a_node3"><a xlink:title=" ">
<polygon fill="white" stroke="#bfbfbf" points="4,-0.5 4,-21.5 65,-21.5 65,-0.5 4,-0.5"/>
<text text-anchor="middle" x="34.5" y="-7.9" font-family="Helvetica,sans-Serif" font-size="12.00">stdint.h</text>
</a>
</g>
</g>
<!-- Node2&#45;&gt;Node3 -->
<g id="edge2" class="edge">
<title>Node2&#45;&gt;Node3</title>
<path fill="none" stroke="midnightblue" d="M69.18,-58.25C63.28,-50.38 54.83,-39.1 47.74,-29.65"/>
<polygon fill="midnightblue" stroke="midnightblue" points="50.53,-27.54 41.73,-21.64 44.93,-31.74 50.53,-27.54"/>
</g>
<!-- Node4 -->
<g id="node4" class="node">
<title>Node4</title>
<g id="a_node4"><a xlink:title=" ">
<polygon fill="white" stroke="#bfbfbf" points="83,-0.5 83,-21.5 154,-21.5 154,-0.5 83,-0.5"/>
<text text-anchor="middle" x="118.5" y="-7.9" font-family="Helvetica,sans-Serif" font-size="12.00">stdbool.h</text>
</a>
</g>
</g>
<!-- Node2&#45;&gt;Node4 -->
<g id="edge3" class="edge">
<title>Node2&#45;&gt;Node4</title>
<path fill="none" stroke="midnightblue" d="M83.82,-58.25C89.72,-50.38 98.17,-39.1 105.26,-29.65"/>
<polygon fill="midnightblue" stroke="midnightblue" points="108.07,-31.74 111.27,-21.64 102.47,-27.54 108.07,-31.74"/>
</g>
</g>
</svg>
