<?xml version="1.0" encoding="UTF-8" standalone="no"?>
<!DOCTYPE svg PUBLIC "-//W3C//DTD SVG 1.1//EN"
 "http://www.w3.org/Graphics/SVG/1.1/DTD/svg11.dtd">
<!-- Generated by graphviz version 2.43.0 (0)
 -->
<!-- Title: /home/ubuntu/Desktop/repositories/learn&#45;arm/src/c/lib/source/spi.c Pages: 1 -->
<svg width="241pt" height="230pt"
 viewBox="0.00 0.00 241.00 230.00" xmlns="http://www.w3.org/2000/svg" xmlns:xlink="http://www.w3.org/1999/xlink">
<g id="graph0" class="graph" transform="scale(1 1) rotate(0) translate(4 226)">
<title>/home/ubuntu/Desktop/repositories/learn&#45;arm/src/c/lib/source/spi.c</title>
<polygon fill="white" stroke="transparent" points="-4,4 -4,-226 237,-226 237,4 -4,4"/>
<!-- Node1 -->
<g id="node1" class="node">
<title>Node1</title>
<g id="a_node1"><a xlink:title=" ">
<polygon fill="#bfbfbf" stroke="black" points="0,-174.5 0,-221.5 153,-221.5 153,-174.5 0,-174.5"/>
<text text-anchor="start" x="8" y="-207.9" font-family="Helvetica,sans-Serif" font-size="12.00">/home/ubuntu/Desktop</text>
<text text-anchor="start" x="8" y="-194.9" font-family="Helvetica,sans-Serif" font-size="12.00">/repositories/learn&#45;arm</text>
<text text-anchor="middle" x="76.5" y="-181.9" font-family="Helvetica,sans-Serif" font-size="12.00">/src/c/lib/source/spi.c</text>
</a>
</g>
</g>
<!-- Node2 -->
<g id="node2" class="node">
<title>Node2</title>
<g id="a_node2"><a xlink:title=" ">
<polygon fill="white" stroke="#bfbfbf" points="45,-0.5 45,-21.5 106,-21.5 106,-0.5 45,-0.5"/>
<text text-anchor="middle" x="75.5" y="-7.9" font-family="Helvetica,sans-Serif" font-size="12.00">stdint.h</text>
</a>
</g>
</g>
<!-- Node1&#45;&gt;Node2 -->
<g id="edge1" class="edge">
<title>Node1&#45;&gt;Node2</title>
<path fill="none" stroke="midnightblue" d="M76.03,-174.31C75.82,-163.34 75.6,-149.99 75.5,-138 75.18,-100.61 75.29,-56.98 75.4,-32.11"/>
<polygon fill="midnightblue" stroke="midnightblue" points="78.9,-31.82 75.44,-21.8 71.9,-31.79 78.9,-31.82"/>
</g>
<!-- Node3 -->
<g id="node3" class="node">
<title>Node3</title>
<g id="a_node3"><a xlink:href="../../da/d87/spi_8h.html" target="_top" xlink:title=" ">
<polygon fill="white" stroke="black" points="84.5,-116.5 84.5,-137.5 186.5,-137.5 186.5,-116.5 84.5,-116.5"/>
<text text-anchor="middle" x="135.5" y="-123.9" font-family="Helvetica,sans-Serif" font-size="12.00">../include/spi.h</text>
</a>
</g>
</g>
<!-- Node1&#45;&gt;Node3 -->
<g id="edge2" class="edge">
<title>Node1&#45;&gt;Node3</title>
<path fill="none" stroke="midnightblue" d="M95.82,-174.41C103.87,-164.99 113.07,-154.24 120.58,-145.45"/>
<polygon fill="midnightblue" stroke="midnightblue" points="123.34,-147.61 127.18,-137.74 118.02,-143.06 123.34,-147.61"/>
</g>
<!-- Node3&#45;&gt;Node2 -->
<g id="edge3" class="edge">
<title>Node3&#45;&gt;Node2</title>
<path fill="none" stroke="midnightblue" d="M124.56,-116.46C115.29,-107.81 102.3,-94.27 94.5,-80 86.24,-64.89 81.33,-45.89 78.57,-31.82"/>
<polygon fill="midnightblue" stroke="midnightblue" points="81.98,-31 76.8,-21.76 75.09,-32.21 81.98,-31"/>
</g>
<!-- Node4 -->
<g id="node4" class="node">
<title>Node4</title>
<g id="a_node4"><a xlink:title=" ">
<polygon fill="white" stroke="#bfbfbf" points="162,-0.5 162,-21.5 233,-21.5 233,-0.5 162,-0.5"/>
<text text-anchor="middle" x="197.5" y="-7.9" font-family="Helvetica,sans-Serif" font-size="12.00">stdbool.h</text>
</a>
</g>
</g>
<!-- Node3&#45;&gt;Node4 -->
<g id="edge4" class="edge">
<title>Node3&#45;&gt;Node4</title>
<path fill="none" stroke="midnightblue" d="M168.19,-116.42C185.84,-109.39 206.09,-97.89 216.5,-80 225.42,-64.68 218.2,-44.97 210.22,-30.71"/>
<polygon fill="midnightblue" stroke="midnightblue" points="212.99,-28.53 204.77,-21.84 207.02,-32.19 212.99,-28.53"/>
</g>
<!-- Node5 -->
<g id="node5" class="node">
<title>Node5</title>
<g id="a_node5"><a xlink:href="../../db/d65/rcc_8h.html" target="_top" xlink:title="This header file contains all the function declarations for the LCD module.">
<polygon fill="white" stroke="black" points="103.5,-58.5 103.5,-79.5 207.5,-79.5 207.5,-58.5 103.5,-58.5"/>
<text text-anchor="middle" x="155.5" y="-65.9" font-family="Helvetica,sans-Serif" font-size="12.00">../include/rcc.h</text>
</a>
</g>
</g>
<!-- Node3&#45;&gt;Node5 -->
<g id="edge5" class="edge">
<title>Node3&#45;&gt;Node5</title>
<path fill="none" stroke="midnightblue" d="M138.98,-116.25C141.65,-108.78 145.41,-98.24 148.67,-89.11"/>
<polygon fill="midnightblue" stroke="midnightblue" points="151.99,-90.24 152.06,-79.64 145.4,-87.88 151.99,-90.24"/>
</g>
<!-- Node5&#45;&gt;Node2 -->
<g id="edge6" class="edge">
<title>Node5&#45;&gt;Node2</title>
<path fill="none" stroke="midnightblue" d="M141.57,-58.25C129.41,-49.73 111.55,-37.24 97.47,-27.38"/>
<polygon fill="midnightblue" stroke="midnightblue" points="99.47,-24.51 89.28,-21.64 95.46,-30.24 99.47,-24.51"/>
</g>
<!-- Node5&#45;&gt;Node4 -->
<g id="edge7" class="edge">
<title>Node5&#45;&gt;Node4</title>
<path fill="none" stroke="midnightblue" d="M162.82,-58.25C168.72,-50.38 177.17,-39.1 184.26,-29.65"/>
<polygon fill="midnightblue" stroke="midnightblue" points="187.07,-31.74 190.27,-21.64 181.47,-27.54 187.07,-31.74"/>
</g>
</g>
</svg>
