<?xml version="1.0" encoding="UTF-8" standalone="no"?>
<!DOCTYPE svg PUBLIC "-//W3C//DTD SVG 1.1//EN"
 "http://www.w3.org/Graphics/SVG/1.1/DTD/svg11.dtd">
<!-- Generated by graphviz version 2.43.0 (0)
 -->
<!-- Title: /home/ubuntu/Desktop/repositories/learn&#45;arm/src/c/lib/source/systick.c Pages: 1 -->
<svg width="171pt" height="172pt"
 viewBox="0.00 0.00 171.00 172.00" xmlns="http://www.w3.org/2000/svg" xmlns:xlink="http://www.w3.org/1999/xlink">
<g id="graph0" class="graph" transform="scale(1 1) rotate(0) translate(4 168)">
<title>/home/ubuntu/Desktop/repositories/learn&#45;arm/src/c/lib/source/systick.c</title>
<polygon fill="white" stroke="transparent" points="-4,4 -4,-168 167,-168 167,4 -4,4"/>
<!-- Node1 -->
<g id="node1" class="node">
<title>Node1</title>
<g id="a_node1"><a xlink:title=" ">
<polygon fill="#bfbfbf" stroke="black" points="0,-116.5 0,-163.5 163,-163.5 163,-116.5 0,-116.5"/>
<text text-anchor="start" x="8" y="-149.9" font-family="Helvetica,sans-Serif" font-size="12.00">/home/ubuntu/Desktop</text>
<text text-anchor="start" x="8" y="-136.9" font-family="Helvetica,sans-Serif" font-size="12.00">/repositories/learn&#45;arm</text>
<text text-anchor="middle" x="81.5" y="-123.9" font-family="Helvetica,sans-Serif" font-size="12.00">/src/c/lib/source/systick.c</text>
</a>
</g>
</g>
<!-- Node2 -->
<g id="node2" class="node">
<title>Node2</title>
<g id="a_node2"><a xlink:href="../../d3/dcb/systick_8h.html" target="_top" xlink:title=" ">
<polygon fill="white" stroke="black" points="19,-58.5 19,-79.5 144,-79.5 144,-58.5 19,-58.5"/>
<text text-anchor="middle" x="81.5" y="-65.9" font-family="Helvetica,sans-Serif" font-size="12.00">../include/systick.h</text>
</a>
</g>
</g>
<!-- Node1&#45;&gt;Node2 -->
<g id="edge1" class="edge">
<title>Node1&#45;&gt;Node2</title>
<path fill="none" stroke="midnightblue" d="M81.5,-116.41C81.5,-107.87 81.5,-98.22 81.5,-89.94"/>
<polygon fill="midnightblue" stroke="midnightblue" points="85,-89.74 81.5,-79.74 78,-89.74 85,-89.74"/>
</g>
<!-- Node3 -->
<g id="node3" class="node">
<title>Node3</title>
<g id="a_node3"><a xlink:title=" ">
<polygon fill="white" stroke="#bfbfbf" points="9,-0.5 9,-21.5 70,-21.5 70,-0.5 9,-0.5"/>
<text text-anchor="middle" x="39.5" y="-7.9" font-family="Helvetica,sans-Serif" font-size="12.00">stdint.h</text>
</a>
</g>
</g>
<!-- Node2&#45;&gt;Node3 -->
<g id="edge2" class="edge">
<title>Node2&#45;&gt;Node3</title>
<path fill="none" stroke="midnightblue" d="M74.18,-58.25C68.28,-50.38 59.83,-39.1 52.74,-29.65"/>
<polygon fill="midnightblue" stroke="midnightblue" points="55.53,-27.54 46.73,-21.64 49.93,-31.74 55.53,-27.54"/>
</g>
<!-- Node4 -->
<g id="node4" class="node">
<title>Node4</title>
<g id="a_node4"><a xlink:title=" ">
<polygon fill="white" stroke="#bfbfbf" points="88,-0.5 88,-21.5 159,-21.5 159,-0.5 88,-0.5"/>
<text text-anchor="middle" x="123.5" y="-7.9" font-family="Helvetica,sans-Serif" font-size="12.00">stdbool.h</text>
</a>
</g>
</g>
<!-- Node2&#45;&gt;Node4 -->
<g id="edge3" class="edge">
<title>Node2&#45;&gt;Node4</title>
<path fill="none" stroke="midnightblue" d="M88.82,-58.25C94.72,-50.38 103.17,-39.1 110.26,-29.65"/>
<polygon fill="midnightblue" stroke="midnightblue" points="113.07,-31.74 116.27,-21.64 107.47,-27.54 113.07,-31.74"/>
</g>
</g>
</svg>
