<?xml version="1.0" encoding="UTF-8" standalone="no"?>
<!DOCTYPE svg PUBLIC "-//W3C//DTD SVG 1.1//EN"
 "http://www.w3.org/Graphics/SVG/1.1/DTD/svg11.dtd">
<!-- Generated by graphviz version 2.43.0 (0)
 -->
<!-- Title: /home/ubuntu/Desktop/repositories/learn&#45;arm/src/c/lib/include/usart.h Pages: 1 -->
<svg width="166pt" height="140pt"
 viewBox="0.00 0.00 166.00 140.00" xmlns="http://www.w3.org/2000/svg" xmlns:xlink="http://www.w3.org/1999/xlink">
<g id="graph0" class="graph" transform="scale(1 1) rotate(0) translate(4 136)">
<title>/home/ubuntu/Desktop/repositories/learn&#45;arm/src/c/lib/include/usart.h</title>
<polygon fill="white" stroke="transparent" points="-4,4 -4,-136 162,-136 162,4 -4,4"/>
<!-- Node1 -->
<g id="node1" class="node">
<title>Node1</title>
<g id="a_node1"><a xlink:title=" ">
<polygon fill="#bfbfbf" stroke="black" points="0,-84.5 0,-131.5 158,-131.5 158,-84.5 0,-84.5"/>
<text text-anchor="start" x="8" y="-117.9" font-family="Helvetica,sans-Serif" font-size="12.00">/home/ubuntu/Desktop</text>
<text text-anchor="start" x="8" y="-104.9" font-family="Helvetica,sans-Serif" font-size="12.00">/repositories/learn&#45;arm</text>
<text text-anchor="middle" x="79" y="-91.9" font-family="Helvetica,sans-Serif" font-size="12.00">/src/c/lib/include/usart.h</text>
</a>
</g>
</g>
<!-- Node2 -->
<g id="node2" class="node">
<title>Node2</title>
<g id="a_node2"><a xlink:href="../../dc/d08/usart_8c.html" target="_top" xlink:title=" ">
<polygon fill="white" stroke="black" points="2,-0.5 2,-47.5 156,-47.5 156,-0.5 2,-0.5"/>
<text text-anchor="start" x="10" y="-33.9" font-family="Helvetica,sans-Serif" font-size="12.00">/home/ubuntu/Desktop</text>
<text text-anchor="start" x="10" y="-20.9" font-family="Helvetica,sans-Serif" font-size="12.00">/repositories/learn&#45;arm</text>
<text text-anchor="middle" x="79" y="-7.9" font-family="Helvetica,sans-Serif" font-size="12.00">/src/c/lib/source/usart.c</text>
</a>
</g>
</g>
<!-- Node1&#45;&gt;Node2 -->
<g id="edge1" class="edge">
<title>Node1&#45;&gt;Node2</title>
<path fill="none" stroke="midnightblue" d="M79,-74.11C79,-65.26 79,-55.88 79,-47.72"/>
<polygon fill="midnightblue" stroke="midnightblue" points="75.5,-74.16 79,-84.16 82.5,-74.16 75.5,-74.16"/>
</g>
</g>
</svg>
