<?xml version="1.0" encoding="UTF-8" standalone="no"?>
<!DOCTYPE svg PUBLIC "-//W3C//DTD SVG 1.1//EN"
 "http://www.w3.org/Graphics/SVG/1.1/DTD/svg11.dtd">
<!-- Generated by graphviz version 2.43.0 (0)
 -->
<!-- Title: /home/ubuntu/Desktop/repositories/learn&#45;arm/src/c/lib/include/delay.h Pages: 1 -->
<svg width="449pt" height="282pt"
 viewBox="0.00 0.00 449.00 282.00" xmlns="http://www.w3.org/2000/svg" xmlns:xlink="http://www.w3.org/1999/xlink">
<g id="graph0" class="graph" transform="scale(1 1) rotate(0) translate(4 278)">
<title>/home/ubuntu/Desktop/repositories/learn&#45;arm/src/c/lib/include/delay.h</title>
<polygon fill="white" stroke="transparent" points="-4,4 -4,-278 445,-278 445,4 -4,4"/>
<!-- Node1 -->
<g id="node1" class="node">
<title>Node1</title>
<g id="a_node1"><a xlink:title="This header file contains all the function declarations for the LCD module.">
<polygon fill="#bfbfbf" stroke="black" points="84,-226.5 84,-273.5 242,-273.5 242,-226.5 84,-226.5"/>
<text text-anchor="start" x="92" y="-259.9" font-family="Helvetica,sans-Serif" font-size="12.00">/home/ubuntu/Desktop</text>
<text text-anchor="start" x="92" y="-246.9" font-family="Helvetica,sans-Serif" font-size="12.00">/repositories/learn&#45;arm</text>
<text text-anchor="middle" x="163" y="-233.9" font-family="Helvetica,sans-Serif" font-size="12.00">/src/c/lib/include/delay.h</text>
</a>
</g>
</g>
<!-- Node2 -->
<g id="node2" class="node">
<title>Node2</title>
<g id="a_node2"><a xlink:href="../../d4/dbf/main_8h.html" target="_top" xlink:title="This header file contains all the function declarations for main.">
<polygon fill="white" stroke="black" points="0,-71.5 0,-92.5 58,-92.5 58,-71.5 0,-71.5"/>
<text text-anchor="middle" x="29" y="-78.9" font-family="Helvetica,sans-Serif" font-size="12.00">main.h</text>
</a>
</g>
</g>
<!-- Node1&#45;&gt;Node2 -->
<g id="edge1" class="edge">
<title>Node1&#45;&gt;Node2</title>
<path fill="none" stroke="midnightblue" d="M85.32,-221.67C71.07,-213.48 57.66,-203.08 48,-190 25.92,-160.1 26.57,-112.86 28.04,-92.67"/>
<polygon fill="midnightblue" stroke="midnightblue" points="83.82,-224.84 94.28,-226.49 87.13,-218.67 83.82,-224.84"/>
</g>
<!-- Node4 -->
<g id="node4" class="node">
<title>Node4</title>
<g id="a_node4"><a xlink:href="../../d0/dea/jlx12864g-086_8h.html" target="_top" xlink:title="This header file contains all the function declarations for the LCD module.">
<polygon fill="white" stroke="black" points="57,-142.5 57,-189.5 269,-189.5 269,-142.5 57,-142.5"/>
<text text-anchor="start" x="65" y="-175.9" font-family="Helvetica,sans-Serif" font-size="12.00">/home/ubuntu/Desktop</text>
<text text-anchor="start" x="65" y="-162.9" font-family="Helvetica,sans-Serif" font-size="12.00">/repositories/learn&#45;arm</text>
<text text-anchor="middle" x="163" y="-149.9" font-family="Helvetica,sans-Serif" font-size="12.00">/src/c/lib/include/jlx12864g&#45;086.h</text>
</a>
</g>
</g>
<!-- Node1&#45;&gt;Node4 -->
<g id="edge3" class="edge">
<title>Node1&#45;&gt;Node4</title>
<path fill="none" stroke="midnightblue" d="M163,-216.11C163,-207.26 163,-197.88 163,-189.72"/>
<polygon fill="midnightblue" stroke="midnightblue" points="159.5,-216.16 163,-226.16 166.5,-216.16 159.5,-216.16"/>
</g>
<!-- Node6 -->
<g id="node6" class="node">
<title>Node6</title>
<g id="a_node6"><a xlink:href="../../d3/d0f/delay_8c.html" target="_top" xlink:title=" ">
<polygon fill="white" stroke="black" points="287,-142.5 287,-189.5 441,-189.5 441,-142.5 287,-142.5"/>
<text text-anchor="start" x="295" y="-175.9" font-family="Helvetica,sans-Serif" font-size="12.00">/home/ubuntu/Desktop</text>
<text text-anchor="start" x="295" y="-162.9" font-family="Helvetica,sans-Serif" font-size="12.00">/repositories/learn&#45;arm</text>
<text text-anchor="middle" x="364" y="-149.9" font-family="Helvetica,sans-Serif" font-size="12.00">/src/c/lib/source/delay.c</text>
</a>
</g>
</g>
<!-- Node1&#45;&gt;Node6 -->
<g id="edge6" class="edge">
<title>Node1&#45;&gt;Node6</title>
<path fill="none" stroke="midnightblue" d="M227.62,-222.64C253.71,-212 283.51,-199.84 308.58,-189.61"/>
<polygon fill="midnightblue" stroke="midnightblue" points="226.13,-219.47 218.19,-226.48 228.77,-225.95 226.13,-219.47"/>
</g>
<!-- Node3 -->
<g id="node3" class="node">
<title>Node3</title>
<g id="a_node3"><a xlink:href="../../d0/d29/main_8c.html" target="_top" xlink:title=" ">
<polygon fill="white" stroke="black" points="0.5,-0.5 0.5,-21.5 57.5,-21.5 57.5,-0.5 0.5,-0.5"/>
<text text-anchor="middle" x="29" y="-7.9" font-family="Helvetica,sans-Serif" font-size="12.00">main.c</text>
</a>
</g>
</g>
<!-- Node2&#45;&gt;Node3 -->
<g id="edge2" class="edge">
<title>Node2&#45;&gt;Node3</title>
<path fill="none" stroke="midnightblue" d="M29,-61.09C29,-48.08 29,-31.68 29,-21.51"/>
<polygon fill="midnightblue" stroke="midnightblue" points="25.5,-61.41 29,-71.41 32.5,-61.41 25.5,-61.41"/>
</g>
<!-- Node4&#45;&gt;Node2 -->
<g id="edge4" class="edge">
<title>Node4&#45;&gt;Node2</title>
<path fill="none" stroke="midnightblue" d="M117.31,-137.04C92.03,-121.57 62.25,-103.35 44.53,-92.5"/>
<polygon fill="midnightblue" stroke="midnightblue" points="115.67,-140.14 126.03,-142.38 119.33,-134.17 115.67,-140.14"/>
</g>
<!-- Node5 -->
<g id="node5" class="node">
<title>Node5</title>
<g id="a_node5"><a xlink:href="../../da/d22/jlx12864g-086_8c.html" target="_top" xlink:title=" ">
<polygon fill="white" stroke="black" points="76,-58.5 76,-105.5 284,-105.5 284,-58.5 76,-58.5"/>
<text text-anchor="start" x="84" y="-91.9" font-family="Helvetica,sans-Serif" font-size="12.00">/home/ubuntu/Desktop</text>
<text text-anchor="start" x="84" y="-78.9" font-family="Helvetica,sans-Serif" font-size="12.00">/repositories/learn&#45;arm</text>
<text text-anchor="middle" x="180" y="-65.9" font-family="Helvetica,sans-Serif" font-size="12.00">/src/c/lib/source/jlx12864g&#45;086.c</text>
</a>
</g>
</g>
<!-- Node4&#45;&gt;Node5 -->
<g id="edge5" class="edge">
<title>Node4&#45;&gt;Node5</title>
<path fill="none" stroke="midnightblue" d="M169.82,-132.11C171.65,-123.26 173.6,-113.88 175.29,-105.72"/>
<polygon fill="midnightblue" stroke="midnightblue" points="166.34,-131.66 167.74,-142.16 173.19,-133.08 166.34,-131.66"/>
</g>
</g>
</svg>
