<?xml version="1.0" encoding="UTF-8" standalone="no"?>
<!DOCTYPE svg PUBLIC "-//W3C//DTD SVG 1.1//EN"
 "http://www.w3.org/Graphics/SVG/1.1/DTD/svg11.dtd">
<!-- Generated by graphviz version 2.43.0 (0)
 -->
<!-- Title: /home/ubuntu/Desktop/repositories/learn&#45;arm/src/c/lib/include/systick.h Pages: 1 -->
<svg width="175pt" height="114pt"
 viewBox="0.00 0.00 175.00 114.00" xmlns="http://www.w3.org/2000/svg" xmlns:xlink="http://www.w3.org/1999/xlink">
<g id="graph0" class="graph" transform="scale(1 1) rotate(0) translate(4 110)">
<title>/home/ubuntu/Desktop/repositories/learn&#45;arm/src/c/lib/include/systick.h</title>
<polygon fill="white" stroke="transparent" points="-4,4 -4,-110 171,-110 171,4 -4,4"/>
<!-- Node1 -->
<g id="node1" class="node">
<title>Node1</title>
<g id="a_node1"><a xlink:title=" ">
<polygon fill="#bfbfbf" stroke="black" points="0,-58.5 0,-105.5 167,-105.5 167,-58.5 0,-58.5"/>
<text text-anchor="start" x="8" y="-91.9" font-family="Helvetica,sans-Serif" font-size="12.00">/home/ubuntu/Desktop</text>
<text text-anchor="start" x="8" y="-78.9" font-family="Helvetica,sans-Serif" font-size="12.00">/repositories/learn&#45;arm</text>
<text text-anchor="middle" x="83.5" y="-65.9" font-family="Helvetica,sans-Serif" font-size="12.00">/src/c/lib/include/systick.h</text>
</a>
</g>
</g>
<!-- Node2 -->
<g id="node2" class="node">
<title>Node2</title>
<g id="a_node2"><a xlink:title=" ">
<polygon fill="white" stroke="#bfbfbf" points="11,-0.5 11,-21.5 72,-21.5 72,-0.5 11,-0.5"/>
<text text-anchor="middle" x="41.5" y="-7.9" font-family="Helvetica,sans-Serif" font-size="12.00">stdint.h</text>
</a>
</g>
</g>
<!-- Node1&#45;&gt;Node2 -->
<g id="edge1" class="edge">
<title>Node1&#45;&gt;Node2</title>
<path fill="none" stroke="midnightblue" d="M69.75,-58.41C64.25,-49.38 58.01,-39.12 52.79,-30.54"/>
<polygon fill="midnightblue" stroke="midnightblue" points="55.61,-28.46 47.43,-21.74 49.64,-32.1 55.61,-28.46"/>
</g>
<!-- Node3 -->
<g id="node3" class="node">
<title>Node3</title>
<g id="a_node3"><a xlink:title=" ">
<polygon fill="white" stroke="#bfbfbf" points="90,-0.5 90,-21.5 161,-21.5 161,-0.5 90,-0.5"/>
<text text-anchor="middle" x="125.5" y="-7.9" font-family="Helvetica,sans-Serif" font-size="12.00">stdbool.h</text>
</a>
</g>
</g>
<!-- Node1&#45;&gt;Node3 -->
<g id="edge2" class="edge">
<title>Node1&#45;&gt;Node3</title>
<path fill="none" stroke="midnightblue" d="M97.25,-58.41C102.75,-49.38 108.99,-39.12 114.21,-30.54"/>
<polygon fill="midnightblue" stroke="midnightblue" points="117.36,-32.1 119.57,-21.74 111.39,-28.46 117.36,-32.1"/>
</g>
</g>
</svg>
