<?xml version="1.0" encoding="UTF-8" standalone="no"?>
<!DOCTYPE svg PUBLIC "-//W3C//DTD SVG 1.1//EN"
 "http://www.w3.org/Graphics/SVG/1.1/DTD/svg11.dtd">
<!-- Generated by graphviz version 2.43.0 (0)
 -->
<!-- Title: /home/ubuntu/Desktop/repositories/learn&#45;arm/src/c/lib Pages: 1 -->
<svg width="168pt" height="148pt"
 viewBox="0.00 0.00 168.00 148.00" xmlns="http://www.w3.org/2000/svg" xmlns:xlink="http://www.w3.org/1999/xlink">
<g id="graph0" class="graph" transform="scale(1 1) rotate(0) translate(4 144)">
<title>/home/ubuntu/Desktop/repositories/learn&#45;arm/src/c/lib</title>
<polygon fill="white" stroke="transparent" points="-4,4 -4,-144 164,-144 164,4 -4,4"/>
<g id="clust1" class="cluster">
<title>clusterdir_97aefd0d527b934f1d99a682da8fe6a9</title>
<g id="a_clust1"><a xlink:href="dir_97aefd0d527b934f1d99a682da8fe6a9.html" target="_top">
<polygon fill="#eeeeff" stroke="black" points="8,-8 8,-132 152,-132 152,-8 8,-8"/>
</a>
</g>
</g>
<!-- dir_97aefd0d527b934f1d99a682da8fe6a9 -->
<g id="node1" class="node">
<title>dir_97aefd0d527b934f1d99a682da8fe6a9</title>
<text text-anchor="middle" x="117" y="-102.9" font-family="Helvetica,sans-Serif" font-size="12.00">lib</text>
</g>
<!-- dir_5a30104352ef4255dc24354b02eb2d20 -->
<g id="node2" class="node">
<title>dir_5a30104352ef4255dc24354b02eb2d20</title>
<g id="a_node2"><a xlink:href="dir_5a30104352ef4255dc24354b02eb2d20.html" target="_top" xlink:title="include">
<polygon fill="white" stroke="black" points="75.5,-52 16.5,-52 16.5,-16 75.5,-16 75.5,-52"/>
<text text-anchor="middle" x="46" y="-30.9" font-family="Helvetica,sans-Serif" font-size="12.00">include</text>
</a>
</g>
</g>
<!-- dir_0168f04cc7dcc5a05437b4fd37c598b1 -->
<g id="node3" class="node">
<title>dir_0168f04cc7dcc5a05437b4fd37c598b1</title>
<g id="a_node3"><a xlink:href="dir_0168f04cc7dcc5a05437b4fd37c598b1.html" target="_top" xlink:title="source">
<polygon fill="white" stroke="black" points="72,-124 16,-124 16,-88 72,-88 72,-124"/>
<text text-anchor="middle" x="44" y="-102.9" font-family="Helvetica,sans-Serif" font-size="12.00">source</text>
</a>
</g>
</g>
<!-- dir_0168f04cc7dcc5a05437b4fd37c598b1&#45;&gt;dir_5a30104352ef4255dc24354b02eb2d20 -->
<g id="edge1" class="edge">
<title>dir_0168f04cc7dcc5a05437b4fd37c598b1&#45;&gt;dir_5a30104352ef4255dc24354b02eb2d20</title>
<path fill="none" stroke="black" d="M44.49,-87.7C44.71,-79.98 44.98,-70.71 45.23,-62.11"/>
<polygon fill="black" stroke="black" points="48.72,-62.2 45.51,-52.1 41.73,-62 48.72,-62.2"/>
<g id="a_edge1&#45;headlabel"><a xlink:href="dir_000002_000001.html" target="_top" xlink:title="14">
<text text-anchor="middle" x="51.46" y="-62.77" font-family="Helvetica,sans-Serif" font-size="12.00">14</text>
</a>
</g>
</g>
</g>
</svg>
