<?xml version="1.0" encoding="UTF-8" standalone="no"?>
<!DOCTYPE svg PUBLIC "-//W3C//DTD SVG 1.1//EN"
 "http://www.w3.org/Graphics/SVG/1.1/DTD/svg11.dtd">
<!-- Generated by graphviz version 2.43.0 (0)
 -->
<!-- Title: /home/ubuntu/Desktop/repositories/learn&#45;arm/src/c/lib/include/rtc.h Pages: 1 -->
<svg width="161pt" height="140pt"
 viewBox="0.00 0.00 161.00 140.00" xmlns="http://www.w3.org/2000/svg" xmlns:xlink="http://www.w3.org/1999/xlink">
<g id="graph0" class="graph" transform="scale(1 1) rotate(0) translate(4 136)">
<title>/home/ubuntu/Desktop/repositories/learn&#45;arm/src/c/lib/include/rtc.h</title>
<polygon fill="white" stroke="transparent" points="-4,4 -4,-136 157,-136 157,4 -4,4"/>
<!-- Node1 -->
<g id="node1" class="node">
<title>Node1</title>
<g id="a_node1"><a xlink:title=" ">
<polygon fill="#bfbfbf" stroke="black" points="0,-84.5 0,-131.5 153,-131.5 153,-84.5 0,-84.5"/>
<text text-anchor="start" x="8" y="-117.9" font-family="Helvetica,sans-Serif" font-size="12.00">/home/ubuntu/Desktop</text>
<text text-anchor="start" x="8" y="-104.9" font-family="Helvetica,sans-Serif" font-size="12.00">/repositories/learn&#45;arm</text>
<text text-anchor="middle" x="76.5" y="-91.9" font-family="Helvetica,sans-Serif" font-size="12.00">/src/c/lib/include/rtc.h</text>
</a>
</g>
</g>
<!-- Node2 -->
<g id="node2" class="node">
<title>Node2</title>
<g id="a_node2"><a xlink:href="../../d4/dcc/rtc_8c.html" target="_top" xlink:title=" ">
<polygon fill="white" stroke="black" points="0,-0.5 0,-47.5 153,-47.5 153,-0.5 0,-0.5"/>
<text text-anchor="start" x="8" y="-33.9" font-family="Helvetica,sans-Serif" font-size="12.00">/home/ubuntu/Desktop</text>
<text text-anchor="start" x="8" y="-20.9" font-family="Helvetica,sans-Serif" font-size="12.00">/repositories/learn&#45;arm</text>
<text text-anchor="middle" x="76.5" y="-7.9" font-family="Helvetica,sans-Serif" font-size="12.00">/src/c/lib/source/rtc.c</text>
</a>
</g>
</g>
<!-- Node1&#45;&gt;Node2 -->
<g id="edge1" class="edge">
<title>Node1&#45;&gt;Node2</title>
<path fill="none" stroke="midnightblue" d="M76.5,-74.11C76.5,-65.26 76.5,-55.88 76.5,-47.72"/>
<polygon fill="midnightblue" stroke="midnightblue" points="73,-74.16 76.5,-84.16 80,-74.16 73,-74.16"/>
</g>
</g>
</svg>
