<?xml version="1.0" encoding="UTF-8" standalone="no"?>
<!DOCTYPE svg PUBLIC "-//W3C//DTD SVG 1.1//EN"
 "http://www.w3.org/Graphics/SVG/1.1/DTD/svg11.dtd">
<!-- Generated by graphviz version 2.43.0 (0)
 -->
<!-- Title: /home/ubuntu/Desktop/repositories/learn&#45;arm/src/c/lib/include/delay.h Pages: 1 -->
<svg width="178pt" height="172pt"
 viewBox="0.00 0.00 178.00 172.00" xmlns="http://www.w3.org/2000/svg" xmlns:xlink="http://www.w3.org/1999/xlink">
<g id="graph0" class="graph" transform="scale(1 1) rotate(0) translate(4 168)">
<title>/home/ubuntu/Desktop/repositories/learn&#45;arm/src/c/lib/include/delay.h</title>
<polygon fill="white" stroke="transparent" points="-4,4 -4,-168 174,-168 174,4 -4,4"/>
<!-- Node1 -->
<g id="node1" class="node">
<title>Node1</title>
<g id="a_node1"><a xlink:title="This header file contains all the function declarations for the LCD module.">
<polygon fill="#bfbfbf" stroke="black" points="3.5,-116.5 3.5,-163.5 161.5,-163.5 161.5,-116.5 3.5,-116.5"/>
<text text-anchor="start" x="11.5" y="-149.9" font-family="Helvetica,sans-Serif" font-size="12.00">/home/ubuntu/Desktop</text>
<text text-anchor="start" x="11.5" y="-136.9" font-family="Helvetica,sans-Serif" font-size="12.00">/repositories/learn&#45;arm</text>
<text text-anchor="middle" x="82.5" y="-123.9" font-family="Helvetica,sans-Serif" font-size="12.00">/src/c/lib/include/delay.h</text>
</a>
</g>
</g>
<!-- Node2 -->
<g id="node2" class="node">
<title>Node2</title>
<g id="a_node2"><a xlink:href="../../d3/dcb/systick_8h.html" target="_top" xlink:title=" ">
<polygon fill="white" stroke="black" points="48.5,-58.5 48.5,-79.5 116.5,-79.5 116.5,-58.5 48.5,-58.5"/>
<text text-anchor="middle" x="82.5" y="-65.9" font-family="Helvetica,sans-Serif" font-size="12.00">systick.h</text>
</a>
</g>
</g>
<!-- Node1&#45;&gt;Node2 -->
<g id="edge1" class="edge">
<title>Node1&#45;&gt;Node2</title>
<path fill="none" stroke="midnightblue" d="M82.5,-116.41C82.5,-107.87 82.5,-98.22 82.5,-89.94"/>
<polygon fill="midnightblue" stroke="midnightblue" points="86,-89.74 82.5,-79.74 79,-89.74 86,-89.74"/>
</g>
<!-- Node3 -->
<g id="node3" class="node">
<title>Node3</title>
<g id="a_node3"><a xlink:title=" ">
<polygon fill="white" stroke="#bfbfbf" points="0,-0.5 0,-21.5 61,-21.5 61,-0.5 0,-0.5"/>
<text text-anchor="middle" x="30.5" y="-7.9" font-family="Helvetica,sans-Serif" font-size="12.00">stdint.h</text>
</a>
</g>
</g>
<!-- Node1&#45;&gt;Node3 -->
<g id="edge4" class="edge">
<title>Node1&#45;&gt;Node3</title>
<path fill="none" stroke="midnightblue" d="M61.77,-116.23C53.51,-105.89 44.73,-93.06 39.5,-80 33.35,-64.63 31.22,-45.89 30.57,-31.98"/>
<polygon fill="midnightblue" stroke="midnightblue" points="34.06,-31.52 30.3,-21.61 27.06,-31.7 34.06,-31.52"/>
</g>
<!-- Node4 -->
<g id="node4" class="node">
<title>Node4</title>
<g id="a_node4"><a xlink:title=" ">
<polygon fill="white" stroke="#bfbfbf" points="99,-0.5 99,-21.5 170,-21.5 170,-0.5 99,-0.5"/>
<text text-anchor="middle" x="134.5" y="-7.9" font-family="Helvetica,sans-Serif" font-size="12.00">stdbool.h</text>
</a>
</g>
</g>
<!-- Node1&#45;&gt;Node4 -->
<g id="edge5" class="edge">
<title>Node1&#45;&gt;Node4</title>
<path fill="none" stroke="midnightblue" d="M103.23,-116.23C111.49,-105.89 120.27,-93.06 125.5,-80 131.65,-64.63 133.78,-45.89 134.43,-31.98"/>
<polygon fill="midnightblue" stroke="midnightblue" points="137.94,-31.7 134.7,-21.61 130.94,-31.52 137.94,-31.7"/>
</g>
<!-- Node2&#45;&gt;Node3 -->
<g id="edge2" class="edge">
<title>Node2&#45;&gt;Node3</title>
<path fill="none" stroke="midnightblue" d="M73.44,-58.25C65.99,-50.22 55.24,-38.64 46.36,-29.08"/>
<polygon fill="midnightblue" stroke="midnightblue" points="48.82,-26.59 39.45,-21.64 43.69,-31.35 48.82,-26.59"/>
</g>
<!-- Node2&#45;&gt;Node4 -->
<g id="edge3" class="edge">
<title>Node2&#45;&gt;Node4</title>
<path fill="none" stroke="midnightblue" d="M91.56,-58.25C99.01,-50.22 109.76,-38.64 118.64,-29.08"/>
<polygon fill="midnightblue" stroke="midnightblue" points="121.31,-31.35 125.55,-21.64 116.18,-26.59 121.31,-31.35"/>
</g>
</g>
</svg>
