<?xml version="1.0" encoding="UTF-8" standalone="no"?>
<!DOCTYPE svg PUBLIC "-//W3C//DTD SVG 1.1//EN"
 "http://www.w3.org/Graphics/SVG/1.1/DTD/svg11.dtd">
<!-- Generated by graphviz version 2.43.0 (0)
 -->
<!-- Title: setCursor Pages: 1 -->
<svg width="414pt" height="190pt"
 viewBox="0.00 0.00 414.00 190.00" xmlns="http://www.w3.org/2000/svg" xmlns:xlink="http://www.w3.org/1999/xlink">
<g id="graph0" class="graph" transform="scale(1 1) rotate(0) translate(4 186)">
<title>setCursor</title>
<polygon fill="white" stroke="transparent" points="-4,4 -4,-186 410,-186 410,4 -4,4"/>
<!-- Node1 -->
<g id="node1" class="node">
<title>Node1</title>
<g id="a_node1"><a xlink:title="Set the cursor position.">
<polygon fill="#bfbfbf" stroke="black" points="0,-80.5 0,-101.5 74,-101.5 74,-80.5 0,-80.5"/>
<text text-anchor="middle" x="37" y="-87.9" font-family="Helvetica,sans-Serif" font-size="12.00">setCursor</text>
</a>
</g>
</g>
<!-- Node2 -->
<g id="node2" class="node">
<title>Node2</title>
<g id="a_node2"><a xlink:href="../../da/d22/jlx12864g-086_8c.html#a4bcd441113fe3b80f49fcc53a4866ec9" target="_top" xlink:title="Send a command byte to the LCD This function sends a configuration command to the LCD module.">
<polygon fill="white" stroke="black" points="110,-80.5 110,-101.5 183,-101.5 183,-80.5 110,-80.5"/>
<text text-anchor="middle" x="146.5" y="-87.9" font-family="Helvetica,sans-Serif" font-size="12.00">sendCMD</text>
</a>
</g>
</g>
<!-- Node1&#45;&gt;Node2 -->
<g id="edge1" class="edge">
<title>Node1&#45;&gt;Node2</title>
<path fill="none" stroke="midnightblue" d="M74.09,-91C82.25,-91 91.01,-91 99.51,-91"/>
<polygon fill="midnightblue" stroke="midnightblue" points="99.68,-94.5 109.68,-91 99.68,-87.5 99.68,-94.5"/>
</g>
<!-- Node3 -->
<g id="node3" class="node">
<title>Node3</title>
<g id="a_node3"><a xlink:href="../../da/d87/spi_8h.html#a05761991907a0a790f1cc63f6b7bc3ea" target="_top" xlink:title=" ">
<polygon fill="white" stroke="black" points="221.5,-160.5 221.5,-181.5 298.5,-181.5 298.5,-160.5 221.5,-160.5"/>
<text text-anchor="middle" x="260" y="-167.9" font-family="Helvetica,sans-Serif" font-size="12.00">disableSPI</text>
</a>
</g>
</g>
<!-- Node2&#45;&gt;Node3 -->
<g id="edge2" class="edge">
<title>Node2&#45;&gt;Node3</title>
<path fill="none" stroke="midnightblue" d="M158.49,-101.65C172,-114.38 195.97,-135.88 219,-151 221.43,-152.6 224.01,-154.16 226.64,-155.65"/>
<polygon fill="midnightblue" stroke="midnightblue" points="225.17,-158.84 235.64,-160.47 228.48,-152.67 225.17,-158.84"/>
</g>
<!-- Node4 -->
<g id="node4" class="node">
<title>Node4</title>
<g id="a_node4"><a xlink:href="../../da/d87/spi_8h.html#a912b1538af2fc99addc1bbecc6040428" target="_top" xlink:title=" ">
<polygon fill="white" stroke="black" points="222,-120.5 222,-141.5 298,-141.5 298,-120.5 222,-120.5"/>
<text text-anchor="middle" x="260" y="-127.9" font-family="Helvetica,sans-Serif" font-size="12.00">enableSPI</text>
</a>
</g>
</g>
<!-- Node2&#45;&gt;Node4 -->
<g id="edge3" class="edge">
<title>Node2&#45;&gt;Node4</title>
<path fill="none" stroke="midnightblue" d="M176.8,-101.51C190.01,-106.25 205.8,-111.91 219.99,-117.01"/>
<polygon fill="midnightblue" stroke="midnightblue" points="218.92,-120.34 229.51,-120.42 221.28,-113.75 218.92,-120.34"/>
</g>
<!-- Node5 -->
<g id="node5" class="node">
<title>Node5</title>
<g id="a_node5"><a xlink:href="../../da/d87/spi_8h.html#ac0943c7fba40ce2bcaca8935419a44b0" target="_top" xlink:title=" ">
<polygon fill="white" stroke="black" points="230.5,-80.5 230.5,-101.5 289.5,-101.5 289.5,-80.5 230.5,-80.5"/>
<text text-anchor="middle" x="260" y="-87.9" font-family="Helvetica,sans-Serif" font-size="12.00">getTXE</text>
</a>
</g>
</g>
<!-- Node2&#45;&gt;Node5 -->
<g id="edge4" class="edge">
<title>Node2&#45;&gt;Node5</title>
<path fill="none" stroke="midnightblue" d="M183.09,-91C194.92,-91 208.15,-91 220.21,-91"/>
<polygon fill="midnightblue" stroke="midnightblue" points="220.44,-94.5 230.44,-91 220.44,-87.5 220.44,-94.5"/>
</g>
<!-- Node6 -->
<g id="node6" class="node">
<title>Node6</title>
<g id="a_node6"><a xlink:href="../../d6/d7c/gpio_8h.html#a8fb639edaa0779019761b860827fc20c" target="_top" xlink:title=" ">
<polygon fill="white" stroke="black" points="227,-40.5 227,-61.5 293,-61.5 293,-40.5 227,-40.5"/>
<text text-anchor="middle" x="260" y="-47.9" font-family="Helvetica,sans-Serif" font-size="12.00">pinState</text>
</a>
</g>
</g>
<!-- Node2&#45;&gt;Node6 -->
<g id="edge5" class="edge">
<title>Node2&#45;&gt;Node6</title>
<path fill="none" stroke="midnightblue" d="M176.8,-80.49C190.01,-75.75 205.8,-70.09 219.99,-64.99"/>
<polygon fill="midnightblue" stroke="midnightblue" points="221.28,-68.25 229.51,-61.58 218.92,-61.66 221.28,-68.25"/>
</g>
<!-- Node7 -->
<g id="node7" class="node">
<title>Node7</title>
<g id="a_node7"><a xlink:href="../../da/d87/spi_8h.html#aac2bc42beebc5041e10a7cb1c1d9b5d8" target="_top" xlink:title=" ">
<polygon fill="white" stroke="black" points="219,-0.5 219,-21.5 301,-21.5 301,-0.5 219,-0.5"/>
<text text-anchor="middle" x="260" y="-7.9" font-family="Helvetica,sans-Serif" font-size="12.00">spiTransfer</text>
</a>
</g>
</g>
<!-- Node2&#45;&gt;Node7 -->
<g id="edge6" class="edge">
<title>Node2&#45;&gt;Node7</title>
<path fill="none" stroke="midnightblue" d="M158.49,-80.35C172,-67.62 195.97,-46.12 219,-31 221.43,-29.4 224.01,-27.84 226.64,-26.35"/>
<polygon fill="midnightblue" stroke="midnightblue" points="228.48,-29.33 235.64,-21.53 225.17,-23.16 228.48,-29.33"/>
</g>
<!-- Node8 -->
<g id="node8" class="node">
<title>Node8</title>
<g id="a_node8"><a xlink:href="../../da/d00/spi_8c.html#a560be65d4526c611eb5eb6845401108b" target="_top" xlink:title=" ">
<polygon fill="white" stroke="black" points="337,-0.5 337,-21.5 406,-21.5 406,-0.5 337,-0.5"/>
<text text-anchor="middle" x="371.5" y="-7.9" font-family="Helvetica,sans-Serif" font-size="12.00">getRXNE</text>
</a>
</g>
</g>
<!-- Node7&#45;&gt;Node8 -->
<g id="edge7" class="edge">
<title>Node7&#45;&gt;Node8</title>
<path fill="none" stroke="midnightblue" d="M301.15,-11C309.48,-11 318.3,-11 326.75,-11"/>
<polygon fill="midnightblue" stroke="midnightblue" points="326.83,-14.5 336.83,-11 326.83,-7.5 326.83,-14.5"/>
</g>
</g>
</svg>
