<?xml version="1.0" encoding="UTF-8" standalone="no"?>
<!DOCTYPE svg PUBLIC "-//W3C//DTD SVG 1.1//EN"
 "http://www.w3.org/Graphics/SVG/1.1/DTD/svg11.dtd">
<!-- Generated by graphviz version 2.43.0 (0)
 -->
<!-- Title: setDisplayState Pages: 1 -->
<svg width="338pt" height="30pt"
 viewBox="0.00 0.00 338.00 30.00" xmlns="http://www.w3.org/2000/svg" xmlns:xlink="http://www.w3.org/1999/xlink">
<g id="graph0" class="graph" transform="scale(1 1) rotate(0) translate(4 26)">
<title>setDisplayState</title>
<polygon fill="white" stroke="transparent" points="-4,4 -4,-26 334,-26 334,4 -4,4"/>
<!-- Node1 -->
<g id="node1" class="node">
<title>Node1</title>
<g id="a_node1"><a xlink:title="Sets the display state.">
<polygon fill="#bfbfbf" stroke="black" points="0,-0.5 0,-21.5 109,-21.5 109,-0.5 0,-0.5"/>
<text text-anchor="middle" x="54.5" y="-7.9" font-family="Helvetica,sans-Serif" font-size="12.00">setDisplayState</text>
</a>
</g>
</g>
<!-- Node2 -->
<g id="node2" class="node">
<title>Node2</title>
<g id="a_node2"><a xlink:href="../../da/d22/jlx12864g-086_8c.html#a4bcd441113fe3b80f49fcc53a4866ec9" target="_top" xlink:title="Send a command byte to the LCD This function sends a configuration command to the LCD module.">
<polygon fill="white" stroke="black" points="145,-0.5 145,-21.5 218,-21.5 218,-0.5 145,-0.5"/>
<text text-anchor="middle" x="181.5" y="-7.9" font-family="Helvetica,sans-Serif" font-size="12.00">sendCMD</text>
</a>
</g>
</g>
<!-- Node1&#45;&gt;Node2 -->
<g id="edge1" class="edge">
<title>Node1&#45;&gt;Node2</title>
<path fill="none" stroke="midnightblue" d="M109.24,-11C117.7,-11 126.39,-11 134.66,-11"/>
<polygon fill="midnightblue" stroke="midnightblue" points="134.86,-14.5 144.86,-11 134.86,-7.5 134.86,-14.5"/>
</g>
<!-- Node3 -->
<g id="node3" class="node">
<title>Node3</title>
<g id="a_node3"><a xlink:href="../../da/d87/spi_8h.html#a912b1538af2fc99addc1bbecc6040428" target="_top" xlink:title=" ">
<polygon fill="white" stroke="black" points="254,-0.5 254,-21.5 330,-21.5 330,-0.5 254,-0.5"/>
<text text-anchor="middle" x="292" y="-7.9" font-family="Helvetica,sans-Serif" font-size="12.00">enableSPI</text>
</a>
</g>
</g>
<!-- Node2&#45;&gt;Node3 -->
<g id="edge2" class="edge">
<title>Node2&#45;&gt;Node3</title>
<path fill="none" stroke="midnightblue" d="M218.03,-11C226.29,-11 235.21,-11 243.89,-11"/>
<polygon fill="midnightblue" stroke="midnightblue" points="243.9,-14.5 253.9,-11 243.9,-7.5 243.9,-14.5"/>
</g>
</g>
</svg>
