<?xml version="1.0" encoding="UTF-8" standalone="no"?>
<!DOCTYPE svg PUBLIC "-//W3C//DTD SVG 1.1//EN"
 "http://www.w3.org/Graphics/SVG/1.1/DTD/svg11.dtd">
<!-- Generated by graphviz version 2.43.0 (0)
 -->
<!-- Title: clearScreen Pages: 1 -->
<svg width="539pt" height="190pt"
 viewBox="0.00 0.00 539.00 190.00" xmlns="http://www.w3.org/2000/svg" xmlns:xlink="http://www.w3.org/1999/xlink">
<g id="graph0" class="graph" transform="scale(1 1) rotate(0) translate(4 186)">
<title>clearScreen</title>
<polygon fill="white" stroke="transparent" points="-4,4 -4,-186 535,-186 535,4 -4,4"/>
<!-- Node1 -->
<g id="node1" class="node">
<title>Node1</title>
<g id="a_node1"><a xlink:title="Clears the LCD screen.">
<polygon fill="#bfbfbf" stroke="black" points="0,-79.5 0,-100.5 88,-100.5 88,-79.5 0,-79.5"/>
<text text-anchor="middle" x="44" y="-86.9" font-family="Helvetica,sans-Serif" font-size="12.00">clearScreen</text>
</a>
</g>
</g>
<!-- Node2 -->
<g id="node2" class="node">
<title>Node2</title>
<g id="a_node2"><a xlink:href="../../da/d22/jlx12864g-086_8c.html#a6934a89cb69fffa73b88b30bec551480" target="_top" xlink:title="Sends a byte of data to LCD This function trabsfers a byte of data to the LCD via the serial interfac...">
<polygon fill="white" stroke="black" points="234,-100.5 234,-121.5 308,-121.5 308,-100.5 234,-100.5"/>
<text text-anchor="middle" x="271" y="-107.9" font-family="Helvetica,sans-Serif" font-size="12.00">sendData</text>
</a>
</g>
</g>
<!-- Node1&#45;&gt;Node2 -->
<g id="edge1" class="edge">
<title>Node1&#45;&gt;Node2</title>
<path fill="none" stroke="midnightblue" d="M88.12,-94.02C126.97,-97.65 183.94,-102.97 223.74,-106.68"/>
<polygon fill="midnightblue" stroke="midnightblue" points="223.43,-110.17 233.71,-107.61 224.08,-103.2 223.43,-110.17"/>
</g>
<!-- Node9 -->
<g id="node9" class="node">
<title>Node9</title>
<g id="a_node9"><a xlink:href="../../da/d22/jlx12864g-086_8c.html#a4be1c34ab03ed296adfc1f8112bb5a96" target="_top" xlink:title="Set the cursor position.">
<polygon fill="white" stroke="black" points="124,-60.5 124,-81.5 198,-81.5 198,-60.5 124,-60.5"/>
<text text-anchor="middle" x="161" y="-67.9" font-family="Helvetica,sans-Serif" font-size="12.00">setCursor</text>
</a>
</g>
</g>
<!-- Node1&#45;&gt;Node9 -->
<g id="edge8" class="edge">
<title>Node1&#45;&gt;Node9</title>
<path fill="none" stroke="midnightblue" d="M88.15,-82.87C96.49,-81.49 105.25,-80.05 113.69,-78.65"/>
<polygon fill="midnightblue" stroke="midnightblue" points="114.46,-82.07 123.76,-76.99 113.32,-75.17 114.46,-82.07"/>
</g>
<!-- Node3 -->
<g id="node3" class="node">
<title>Node3</title>
<g id="a_node3"><a xlink:href="../../da/d87/spi_8h.html#a05761991907a0a790f1cc63f6b7bc3ea" target="_top" xlink:title=" ">
<polygon fill="white" stroke="black" points="346.5,-120.5 346.5,-141.5 423.5,-141.5 423.5,-120.5 346.5,-120.5"/>
<text text-anchor="middle" x="385" y="-127.9" font-family="Helvetica,sans-Serif" font-size="12.00">disableSPI</text>
</a>
</g>
</g>
<!-- Node2&#45;&gt;Node3 -->
<g id="edge2" class="edge">
<title>Node2&#45;&gt;Node3</title>
<path fill="none" stroke="midnightblue" d="M308.05,-117.44C317.07,-119.05 326.88,-120.8 336.36,-122.49"/>
<polygon fill="midnightblue" stroke="midnightblue" points="336.01,-125.99 346.47,-124.3 337.24,-119.1 336.01,-125.99"/>
</g>
<!-- Node4 -->
<g id="node4" class="node">
<title>Node4</title>
<g id="a_node4"><a xlink:href="../../da/d87/spi_8h.html#a912b1538af2fc99addc1bbecc6040428" target="_top" xlink:title=" ">
<polygon fill="white" stroke="black" points="347,-80.5 347,-101.5 423,-101.5 423,-80.5 347,-80.5"/>
<text text-anchor="middle" x="385" y="-87.9" font-family="Helvetica,sans-Serif" font-size="12.00">enableSPI</text>
</a>
</g>
</g>
<!-- Node2&#45;&gt;Node4 -->
<g id="edge3" class="edge">
<title>Node2&#45;&gt;Node4</title>
<path fill="none" stroke="midnightblue" d="M308.05,-104.56C317.26,-102.92 327.3,-101.13 336.97,-99.4"/>
<polygon fill="midnightblue" stroke="midnightblue" points="337.63,-102.84 346.86,-97.63 336.4,-95.94 337.63,-102.84"/>
</g>
<!-- Node5 -->
<g id="node5" class="node">
<title>Node5</title>
<g id="a_node5"><a xlink:href="../../da/d87/spi_8h.html#ac0943c7fba40ce2bcaca8935419a44b0" target="_top" xlink:title=" ">
<polygon fill="white" stroke="black" points="355.5,-40.5 355.5,-61.5 414.5,-61.5 414.5,-40.5 355.5,-40.5"/>
<text text-anchor="middle" x="385" y="-47.9" font-family="Helvetica,sans-Serif" font-size="12.00">getTXE</text>
</a>
</g>
</g>
<!-- Node2&#45;&gt;Node5 -->
<g id="edge4" class="edge">
<title>Node2&#45;&gt;Node5</title>
<path fill="none" stroke="midnightblue" d="M291.06,-100.4C312.17,-88.67 343.33,-71.35 344,-71 346.95,-69.44 350.04,-67.84 353.14,-66.26"/>
<polygon fill="midnightblue" stroke="midnightblue" points="354.97,-69.26 362.32,-61.62 351.82,-63.01 354.97,-69.26"/>
</g>
<!-- Node6 -->
<g id="node6" class="node">
<title>Node6</title>
<g id="a_node6"><a xlink:href="../../d6/d7c/gpio_8h.html#a8fb639edaa0779019761b860827fc20c" target="_top" xlink:title=" ">
<polygon fill="white" stroke="black" points="352,-0.5 352,-21.5 418,-21.5 418,-0.5 352,-0.5"/>
<text text-anchor="middle" x="385" y="-7.9" font-family="Helvetica,sans-Serif" font-size="12.00">pinState</text>
</a>
</g>
</g>
<!-- Node2&#45;&gt;Node6 -->
<g id="edge5" class="edge">
<title>Node2&#45;&gt;Node6</title>
<path fill="none" stroke="midnightblue" d="M295.32,-100.4C299.83,-97.73 304.3,-94.58 308,-91 330.35,-69.38 321.18,-52.13 344,-31 345.45,-29.65 347.01,-28.38 348.64,-27.17"/>
<polygon fill="midnightblue" stroke="midnightblue" points="350.67,-30.03 357.23,-21.71 346.92,-24.12 350.67,-30.03"/>
</g>
<!-- Node7 -->
<g id="node7" class="node">
<title>Node7</title>
<g id="a_node7"><a xlink:href="../../da/d87/spi_8h.html#aac2bc42beebc5041e10a7cb1c1d9b5d8" target="_top" xlink:title=" ">
<polygon fill="white" stroke="black" points="344,-160.5 344,-181.5 426,-181.5 426,-160.5 344,-160.5"/>
<text text-anchor="middle" x="385" y="-167.9" font-family="Helvetica,sans-Serif" font-size="12.00">spiTransfer</text>
</a>
</g>
</g>
<!-- Node2&#45;&gt;Node7 -->
<g id="edge6" class="edge">
<title>Node2&#45;&gt;Node7</title>
<path fill="none" stroke="midnightblue" d="M290.53,-121.58C305,-129.78 325.66,-141.33 344,-151 346.95,-152.56 350.04,-154.16 353.14,-155.74"/>
<polygon fill="midnightblue" stroke="midnightblue" points="351.82,-158.99 362.32,-160.38 354.97,-152.74 351.82,-158.99"/>
</g>
<!-- Node8 -->
<g id="node8" class="node">
<title>Node8</title>
<g id="a_node8"><a xlink:href="../../da/d00/spi_8c.html#a560be65d4526c611eb5eb6845401108b" target="_top" xlink:title=" ">
<polygon fill="white" stroke="black" points="462,-160.5 462,-181.5 531,-181.5 531,-160.5 462,-160.5"/>
<text text-anchor="middle" x="496.5" y="-167.9" font-family="Helvetica,sans-Serif" font-size="12.00">getRXNE</text>
</a>
</g>
</g>
<!-- Node7&#45;&gt;Node8 -->
<g id="edge7" class="edge">
<title>Node7&#45;&gt;Node8</title>
<path fill="none" stroke="midnightblue" d="M426.15,-171C434.48,-171 443.3,-171 451.75,-171"/>
<polygon fill="midnightblue" stroke="midnightblue" points="451.83,-174.5 461.83,-171 451.83,-167.5 451.83,-174.5"/>
</g>
<!-- Node10 -->
<g id="node10" class="node">
<title>Node10</title>
<g id="a_node10"><a xlink:href="../../da/d22/jlx12864g-086_8c.html#a4bcd441113fe3b80f49fcc53a4866ec9" target="_top" xlink:title="Send a command byte to the LCD This function sends a configuration command to the LCD module.">
<polygon fill="white" stroke="black" points="234.5,-60.5 234.5,-81.5 307.5,-81.5 307.5,-60.5 234.5,-60.5"/>
<text text-anchor="middle" x="271" y="-67.9" font-family="Helvetica,sans-Serif" font-size="12.00">sendCMD</text>
</a>
</g>
</g>
<!-- Node9&#45;&gt;Node10 -->
<g id="edge9" class="edge">
<title>Node9&#45;&gt;Node10</title>
<path fill="none" stroke="midnightblue" d="M198.26,-71C206.63,-71 215.64,-71 224.35,-71"/>
<polygon fill="midnightblue" stroke="midnightblue" points="224.38,-74.5 234.38,-71 224.38,-67.5 224.38,-74.5"/>
</g>
<!-- Node10&#45;&gt;Node3 -->
<g id="edge10" class="edge">
<title>Node10&#45;&gt;Node3</title>
<path fill="none" stroke="midnightblue" d="M291.06,-81.6C312.17,-93.33 343.33,-110.65 344,-111 346.95,-112.56 350.04,-114.16 353.14,-115.74"/>
<polygon fill="midnightblue" stroke="midnightblue" points="351.82,-118.99 362.32,-120.38 354.97,-112.74 351.82,-118.99"/>
</g>
<!-- Node10&#45;&gt;Node4 -->
<g id="edge11" class="edge">
<title>Node10&#45;&gt;Node4</title>
<path fill="none" stroke="midnightblue" d="M307.75,-77.38C316.96,-79.03 327.03,-80.83 336.73,-82.56"/>
<polygon fill="midnightblue" stroke="midnightblue" points="336.21,-86.02 346.67,-84.33 337.44,-79.13 336.21,-86.02"/>
</g>
<!-- Node10&#45;&gt;Node5 -->
<g id="edge12" class="edge">
<title>Node10&#45;&gt;Node5</title>
<path fill="none" stroke="midnightblue" d="M307.75,-64.62C319.75,-62.47 333.19,-60.07 345.4,-57.89"/>
<polygon fill="midnightblue" stroke="midnightblue" points="346.08,-61.33 355.31,-56.12 344.85,-54.44 346.08,-61.33"/>
</g>
<!-- Node10&#45;&gt;Node6 -->
<g id="edge13" class="edge">
<title>Node10&#45;&gt;Node6</title>
<path fill="none" stroke="midnightblue" d="M290.53,-60.42C305,-52.22 325.66,-40.67 344,-31 346.95,-29.44 350.04,-27.84 353.14,-26.26"/>
<polygon fill="midnightblue" stroke="midnightblue" points="354.97,-29.26 362.32,-21.62 351.82,-23.01 354.97,-29.26"/>
</g>
<!-- Node10&#45;&gt;Node7 -->
<g id="edge14" class="edge">
<title>Node10&#45;&gt;Node7</title>
<path fill="none" stroke="midnightblue" d="M295.32,-81.6C299.83,-84.27 304.3,-87.42 308,-91 330.35,-112.62 321.18,-129.87 344,-151 345.45,-152.35 347.01,-153.62 348.64,-154.83"/>
<polygon fill="midnightblue" stroke="midnightblue" points="346.92,-157.88 357.23,-160.29 350.67,-151.97 346.92,-157.88"/>
</g>
</g>
</svg>
