<?xml version="1.0" encoding="UTF-8" standalone="no"?>
<!DOCTYPE svg PUBLIC "-//W3C//DTD SVG 1.1//EN"
 "http://www.w3.org/Graphics/SVG/1.1/DTD/svg11.dtd">
<!-- Generated by graphviz version 2.43.0 (0)
 -->
<!-- Title: main.c Pages: 1 -->
<svg width="772pt" height="146pt"
 viewBox="0.00 0.00 771.50 146.00" xmlns="http://www.w3.org/2000/svg" xmlns:xlink="http://www.w3.org/1999/xlink">
<g id="graph0" class="graph" transform="scale(1 1) rotate(0) translate(4 142)">
<title>main.c</title>
<polygon fill="white" stroke="transparent" points="-4,4 -4,-142 767.5,-142 767.5,4 -4,4"/>
<!-- Node1 -->
<g id="node1" class="node">
<title>Node1</title>
<g id="a_node1"><a xlink:title=" ">
<polygon fill="#bfbfbf" stroke="black" points="375,-116.5 375,-137.5 432,-137.5 432,-116.5 375,-116.5"/>
<text text-anchor="middle" x="403.5" y="-123.9" font-family="Helvetica,sans-Serif" font-size="12.00">main.c</text>
</a>
</g>
</g>
<!-- Node2 -->
<g id="node2" class="node">
<title>Node2</title>
<g id="a_node2"><a xlink:href="../../d4/dbf/main_8h.html" target="_top" xlink:title="This header file contains all the function declarations for main.">
<polygon fill="white" stroke="black" points="374.5,-58.5 374.5,-79.5 432.5,-79.5 432.5,-58.5 374.5,-58.5"/>
<text text-anchor="middle" x="403.5" y="-65.9" font-family="Helvetica,sans-Serif" font-size="12.00">main.h</text>
</a>
</g>
</g>
<!-- Node1&#45;&gt;Node2 -->
<g id="edge1" class="edge">
<title>Node1&#45;&gt;Node2</title>
<path fill="none" stroke="midnightblue" d="M403.5,-116.25C403.5,-108.94 403.5,-98.69 403.5,-89.7"/>
<polygon fill="midnightblue" stroke="midnightblue" points="407,-89.64 403.5,-79.64 400,-89.64 407,-89.64"/>
</g>
<!-- Node3 -->
<g id="node3" class="node">
<title>Node3</title>
<g id="a_node3"><a xlink:title=" ">
<polygon fill="white" stroke="#bfbfbf" points="0,-0.5 0,-21.5 61,-21.5 61,-0.5 0,-0.5"/>
<text text-anchor="middle" x="30.5" y="-7.9" font-family="Helvetica,sans-Serif" font-size="12.00">stdint.h</text>
</a>
</g>
</g>
<!-- Node2&#45;&gt;Node3 -->
<g id="edge2" class="edge">
<title>Node2&#45;&gt;Node3</title>
<path fill="none" stroke="midnightblue" d="M374.28,-65.11C317.57,-59.26 188.53,-44.76 70.97,-22.12"/>
<polygon fill="midnightblue" stroke="midnightblue" points="71.57,-18.67 61.08,-20.19 70.23,-25.54 71.57,-18.67"/>
</g>
<!-- Node4 -->
<g id="node4" class="node">
<title>Node4</title>
<g id="a_node4"><a xlink:title=" ">
<polygon fill="white" stroke="#bfbfbf" points="79,-0.5 79,-21.5 192,-21.5 192,-0.5 79,-0.5"/>
<text text-anchor="middle" x="135.5" y="-7.9" font-family="Helvetica,sans-Serif" font-size="12.00">jlx12864g&#45;086.h</text>
</a>
</g>
</g>
<!-- Node2&#45;&gt;Node4 -->
<g id="edge3" class="edge">
<title>Node2&#45;&gt;Node4</title>
<path fill="none" stroke="midnightblue" d="M374.31,-61.9C330.5,-52.75 246.97,-35.29 191.24,-23.65"/>
<polygon fill="midnightblue" stroke="midnightblue" points="191.67,-20.16 181.17,-21.54 190.24,-27.01 191.67,-20.16"/>
</g>
<!-- Node5 -->
<g id="node5" class="node">
<title>Node5</title>
<g id="a_node5"><a xlink:title=" ">
<polygon fill="white" stroke="#bfbfbf" points="210.5,-0.5 210.5,-21.5 266.5,-21.5 266.5,-0.5 210.5,-0.5"/>
<text text-anchor="middle" x="238.5" y="-7.9" font-family="Helvetica,sans-Serif" font-size="12.00">flash.h</text>
</a>
</g>
</g>
<!-- Node2&#45;&gt;Node5 -->
<g id="edge4" class="edge">
<title>Node2&#45;&gt;Node5</title>
<path fill="none" stroke="midnightblue" d="M375.14,-58.37C347.82,-49.1 306.32,-35.02 276.23,-24.8"/>
<polygon fill="midnightblue" stroke="midnightblue" points="277.09,-21.4 266.49,-21.5 274.84,-28.03 277.09,-21.4"/>
</g>
<!-- Node6 -->
<g id="node6" class="node">
<title>Node6</title>
<g id="a_node6"><a xlink:title=" ">
<polygon fill="white" stroke="#bfbfbf" points="284.5,-0.5 284.5,-21.5 330.5,-21.5 330.5,-0.5 284.5,-0.5"/>
<text text-anchor="middle" x="307.5" y="-7.9" font-family="Helvetica,sans-Serif" font-size="12.00">rcc.h</text>
</a>
</g>
</g>
<!-- Node2&#45;&gt;Node6 -->
<g id="edge5" class="edge">
<title>Node2&#45;&gt;Node6</title>
<path fill="none" stroke="midnightblue" d="M386.78,-58.25C371.91,-49.57 349.95,-36.76 332.91,-26.82"/>
<polygon fill="midnightblue" stroke="midnightblue" points="334.43,-23.66 324.03,-21.64 330.9,-29.7 334.43,-23.66"/>
</g>
<!-- Node7 -->
<g id="node7" class="node">
<title>Node7</title>
<g id="a_node7"><a xlink:title=" ">
<polygon fill="white" stroke="#bfbfbf" points="348.5,-0.5 348.5,-21.5 392.5,-21.5 392.5,-0.5 348.5,-0.5"/>
<text text-anchor="middle" x="370.5" y="-7.9" font-family="Helvetica,sans-Serif" font-size="12.00">spi.h</text>
</a>
</g>
</g>
<!-- Node2&#45;&gt;Node7 -->
<g id="edge6" class="edge">
<title>Node2&#45;&gt;Node7</title>
<path fill="none" stroke="midnightblue" d="M397.75,-58.25C393.26,-50.62 386.88,-39.79 381.42,-30.53"/>
<polygon fill="midnightblue" stroke="midnightblue" points="384.27,-28.48 376.18,-21.64 378.24,-32.04 384.27,-28.48"/>
</g>
<!-- Node8 -->
<g id="node8" class="node">
<title>Node8</title>
<g id="a_node8"><a xlink:title=" ">
<polygon fill="white" stroke="#bfbfbf" points="411,-0.5 411,-21.5 464,-21.5 464,-0.5 411,-0.5"/>
<text text-anchor="middle" x="437.5" y="-7.9" font-family="Helvetica,sans-Serif" font-size="12.00">gpio.h</text>
</a>
</g>
</g>
<!-- Node2&#45;&gt;Node8 -->
<g id="edge7" class="edge">
<title>Node2&#45;&gt;Node8</title>
<path fill="none" stroke="midnightblue" d="M409.42,-58.25C414.1,-50.54 420.77,-39.56 426.43,-30.23"/>
<polygon fill="midnightblue" stroke="midnightblue" points="429.45,-32.01 431.65,-21.64 423.46,-28.37 429.45,-32.01"/>
</g>
<!-- Node9 -->
<g id="node9" class="node">
<title>Node9</title>
<g id="a_node9"><a xlink:title=" ">
<polygon fill="white" stroke="#bfbfbf" points="482,-0.5 482,-21.5 541,-21.5 541,-0.5 482,-0.5"/>
<text text-anchor="middle" x="511.5" y="-7.9" font-family="Helvetica,sans-Serif" font-size="12.00">delay.h</text>
</a>
</g>
</g>
<!-- Node2&#45;&gt;Node9 -->
<g id="edge8" class="edge">
<title>Node2&#45;&gt;Node9</title>
<path fill="none" stroke="midnightblue" d="M422.31,-58.25C439.35,-49.41 464.66,-36.29 483.97,-26.28"/>
<polygon fill="midnightblue" stroke="midnightblue" points="485.64,-29.35 492.9,-21.64 482.41,-23.14 485.64,-29.35"/>
</g>
<!-- Node10 -->
<g id="node10" class="node">
<title>Node10</title>
<g id="a_node10"><a xlink:title=" ">
<polygon fill="white" stroke="#bfbfbf" points="559.5,-0.5 559.5,-21.5 609.5,-21.5 609.5,-0.5 559.5,-0.5"/>
<text text-anchor="middle" x="584.5" y="-7.9" font-family="Helvetica,sans-Serif" font-size="12.00">exti.h</text>
</a>
</g>
</g>
<!-- Node2&#45;&gt;Node10 -->
<g id="edge9" class="edge">
<title>Node2&#45;&gt;Node10</title>
<path fill="none" stroke="midnightblue" d="M432.58,-59C464.37,-49.17 515.3,-33.41 549.31,-22.89"/>
<polygon fill="midnightblue" stroke="midnightblue" points="550.77,-26.1 559.29,-19.8 548.7,-19.41 550.77,-26.1"/>
</g>
<!-- Node11 -->
<g id="node11" class="node">
<title>Node11</title>
<g id="a_node11"><a xlink:title=" ">
<polygon fill="white" stroke="#bfbfbf" points="627.5,-0.5 627.5,-21.5 679.5,-21.5 679.5,-0.5 627.5,-0.5"/>
<text text-anchor="middle" x="653.5" y="-7.9" font-family="Helvetica,sans-Serif" font-size="12.00">nvic.h</text>
</a>
</g>
</g>
<!-- Node2&#45;&gt;Node11 -->
<g id="edge10" class="edge">
<title>Node2&#45;&gt;Node11</title>
<path fill="none" stroke="midnightblue" d="M432.51,-62.44C472.08,-54.72 545.42,-39.91 617.08,-22.24"/>
<polygon fill="midnightblue" stroke="midnightblue" points="618.32,-25.54 627.18,-19.73 616.63,-18.74 618.32,-25.54"/>
</g>
<!-- Node12 -->
<g id="node12" class="node">
<title>Node12</title>
<g id="a_node12"><a xlink:title=" ">
<polygon fill="white" stroke="#bfbfbf" points="697.5,-0.5 697.5,-21.5 763.5,-21.5 763.5,-0.5 697.5,-0.5"/>
<text text-anchor="middle" x="730.5" y="-7.9" font-family="Helvetica,sans-Serif" font-size="12.00">timers.h</text>
</a>
</g>
</g>
<!-- Node2&#45;&gt;Node12 -->
<g id="edge11" class="edge">
<title>Node2&#45;&gt;Node12</title>
<path fill="none" stroke="midnightblue" d="M432.76,-64C482.86,-57 588.51,-41.57 687.24,-22.15"/>
<polygon fill="midnightblue" stroke="midnightblue" points="687.95,-25.57 697.08,-20.19 686.59,-18.71 687.95,-25.57"/>
</g>
</g>
</svg>
