<?xml version="1.0" encoding="UTF-8" standalone="no"?>
<!DOCTYPE svg PUBLIC "-//W3C//DTD SVG 1.1//EN"
 "http://www.w3.org/Graphics/SVG/1.1/DTD/svg11.dtd">
<!-- Generated by graphviz version 2.43.0 (0)
 -->
<!-- Title: /home/ubuntu/Desktop/repositories/learn&#45;arm/src/c/lib/include/timers.h Pages: 1 -->
<svg width="196pt" height="172pt"
 viewBox="0.00 0.00 196.00 172.00" xmlns="http://www.w3.org/2000/svg" xmlns:xlink="http://www.w3.org/1999/xlink">
<g id="graph0" class="graph" transform="scale(1 1) rotate(0) translate(4 168)">
<title>/home/ubuntu/Desktop/repositories/learn&#45;arm/src/c/lib/include/timers.h</title>
<polygon fill="white" stroke="transparent" points="-4,4 -4,-168 192,-168 192,4 -4,4"/>
<!-- Node1 -->
<g id="node1" class="node">
<title>Node1</title>
<g id="a_node1"><a xlink:title=" ">
<polygon fill="#bfbfbf" stroke="black" points="9,-116.5 9,-163.5 174,-163.5 174,-116.5 9,-116.5"/>
<text text-anchor="start" x="17" y="-149.9" font-family="Helvetica,sans-Serif" font-size="12.00">/home/ubuntu/Desktop</text>
<text text-anchor="start" x="17" y="-136.9" font-family="Helvetica,sans-Serif" font-size="12.00">/repositories/learn&#45;arm</text>
<text text-anchor="middle" x="91.5" y="-123.9" font-family="Helvetica,sans-Serif" font-size="12.00">/src/c/lib/include/timers.h</text>
</a>
</g>
</g>
<!-- Node2 -->
<g id="node2" class="node">
<title>Node2</title>
<g id="a_node2"><a xlink:title=" ">
<polygon fill="white" stroke="#bfbfbf" points="0,-0.5 0,-21.5 61,-21.5 61,-0.5 0,-0.5"/>
<text text-anchor="middle" x="30.5" y="-7.9" font-family="Helvetica,sans-Serif" font-size="12.00">stdint.h</text>
</a>
</g>
</g>
<!-- Node1&#45;&gt;Node2 -->
<g id="edge1" class="edge">
<title>Node1&#45;&gt;Node2</title>
<path fill="none" stroke="midnightblue" d="M58.85,-116.22C47.67,-106.49 36.48,-94.11 30.5,-80 24.03,-64.73 24.66,-45.75 26.54,-31.72"/>
<polygon fill="midnightblue" stroke="midnightblue" points="30.02,-32.14 28.22,-21.7 23.12,-30.99 30.02,-32.14"/>
</g>
<!-- Node3 -->
<g id="node3" class="node">
<title>Node3</title>
<g id="a_node3"><a xlink:title=" ">
<polygon fill="white" stroke="#bfbfbf" points="117,-0.5 117,-21.5 188,-21.5 188,-0.5 117,-0.5"/>
<text text-anchor="middle" x="152.5" y="-7.9" font-family="Helvetica,sans-Serif" font-size="12.00">stdbool.h</text>
</a>
</g>
</g>
<!-- Node1&#45;&gt;Node3 -->
<g id="edge2" class="edge">
<title>Node1&#45;&gt;Node3</title>
<path fill="none" stroke="midnightblue" d="M124.15,-116.22C135.33,-106.49 146.52,-94.11 152.5,-80 158.97,-64.73 158.34,-45.75 156.46,-31.72"/>
<polygon fill="midnightblue" stroke="midnightblue" points="159.88,-30.99 154.78,-21.7 152.98,-32.14 159.88,-30.99"/>
</g>
<!-- Node4 -->
<g id="node4" class="node">
<title>Node4</title>
<g id="a_node4"><a xlink:href="../../db/d65/rcc_8h.html" target="_top" xlink:title="This header file contains all the function declarations for the LCD module.">
<polygon fill="white" stroke="black" points="39.5,-58.5 39.5,-79.5 143.5,-79.5 143.5,-58.5 39.5,-58.5"/>
<text text-anchor="middle" x="91.5" y="-65.9" font-family="Helvetica,sans-Serif" font-size="12.00">../include/rcc.h</text>
</a>
</g>
</g>
<!-- Node1&#45;&gt;Node4 -->
<g id="edge3" class="edge">
<title>Node1&#45;&gt;Node4</title>
<path fill="none" stroke="midnightblue" d="M91.5,-116.41C91.5,-107.87 91.5,-98.22 91.5,-89.94"/>
<polygon fill="midnightblue" stroke="midnightblue" points="95,-89.74 91.5,-79.74 88,-89.74 95,-89.74"/>
</g>
<!-- Node4&#45;&gt;Node2 -->
<g id="edge4" class="edge">
<title>Node4&#45;&gt;Node2</title>
<path fill="none" stroke="midnightblue" d="M80.87,-58.25C71.95,-50.05 59.01,-38.17 48.48,-28.51"/>
<polygon fill="midnightblue" stroke="midnightblue" points="50.74,-25.83 41,-21.64 46,-30.98 50.74,-25.83"/>
</g>
<!-- Node4&#45;&gt;Node3 -->
<g id="edge5" class="edge">
<title>Node4&#45;&gt;Node3</title>
<path fill="none" stroke="midnightblue" d="M102.13,-58.25C111.05,-50.05 123.99,-38.17 134.52,-28.51"/>
<polygon fill="midnightblue" stroke="midnightblue" points="137,-30.98 142,-21.64 132.26,-25.83 137,-30.98"/>
</g>
</g>
</svg>
