<?xml version="1.0" encoding="UTF-8" standalone="no"?>
<!DOCTYPE svg PUBLIC "-//W3C//DTD SVG 1.1//EN"
 "http://www.w3.org/Graphics/SVG/1.1/DTD/svg11.dtd">
<!-- Generated by graphviz version 2.43.0 (0)
 -->
<!-- Title: /home/ubuntu/Desktop/repositories/learn&#45;arm/src/c/lib/include/flash.h Pages: 1 -->
<svg width="238pt" height="198pt"
 viewBox="0.00 0.00 237.50 198.00" xmlns="http://www.w3.org/2000/svg" xmlns:xlink="http://www.w3.org/1999/xlink">
<g id="graph0" class="graph" transform="scale(1 1) rotate(0) translate(4 194)">
<title>/home/ubuntu/Desktop/repositories/learn&#45;arm/src/c/lib/include/flash.h</title>
<polygon fill="white" stroke="transparent" points="-4,4 -4,-194 233.5,-194 233.5,4 -4,4"/>
<!-- Node1 -->
<g id="node1" class="node">
<title>Node1</title>
<g id="a_node1"><a xlink:title="This header file contains all the function declarations for the LCD module.">
<polygon fill="#bfbfbf" stroke="black" points="13.5,-142.5 13.5,-189.5 168.5,-189.5 168.5,-142.5 13.5,-142.5"/>
<text text-anchor="start" x="21.5" y="-175.9" font-family="Helvetica,sans-Serif" font-size="12.00">/home/ubuntu/Desktop</text>
<text text-anchor="start" x="21.5" y="-162.9" font-family="Helvetica,sans-Serif" font-size="12.00">/repositories/learn&#45;arm</text>
<text text-anchor="middle" x="91" y="-149.9" font-family="Helvetica,sans-Serif" font-size="12.00">/src/c/lib/include/flash.h</text>
</a>
</g>
</g>
<!-- Node2 -->
<g id="node2" class="node">
<title>Node2</title>
<g id="a_node2"><a xlink:href="../../d4/dbf/main_8h.html" target="_top" xlink:title="This header file contains all the function declarations for main.">
<polygon fill="white" stroke="black" points="0,-71.5 0,-92.5 58,-92.5 58,-71.5 0,-71.5"/>
<text text-anchor="middle" x="29" y="-78.9" font-family="Helvetica,sans-Serif" font-size="12.00">main.h</text>
</a>
</g>
</g>
<!-- Node1&#45;&gt;Node2 -->
<g id="edge1" class="edge">
<title>Node1&#45;&gt;Node2</title>
<path fill="none" stroke="midnightblue" d="M67.42,-133.81C56.35,-119.18 43.95,-102.77 36.31,-92.66"/>
<polygon fill="midnightblue" stroke="midnightblue" points="64.91,-136.29 73.73,-142.16 70.49,-132.07 64.91,-136.29"/>
</g>
<!-- Node4 -->
<g id="node4" class="node">
<title>Node4</title>
<g id="a_node4"><a xlink:href="../../d1/d4d/flash_8c.html" target="_top" xlink:title=" ">
<polygon fill="white" stroke="black" points="76.5,-58.5 76.5,-105.5 229.5,-105.5 229.5,-58.5 76.5,-58.5"/>
<text text-anchor="start" x="84.5" y="-91.9" font-family="Helvetica,sans-Serif" font-size="12.00">/home/ubuntu/Desktop</text>
<text text-anchor="start" x="84.5" y="-78.9" font-family="Helvetica,sans-Serif" font-size="12.00">/repositories/learn&#45;arm</text>
<text text-anchor="middle" x="153" y="-65.9" font-family="Helvetica,sans-Serif" font-size="12.00">/src/c/lib/source/flash.c</text>
</a>
</g>
</g>
<!-- Node1&#45;&gt;Node4 -->
<g id="edge3" class="edge">
<title>Node1&#45;&gt;Node4</title>
<path fill="none" stroke="midnightblue" d="M114.35,-134.12C121.48,-124.69 129.18,-114.5 135.82,-105.72"/>
<polygon fill="midnightblue" stroke="midnightblue" points="111.51,-132.07 108.27,-142.16 117.09,-136.29 111.51,-132.07"/>
</g>
<!-- Node3 -->
<g id="node3" class="node">
<title>Node3</title>
<g id="a_node3"><a xlink:href="../../d0/d29/main_8c.html" target="_top" xlink:title=" ">
<polygon fill="white" stroke="black" points="0.5,-0.5 0.5,-21.5 57.5,-21.5 57.5,-0.5 0.5,-0.5"/>
<text text-anchor="middle" x="29" y="-7.9" font-family="Helvetica,sans-Serif" font-size="12.00">main.c</text>
</a>
</g>
</g>
<!-- Node2&#45;&gt;Node3 -->
<g id="edge2" class="edge">
<title>Node2&#45;&gt;Node3</title>
<path fill="none" stroke="midnightblue" d="M29,-61.09C29,-48.08 29,-31.68 29,-21.51"/>
<polygon fill="midnightblue" stroke="midnightblue" points="25.5,-61.41 29,-71.41 32.5,-61.41 25.5,-61.41"/>
</g>
</g>
</svg>
