<?xml version="1.0" encoding="UTF-8" standalone="no"?>
<!DOCTYPE svg PUBLIC "-//W3C//DTD SVG 1.1//EN"
 "http://www.w3.org/Graphics/SVG/1.1/DTD/svg11.dtd">
<!-- Generated by graphviz version 2.43.0 (0)
 -->
<!-- Title: /home/ubuntu/Desktop/repositories/learn&#45;arm/src/c/lib/source/delay.c Pages: 1 -->
<svg width="178pt" height="230pt"
 viewBox="0.00 0.00 178.00 230.00" xmlns="http://www.w3.org/2000/svg" xmlns:xlink="http://www.w3.org/1999/xlink">
<g id="graph0" class="graph" transform="scale(1 1) rotate(0) translate(4 226)">
<title>/home/ubuntu/Desktop/repositories/learn&#45;arm/src/c/lib/source/delay.c</title>
<polygon fill="white" stroke="transparent" points="-4,4 -4,-226 174,-226 174,4 -4,4"/>
<!-- Node1 -->
<g id="node1" class="node">
<title>Node1</title>
<g id="a_node1"><a xlink:title=" ">
<polygon fill="#bfbfbf" stroke="black" points="5.5,-174.5 5.5,-221.5 159.5,-221.5 159.5,-174.5 5.5,-174.5"/>
<text text-anchor="start" x="13.5" y="-207.9" font-family="Helvetica,sans-Serif" font-size="12.00">/home/ubuntu/Desktop</text>
<text text-anchor="start" x="13.5" y="-194.9" font-family="Helvetica,sans-Serif" font-size="12.00">/repositories/learn&#45;arm</text>
<text text-anchor="middle" x="82.5" y="-181.9" font-family="Helvetica,sans-Serif" font-size="12.00">/src/c/lib/source/delay.c</text>
</a>
</g>
</g>
<!-- Node2 -->
<g id="node2" class="node">
<title>Node2</title>
<g id="a_node2"><a xlink:href="../../dd/dee/delay_8h.html" target="_top" xlink:title="This header file contains all the function declarations for the LCD module.">
<polygon fill="white" stroke="black" points="24.5,-116.5 24.5,-137.5 140.5,-137.5 140.5,-116.5 24.5,-116.5"/>
<text text-anchor="middle" x="82.5" y="-123.9" font-family="Helvetica,sans-Serif" font-size="12.00">../include/delay.h</text>
</a>
</g>
</g>
<!-- Node1&#45;&gt;Node2 -->
<g id="edge1" class="edge">
<title>Node1&#45;&gt;Node2</title>
<path fill="none" stroke="midnightblue" d="M82.5,-174.41C82.5,-165.87 82.5,-156.22 82.5,-147.94"/>
<polygon fill="midnightblue" stroke="midnightblue" points="86,-147.74 82.5,-137.74 79,-147.74 86,-147.74"/>
</g>
<!-- Node3 -->
<g id="node3" class="node">
<title>Node3</title>
<g id="a_node3"><a xlink:href="../../d3/dcb/systick_8h.html" target="_top" xlink:title=" ">
<polygon fill="white" stroke="black" points="48.5,-58.5 48.5,-79.5 116.5,-79.5 116.5,-58.5 48.5,-58.5"/>
<text text-anchor="middle" x="82.5" y="-65.9" font-family="Helvetica,sans-Serif" font-size="12.00">systick.h</text>
</a>
</g>
</g>
<!-- Node2&#45;&gt;Node3 -->
<g id="edge2" class="edge">
<title>Node2&#45;&gt;Node3</title>
<path fill="none" stroke="midnightblue" d="M82.5,-116.25C82.5,-108.94 82.5,-98.69 82.5,-89.7"/>
<polygon fill="midnightblue" stroke="midnightblue" points="86,-89.64 82.5,-79.64 79,-89.64 86,-89.64"/>
</g>
<!-- Node4 -->
<g id="node4" class="node">
<title>Node4</title>
<g id="a_node4"><a xlink:title=" ">
<polygon fill="white" stroke="#bfbfbf" points="0,-0.5 0,-21.5 61,-21.5 61,-0.5 0,-0.5"/>
<text text-anchor="middle" x="30.5" y="-7.9" font-family="Helvetica,sans-Serif" font-size="12.00">stdint.h</text>
</a>
</g>
</g>
<!-- Node2&#45;&gt;Node4 -->
<g id="edge5" class="edge">
<title>Node2&#45;&gt;Node4</title>
<path fill="none" stroke="midnightblue" d="M70.09,-116.5C60.07,-108.07 46.51,-94.82 39.5,-80 32.35,-64.88 30.34,-45.88 29.98,-31.81"/>
<polygon fill="midnightblue" stroke="midnightblue" points="33.48,-31.75 29.97,-21.75 26.48,-31.76 33.48,-31.75"/>
</g>
<!-- Node5 -->
<g id="node5" class="node">
<title>Node5</title>
<g id="a_node5"><a xlink:title=" ">
<polygon fill="white" stroke="#bfbfbf" points="99,-0.5 99,-21.5 170,-21.5 170,-0.5 99,-0.5"/>
<text text-anchor="middle" x="134.5" y="-7.9" font-family="Helvetica,sans-Serif" font-size="12.00">stdbool.h</text>
</a>
</g>
</g>
<!-- Node2&#45;&gt;Node5 -->
<g id="edge6" class="edge">
<title>Node2&#45;&gt;Node5</title>
<path fill="none" stroke="midnightblue" d="M94.91,-116.5C104.93,-108.07 118.49,-94.82 125.5,-80 132.65,-64.88 134.66,-45.88 135.02,-31.81"/>
<polygon fill="midnightblue" stroke="midnightblue" points="138.52,-31.76 135.03,-21.75 131.52,-31.75 138.52,-31.76"/>
</g>
<!-- Node3&#45;&gt;Node4 -->
<g id="edge3" class="edge">
<title>Node3&#45;&gt;Node4</title>
<path fill="none" stroke="midnightblue" d="M73.44,-58.25C65.99,-50.22 55.24,-38.64 46.36,-29.08"/>
<polygon fill="midnightblue" stroke="midnightblue" points="48.82,-26.59 39.45,-21.64 43.69,-31.35 48.82,-26.59"/>
</g>
<!-- Node3&#45;&gt;Node5 -->
<g id="edge4" class="edge">
<title>Node3&#45;&gt;Node5</title>
<path fill="none" stroke="midnightblue" d="M91.56,-58.25C99.01,-50.22 109.76,-38.64 118.64,-29.08"/>
<polygon fill="midnightblue" stroke="midnightblue" points="121.31,-31.35 125.55,-21.64 116.18,-26.59 121.31,-31.35"/>
</g>
</g>
</svg>
