<?xml version="1.0" encoding="UTF-8" standalone="no"?>
<!DOCTYPE svg PUBLIC "-//W3C//DTD SVG 1.1//EN"
 "http://www.w3.org/Graphics/SVG/1.1/DTD/svg11.dtd">
<!-- Generated by graphviz version 2.43.0 (0)
 -->
<!-- Title: /home/ubuntu/Desktop/repositories/learn&#45;arm/src/c/lib/source/nvic.c Pages: 1 -->
<svg width="161pt" height="172pt"
 viewBox="0.00 0.00 161.00 172.00" xmlns="http://www.w3.org/2000/svg" xmlns:xlink="http://www.w3.org/1999/xlink">
<g id="graph0" class="graph" transform="scale(1 1) rotate(0) translate(4 168)">
<title>/home/ubuntu/Desktop/repositories/learn&#45;arm/src/c/lib/source/nvic.c</title>
<polygon fill="white" stroke="transparent" points="-4,4 -4,-168 157,-168 157,4 -4,4"/>
<!-- Node1 -->
<g id="node1" class="node">
<title>Node1</title>
<g id="a_node1"><a xlink:title=" ">
<polygon fill="#bfbfbf" stroke="black" points="0,-116.5 0,-163.5 153,-163.5 153,-116.5 0,-116.5"/>
<text text-anchor="start" x="8" y="-149.9" font-family="Helvetica,sans-Serif" font-size="12.00">/home/ubuntu/Desktop</text>
<text text-anchor="start" x="8" y="-136.9" font-family="Helvetica,sans-Serif" font-size="12.00">/repositories/learn&#45;arm</text>
<text text-anchor="middle" x="76.5" y="-123.9" font-family="Helvetica,sans-Serif" font-size="12.00">/src/c/lib/source/nvic.c</text>
</a>
</g>
</g>
<!-- Node2 -->
<g id="node2" class="node">
<title>Node2</title>
<g id="a_node2"><a xlink:href="../../da/d7e/nvic_8h.html" target="_top" xlink:title=" ">
<polygon fill="white" stroke="black" points="21.5,-58.5 21.5,-79.5 131.5,-79.5 131.5,-58.5 21.5,-58.5"/>
<text text-anchor="middle" x="76.5" y="-65.9" font-family="Helvetica,sans-Serif" font-size="12.00">../include/nvic.h</text>
</a>
</g>
</g>
<!-- Node1&#45;&gt;Node2 -->
<g id="edge1" class="edge">
<title>Node1&#45;&gt;Node2</title>
<path fill="none" stroke="midnightblue" d="M76.5,-116.41C76.5,-107.87 76.5,-98.22 76.5,-89.94"/>
<polygon fill="midnightblue" stroke="midnightblue" points="80,-89.74 76.5,-79.74 73,-89.74 80,-89.74"/>
</g>
<!-- Node3 -->
<g id="node3" class="node">
<title>Node3</title>
<g id="a_node3"><a xlink:title=" ">
<polygon fill="white" stroke="#bfbfbf" points="46,-0.5 46,-21.5 107,-21.5 107,-0.5 46,-0.5"/>
<text text-anchor="middle" x="76.5" y="-7.9" font-family="Helvetica,sans-Serif" font-size="12.00">stdint.h</text>
</a>
</g>
</g>
<!-- Node2&#45;&gt;Node3 -->
<g id="edge2" class="edge">
<title>Node2&#45;&gt;Node3</title>
<path fill="none" stroke="midnightblue" d="M76.5,-58.25C76.5,-50.94 76.5,-40.69 76.5,-31.7"/>
<polygon fill="midnightblue" stroke="midnightblue" points="80,-31.64 76.5,-21.64 73,-31.64 80,-31.64"/>
</g>
</g>
</svg>
