<?xml version="1.0" encoding="UTF-8" standalone="no"?>
<!DOCTYPE svg PUBLIC "-//W3C//DTD SVG 1.1//EN"
 "http://www.w3.org/Graphics/SVG/1.1/DTD/svg11.dtd">
<!-- Generated by graphviz version 2.43.0 (0)
 -->
<!-- Title: main.h Pages: 1 -->
<!--zoomable 262 -->
<svg id="main" version="1.1" xmlns="http://www.w3.org/2000/svg" xmlns:xlink="http://www.w3.org/1999/xlink" xml:space="preserve" onload="init(evt)">
<style type="text/css"><![CDATA[
.edge:hover path { stroke: red; }
.edge:hover polygon { stroke: red; fill: red; }
]]></style>
<script type="text/javascript"><![CDATA[
var edges = document.getElementsByTagName('g');
if (edges && edges.length) {
  for (var i=0;i<edges.length;i++) {
    if (edges[i].id.substr(0,4)=='edge') {
      edges[i].setAttribute('class','edge');
    }
  }
}
]]></script>
        <defs>
                <circle id="rim" cx="0" cy="0" r="7"/>
                <circle id="rim2" cx="0" cy="0" r="3.5"/>
                <g id="zoomPlus">
                        <use xlink:href="#rim" fill="#404040">
                                <set attributeName="fill" to="#808080" begin="zoomplus.mouseover" end="zoomplus.mouseout"/>
                        </use>
                        <path d="M-4,0h8M0,-4v8" fill="none" stroke="white" stroke-width="1.5" pointer-events="none"/>
                </g>
                <g id="zoomMin">
                        <use xlink:href="#rim" fill="#404040">
                                <set attributeName="fill" to="#808080" begin="zoomminus.mouseover" end="zoomminus.mouseout"/>
                        </use>
                        <path d="M-4,0h8" fill="none" stroke="white" stroke-width="1.5" pointer-events="none"/>
                </g>
                <g id="dirArrow">
                        <path fill="none" stroke="white" stroke-width="1.5" d="M0,-3.0v7 M-2.5,-0.5L0,-3.0L2.5,-0.5"/>
                </g>
               <g id="resetDef">
                       <use xlink:href="#rim2" fill="#404040">
                               <set attributeName="fill" to="#808080" begin="reset.mouseover" end="reset.mouseout"/>
                       </use>
               </g>
        </defs>

<script type="text/javascript">
var viewWidth = 514;
var viewHeight = 262;
var sectionId = 'dynsection-0';
</script>
<script xlink:href="../../svgpan.js"/>
<svg id="graph" class="graph">
<g id="viewport">
<title>main.h</title>
<polygon fill="white" stroke="transparent" points="-4,4 -4,-258 509.97,-258 509.97,4 -4,4"/>
<!-- Node1 -->
<g id="node1" class="node">
<title>Node1</title>
<g id="a_node1"><a xlink:title="This header file contains all the function declarations for main.">
<polygon fill="#bfbfbf" stroke="black" points="125.21,-232.5 125.21,-253.5 183.21,-253.5 183.21,-232.5 125.21,-232.5"/>
<text text-anchor="middle" x="154.21" y="-239.9" font-family="Helvetica,sans-Serif" font-size="12.00">main.h</text>
</a>
</g>
</g>
<!-- Node2 -->
<g id="node2" class="node">
<title>Node2</title>
<g id="a_node2"><a xlink:title=" ">
<polygon fill="white" stroke="#bfbfbf" points="91.71,-0.5 91.71,-21.5 152.71,-21.5 152.71,-0.5 91.71,-0.5"/>
<text text-anchor="middle" x="122.21" y="-7.9" font-family="Helvetica,sans-Serif" font-size="12.00">stdint.h</text>
</a>
</g>
</g>
<!-- Node1&#45;&gt;Node2 -->
<g id="edge1" class="edge">
<title>Node1&#45;&gt;Node2</title>
<path fill="none" stroke="midnightblue" d="M125,-235.9C101.44,-229.6 68.93,-217.55 48.21,-196 9.89,-156.14 13.39,-134.36 3.21,-80 1.42,-70.39 -2.31,-66.06 3.21,-58 20.71,-32.49 54.53,-21.12 81.66,-16.06"/>
<polygon fill="midnightblue" stroke="midnightblue" points="82.38,-19.49 91.68,-14.41 81.24,-12.58 82.38,-19.49"/>
</g>
<!-- Node3 -->
<g id="node3" class="node">
<title>Node3</title>
<g id="a_node3"><a xlink:href="../../d0/dea/jlx12864g-086_8h.html" target="_top" xlink:title="This header file contains all the function declarations for the LCD module.">
<polygon fill="white" stroke="black" points="97.71,-174.5 97.71,-195.5 210.71,-195.5 210.71,-174.5 97.71,-174.5"/>
<text text-anchor="middle" x="154.21" y="-181.9" font-family="Helvetica,sans-Serif" font-size="12.00">jlx12864g&#45;086.h</text>
</a>
</g>
</g>
<!-- Node1&#45;&gt;Node3 -->
<g id="edge2" class="edge">
<title>Node1&#45;&gt;Node3</title>
<path fill="none" stroke="midnightblue" d="M154.21,-232.25C154.21,-224.94 154.21,-214.69 154.21,-205.7"/>
<polygon fill="midnightblue" stroke="midnightblue" points="157.71,-205.64 154.21,-195.64 150.71,-205.64 157.71,-205.64"/>
</g>
<!-- Node5 -->
<g id="node5" class="node">
<title>Node5</title>
<g id="a_node5"><a xlink:href="../../da/d87/spi_8h.html" target="_top" xlink:title=" ">
<polygon fill="white" stroke="black" points="319.21,-116.5 319.21,-137.5 363.21,-137.5 363.21,-116.5 319.21,-116.5"/>
<text text-anchor="middle" x="341.21" y="-123.9" font-family="Helvetica,sans-Serif" font-size="12.00">spi.h</text>
</a>
</g>
</g>
<!-- Node1&#45;&gt;Node5 -->
<g id="edge24" class="edge">
<title>Node1&#45;&gt;Node5</title>
<path fill="none" stroke="midnightblue" d="M171.75,-232.4C188.27,-223.27 213.62,-209.04 235.21,-196 264.2,-178.49 296.91,-157.28 318.23,-143.25"/>
<polygon fill="midnightblue" stroke="midnightblue" points="320.2,-146.14 326.62,-137.71 316.35,-140.3 320.2,-146.14"/>
</g>
<!-- Node6 -->
<g id="node6" class="node">
<title>Node6</title>
<g id="a_node6"><a xlink:href="../../db/d65/rcc_8h.html" target="_top" xlink:title="This header file contains all the function declarations for the LCD module.">
<polygon fill="white" stroke="black" points="369.21,-58.5 369.21,-79.5 473.21,-79.5 473.21,-58.5 369.21,-58.5"/>
<text text-anchor="middle" x="421.21" y="-65.9" font-family="Helvetica,sans-Serif" font-size="12.00">../include/rcc.h</text>
</a>
</g>
</g>
<!-- Node1&#45;&gt;Node6 -->
<g id="edge23" class="edge">
<title>Node1&#45;&gt;Node6</title>
<path fill="none" stroke="midnightblue" d="M183.25,-233.85C228.02,-220.12 314.7,-188.8 372.21,-138 388.32,-123.78 402.15,-103.34 410.97,-88.59"/>
<polygon fill="midnightblue" stroke="midnightblue" points="414.05,-90.25 416.01,-79.84 407.98,-86.75 414.05,-90.25"/>
</g>
<!-- Node7 -->
<g id="node7" class="node">
<title>Node7</title>
<g id="a_node7"><a xlink:href="../../dd/dee/delay_8h.html" target="_top" xlink:title="This header file contains all the function declarations for the LCD module.">
<polygon fill="white" stroke="black" points="173.71,-116.5 173.71,-137.5 232.71,-137.5 232.71,-116.5 173.71,-116.5"/>
<text text-anchor="middle" x="203.21" y="-123.9" font-family="Helvetica,sans-Serif" font-size="12.00">delay.h</text>
</a>
</g>
</g>
<!-- Node1&#45;&gt;Node7 -->
<g id="edge26" class="edge">
<title>Node1&#45;&gt;Node7</title>
<path fill="none" stroke="midnightblue" d="M178,-232.42C193.08,-224.94 211.36,-212.96 220.21,-196 228.36,-180.4 221.87,-160.72 214.69,-146.55"/>
<polygon fill="midnightblue" stroke="midnightblue" points="217.71,-144.77 209.78,-137.74 211.59,-148.18 217.71,-144.77"/>
</g>
<!-- Node9 -->
<g id="node9" class="node">
<title>Node9</title>
<g id="a_node9"><a xlink:href="../../d6/d7c/gpio_8h.html" target="_top" xlink:title="This header file contains all the function declarations for the LCD module.">
<polygon fill="white" stroke="black" points="42.71,-116.5 42.71,-137.5 95.71,-137.5 95.71,-116.5 42.71,-116.5"/>
<text text-anchor="middle" x="69.21" y="-123.9" font-family="Helvetica,sans-Serif" font-size="12.00">gpio.h</text>
</a>
</g>
</g>
<!-- Node1&#45;&gt;Node9 -->
<g id="edge25" class="edge">
<title>Node1&#45;&gt;Node9</title>
<path fill="none" stroke="midnightblue" d="M134.12,-232.43C119.64,-224.55 100.71,-212.08 89.21,-196 79.05,-181.78 74.01,-162.41 71.53,-147.98"/>
<polygon fill="midnightblue" stroke="midnightblue" points="74.94,-147.06 70.05,-137.66 68.01,-148.05 74.94,-147.06"/>
</g>
<!-- Node10 -->
<g id="node10" class="node">
<title>Node10</title>
<g id="a_node10"><a xlink:href="../../de/df7/flash_8h.html" target="_top" xlink:title="This header file contains all the function declarations for the LCD module.">
<polygon fill="white" stroke="black" points="19.21,-58.5 19.21,-79.5 75.21,-79.5 75.21,-58.5 19.21,-58.5"/>
<text text-anchor="middle" x="47.21" y="-65.9" font-family="Helvetica,sans-Serif" font-size="12.00">flash.h</text>
</a>
</g>
</g>
<!-- Node1&#45;&gt;Node10 -->
<g id="edge20" class="edge">
<title>Node1&#45;&gt;Node10</title>
<path fill="none" stroke="midnightblue" d="M131.77,-232.43C114.7,-224.41 91.3,-211.74 74.21,-196 51.18,-174.78 43.52,-167.9 34.21,-138 29.2,-121.91 33.58,-103.04 38.57,-89.26"/>
<polygon fill="midnightblue" stroke="midnightblue" points="41.87,-90.44 42.36,-79.85 35.38,-87.82 41.87,-90.44"/>
</g>
<!-- Node3&#45;&gt;Node2 -->
<g id="edge3" class="edge">
<title>Node3&#45;&gt;Node2</title>
<path fill="none" stroke="midnightblue" d="M152.4,-174.26C147.3,-146.82 132.73,-68.51 125.87,-31.64"/>
<polygon fill="midnightblue" stroke="midnightblue" points="129.28,-30.82 124.01,-21.63 122.39,-32.1 129.28,-30.82"/>
</g>
<!-- Node4 -->
<g id="node4" class="node">
<title>Node4</title>
<g id="a_node4"><a xlink:title=" ">
<polygon fill="white" stroke="#bfbfbf" points="267.71,-0.5 267.71,-21.5 338.71,-21.5 338.71,-0.5 267.71,-0.5"/>
<text text-anchor="middle" x="303.21" y="-7.9" font-family="Helvetica,sans-Serif" font-size="12.00">stdbool.h</text>
</a>
</g>
</g>
<!-- Node3&#45;&gt;Node4 -->
<g id="edge4" class="edge">
<title>Node3&#45;&gt;Node4</title>
<path fill="none" stroke="midnightblue" d="M210.8,-175.85C300.34,-161.58 467.8,-128.88 499.21,-80 535.15,-24.09 417.44,-13.45 348.92,-11.87"/>
<polygon fill="midnightblue" stroke="midnightblue" points="348.84,-8.37 338.78,-11.69 348.72,-15.36 348.84,-8.37"/>
</g>
<!-- Node3&#45;&gt;Node5 -->
<g id="edge5" class="edge">
<title>Node3&#45;&gt;Node5</title>
<path fill="none" stroke="midnightblue" d="M186.36,-174.37C220.71,-164.09 274.85,-147.87 309.17,-137.6"/>
<polygon fill="midnightblue" stroke="midnightblue" points="310.56,-140.83 319.13,-134.61 308.55,-134.13 310.56,-140.83"/>
</g>
<!-- Node3&#45;&gt;Node7 -->
<g id="edge11" class="edge">
<title>Node3&#45;&gt;Node7</title>
<path fill="none" stroke="midnightblue" d="M162.75,-174.25C169.71,-166.3 179.7,-154.87 188.02,-145.37"/>
<polygon fill="midnightblue" stroke="midnightblue" points="190.83,-147.47 194.78,-137.64 185.56,-142.86 190.83,-147.47"/>
</g>
<!-- Node3&#45;&gt;Node9 -->
<g id="edge17" class="edge">
<title>Node3&#45;&gt;Node9</title>
<path fill="none" stroke="midnightblue" d="M139.41,-174.25C126.49,-165.73 107.52,-153.24 92.56,-143.38"/>
<polygon fill="midnightblue" stroke="midnightblue" points="94.13,-140.22 83.85,-137.64 90.28,-146.07 94.13,-140.22"/>
</g>
<!-- Node5&#45;&gt;Node2 -->
<g id="edge6" class="edge">
<title>Node5&#45;&gt;Node2</title>
<path fill="none" stroke="midnightblue" d="M329.88,-116.34C312.7,-102.08 278.64,-75.22 246.21,-58 219.48,-43.8 187.39,-32.03 162.56,-23.95"/>
<polygon fill="midnightblue" stroke="midnightblue" points="163.33,-20.52 152.74,-20.82 161.21,-27.19 163.33,-20.52"/>
</g>
<!-- Node5&#45;&gt;Node4 -->
<g id="edge7" class="edge">
<title>Node5&#45;&gt;Node4</title>
<path fill="none" stroke="midnightblue" d="M363.29,-123.83C410.73,-118.3 515.52,-100.95 482.21,-58 466,-37.09 396.41,-24.04 348.92,-17.39"/>
<polygon fill="midnightblue" stroke="midnightblue" points="349.24,-13.9 338.86,-16.03 348.3,-20.84 349.24,-13.9"/>
</g>
<!-- Node5&#45;&gt;Node6 -->
<g id="edge8" class="edge">
<title>Node5&#45;&gt;Node6</title>
<path fill="none" stroke="midnightblue" d="M355.15,-116.25C367.31,-107.73 385.16,-95.24 399.24,-85.38"/>
<polygon fill="midnightblue" stroke="midnightblue" points="401.25,-88.24 407.44,-79.64 397.24,-82.51 401.25,-88.24"/>
</g>
<!-- Node6&#45;&gt;Node2 -->
<g id="edge9" class="edge">
<title>Node6&#45;&gt;Node2</title>
<path fill="none" stroke="midnightblue" d="M370.15,-58.44C311.55,-47.46 216.62,-29.68 162.81,-19.6"/>
<polygon fill="midnightblue" stroke="midnightblue" points="163.42,-16.16 152.95,-17.76 162.13,-23.04 163.42,-16.16"/>
</g>
<!-- Node6&#45;&gt;Node4 -->
<g id="edge10" class="edge">
<title>Node6&#45;&gt;Node4</title>
<path fill="none" stroke="midnightblue" d="M400.93,-58.37C382.07,-49.42 353.77,-35.99 332.47,-25.88"/>
<polygon fill="midnightblue" stroke="midnightblue" points="333.77,-22.63 323.23,-21.5 330.77,-28.95 333.77,-22.63"/>
</g>
<!-- Node7&#45;&gt;Node2 -->
<g id="edge15" class="edge">
<title>Node7&#45;&gt;Node2</title>
<path fill="none" stroke="midnightblue" d="M192.9,-116.39C183.69,-107.48 170.14,-93.6 160.21,-80 148.79,-64.36 138.26,-44.93 131.19,-30.85"/>
<polygon fill="midnightblue" stroke="midnightblue" points="134.24,-29.12 126.69,-21.68 127.95,-32.2 134.24,-29.12"/>
</g>
<!-- Node7&#45;&gt;Node4 -->
<g id="edge16" class="edge">
<title>Node7&#45;&gt;Node4</title>
<path fill="none" stroke="midnightblue" d="M227.85,-116.38C244.44,-108.76 265.69,-96.63 279.21,-80 290.55,-66.07 296.71,-46.4 299.95,-31.8"/>
<polygon fill="midnightblue" stroke="midnightblue" points="303.42,-32.28 301.88,-21.8 296.55,-30.95 303.42,-32.28"/>
</g>
<!-- Node8 -->
<g id="node8" class="node">
<title>Node8</title>
<g id="a_node8"><a xlink:href="../../d3/dcb/systick_8h.html" target="_top" xlink:title=" ">
<polygon fill="white" stroke="black" points="169.21,-58.5 169.21,-79.5 237.21,-79.5 237.21,-58.5 169.21,-58.5"/>
<text text-anchor="middle" x="203.21" y="-65.9" font-family="Helvetica,sans-Serif" font-size="12.00">systick.h</text>
</a>
</g>
</g>
<!-- Node7&#45;&gt;Node8 -->
<g id="edge12" class="edge">
<title>Node7&#45;&gt;Node8</title>
<path fill="none" stroke="midnightblue" d="M203.21,-116.25C203.21,-108.94 203.21,-98.69 203.21,-89.7"/>
<polygon fill="midnightblue" stroke="midnightblue" points="206.71,-89.64 203.21,-79.64 199.71,-89.64 206.71,-89.64"/>
</g>
<!-- Node8&#45;&gt;Node2 -->
<g id="edge13" class="edge">
<title>Node8&#45;&gt;Node2</title>
<path fill="none" stroke="midnightblue" d="M189.1,-58.25C176.79,-49.73 158.72,-37.24 144.46,-27.38"/>
<polygon fill="midnightblue" stroke="midnightblue" points="146.38,-24.45 136.16,-21.64 142.4,-30.21 146.38,-24.45"/>
</g>
<!-- Node8&#45;&gt;Node4 -->
<g id="edge14" class="edge">
<title>Node8&#45;&gt;Node4</title>
<path fill="none" stroke="midnightblue" d="M220.63,-58.25C236.26,-49.49 259.42,-36.53 277.23,-26.55"/>
<polygon fill="midnightblue" stroke="midnightblue" points="278.98,-29.58 286,-21.64 275.56,-23.47 278.98,-29.58"/>
</g>
<!-- Node9&#45;&gt;Node2 -->
<g id="edge18" class="edge">
<title>Node9&#45;&gt;Node2</title>
<path fill="none" stroke="midnightblue" d="M50.27,-116.49C27.77,-103.89 -4.93,-80.59 10.21,-58 26.06,-34.37 56.46,-22.87 81.59,-17.27"/>
<polygon fill="midnightblue" stroke="midnightblue" points="82.5,-20.66 91.63,-15.28 81.14,-13.8 82.5,-20.66"/>
</g>
<!-- Node9&#45;&gt;Node4 -->
<g id="edge19" class="edge">
<title>Node9&#45;&gt;Node4</title>
<path fill="none" stroke="midnightblue" d="M95.81,-124.14C132.28,-120.52 198.71,-110.03 246.21,-80 266.05,-67.46 282.47,-45.76 292.51,-30.24"/>
<polygon fill="midnightblue" stroke="midnightblue" points="295.62,-31.86 297.91,-21.52 289.67,-28.18 295.62,-31.86"/>
</g>
<!-- Node10&#45;&gt;Node2 -->
<g id="edge21" class="edge">
<title>Node10&#45;&gt;Node2</title>
<path fill="none" stroke="midnightblue" d="M60.28,-58.25C71.57,-49.81 88.1,-37.47 101.24,-27.66"/>
<polygon fill="midnightblue" stroke="midnightblue" points="103.38,-30.43 109.3,-21.64 99.19,-24.82 103.38,-30.43"/>
</g>
<!-- Node10&#45;&gt;Node4 -->
<g id="edge22" class="edge">
<title>Node10&#45;&gt;Node4</title>
<path fill="none" stroke="midnightblue" d="M75.59,-61.79C119.62,-52.16 204.8,-33.53 257.56,-21.99"/>
<polygon fill="midnightblue" stroke="midnightblue" points="258.31,-25.41 267.33,-19.85 256.81,-18.57 258.31,-25.41"/>
</g>
</g>
</svg>
        <g id="navigator" transform="translate(0 0)" fill="#404254">
                <rect fill="#f2f5e9" fill-opacity="0.5" stroke="#606060" stroke-width=".5" x="0" y="0" width="60" height="60"/>
                <use id="zoomplus" xlink:href="#zoomPlus" x="17" y="9" onmousedown="handleZoom(evt,'in')"/>
                <use id="zoomminus" xlink:href="#zoomMin" x="42" y="9" onmousedown="handleZoom(evt,'out')"/>
                <use id="reset" xlink:href="#resetDef" x="30" y="36" onmousedown="handleReset()"/>
                <g id="arrowUp" xlink:href="#dirArrow" transform="translate(30 24)" onmousedown="handlePan(0,-1)">
                  <use xlink:href="#rim" fill="#404040">
                        <set attributeName="fill" to="#808080" begin="arrowUp.mouseover" end="arrowUp.mouseout"/>
                  </use>
                  <path fill="none" stroke="white" stroke-width="1.5" d="M0,-3.0v7 M-2.5,-0.5L0,-3.0L2.5,-0.5"/>
                </g>
                <g id="arrowRight" xlink:href="#dirArrow" transform="rotate(90) translate(36 -43)" onmousedown="handlePan(1,0)">
                  <use xlink:href="#rim" fill="#404040">
                        <set attributeName="fill" to="#808080" begin="arrowRight.mouseover" end="arrowRight.mouseout"/>
                  </use>
                  <path fill="none" stroke="white" stroke-width="1.5" d="M0,-3.0v7 M-2.5,-0.5L0,-3.0L2.5,-0.5"/>
                </g>
                <g id="arrowDown" xlink:href="#dirArrow" transform="rotate(180) translate(-30 -48)" onmousedown="handlePan(0,1)">
                  <use xlink:href="#rim" fill="#404040">
                        <set attributeName="fill" to="#808080" begin="arrowDown.mouseover" end="arrowDown.mouseout"/>
                  </use>
                  <path fill="none" stroke="white" stroke-width="1.5" d="M0,-3.0v7 M-2.5,-0.5L0,-3.0L2.5,-0.5"/>
                </g>
                <g id="arrowLeft" xlink:href="#dirArrow" transform="rotate(270) translate(-36 17)" onmousedown="handlePan(-1,0)">
                  <use xlink:href="#rim" fill="#404040">
                        <set attributeName="fill" to="#808080" begin="arrowLeft.mouseover" end="arrowLeft.mouseout"/>
                  </use>
                  <path fill="none" stroke="white" stroke-width="1.5" d="M0,-3.0v7 M-2.5,-0.5L0,-3.0L2.5,-0.5"/>
                </g>
        </g>
        <svg viewBox="0 0 15 15" width="100%" height="30px" preserveAspectRatio="xMaxYMin meet">
         <g id="arrow_out" transform="scale(0.3 0.3)">
          <a xlink:href="main_8h__incl_org.svg" target="_base">
           <rect id="button" ry="5" rx="5" y="6" x="6" height="38" width="38"
                fill="#f2f5e9" fill-opacity="0.5" stroke="#606060" stroke-width="1.0"/>
           <path id="arrow"
             d="M 11.500037,31.436501 C 11.940474,20.09759 22.043105,11.32322 32.158766,21.979434 L 37.068811,17.246167 C 37.068811,17.246167 37.088388,32 37.088388,32 L 22.160133,31.978069 C 22.160133,31.978069 26.997745,27.140456 26.997745,27.140456 C 18.528582,18.264221 13.291696,25.230495 11.500037,31.436501 z"
             style="fill:#404040;"/>
          </a>
         </g>
        </svg>
</svg>
